M48
;Layer_Color=9474304
;FILE_FORMAT=4:2
METRIC,LZ
;TYPE=PLATED
T1F00S00C0.60
T3F00S00C1.10
T4F00S00C1.50
T5F00S00C2.70
%
T01
X00247Y004725
X004145Y00483
X004335
X00432Y004625
X006635Y00414
X00659Y003885
X00677
X006955
X0072Y003635
X007375Y003
X00621Y002885
X006485Y001655
X0072Y004875
X007285Y005115
X00706Y00513
X007195Y00535
X00687Y005445
X006706Y005501
Y005374
X006045Y005755
X00247Y00557
T03
X001871Y000275
X002125
X002379
X00219Y005578
X001936
X002845Y005583
X003099
X003353
X003607
X003861
X004115
X001682Y005578
X001428
X001174
X00092
T04
X006125Y000425
X005625
X005125
X004245Y000425
X003745
X000425Y00093
Y00143
Y00193
X000425Y003045
Y003545
T05
X007365Y0003
X0003
X007365Y0057
X0003
M30
