G04 Layer_Color=128*
%FSLAX42Y42*%
%MOMM*%
G71*
G01*
G75*
%ADD27C,0.30*%
%ADD29C,0.20*%
%ADD30C,0.70*%
%ADD73C,0.05*%
D27*
X8665Y-2200D02*
Y-2400D01*
X8765D01*
X8798Y-2367D01*
Y-2233D01*
X8765Y-2200D01*
X8665D01*
X8865Y-2267D02*
Y-2400D01*
Y-2333D01*
X8898Y-2300D01*
X8932Y-2267D01*
X8965D01*
X9065Y-2400D02*
X9132D01*
X9098D01*
Y-2267D01*
X9065D01*
X9231Y-2400D02*
X9298D01*
X9265D01*
Y-2200D01*
X9231D01*
X9398Y-2400D02*
X9465D01*
X9431D01*
Y-2200D01*
X9398D01*
X9898Y-2233D02*
X9865Y-2200D01*
X9798D01*
X9765Y-2233D01*
Y-2367D01*
X9798Y-2400D01*
X9865D01*
X9898Y-2367D01*
Y-2300D01*
X9831D01*
X9965Y-2267D02*
Y-2367D01*
X9998Y-2400D01*
X10098D01*
Y-2267D01*
X10165Y-2400D02*
X10231D01*
X10198D01*
Y-2267D01*
X10165D01*
X10464Y-2200D02*
Y-2400D01*
X10364D01*
X10331Y-2367D01*
Y-2300D01*
X10364Y-2267D01*
X10464D01*
X10631Y-2400D02*
X10564D01*
X10531Y-2367D01*
Y-2300D01*
X10564Y-2267D01*
X10631D01*
X10664Y-2300D01*
Y-2333D01*
X10531D01*
D29*
X7665Y0D02*
Y6000D01*
X0D02*
X7665D01*
X0Y0D02*
Y6000D01*
Y0D02*
X7665D01*
D30*
X8735Y5916D02*
Y5516D01*
X9002D01*
X9202Y5782D02*
X9335D01*
X9401Y5716D01*
Y5516D01*
X9202D01*
X9135Y5582D01*
X9202Y5649D01*
X9401D01*
X9535Y5782D02*
X9801D01*
X9535Y5516D01*
X9801D01*
X9935Y5782D02*
Y5582D01*
X10001Y5516D01*
X10201D01*
Y5449D01*
X10135Y5383D01*
X10068D01*
X10201Y5516D02*
Y5782D01*
X11001Y5849D02*
X10934Y5916D01*
X10801D01*
X10734Y5849D01*
Y5582D01*
X10801Y5516D01*
X10934D01*
X11001Y5582D01*
X11201Y5516D02*
X11334D01*
X11401Y5582D01*
Y5716D01*
X11334Y5782D01*
X11201D01*
X11134Y5716D01*
Y5582D01*
X11201Y5516D01*
X11534D02*
Y5782D01*
X11734D01*
X11801Y5716D01*
Y5516D01*
X12001Y5849D02*
Y5782D01*
X11934D01*
X12067D01*
X12001D01*
Y5582D01*
X12067Y5516D01*
X12267Y5782D02*
Y5516D01*
Y5649D01*
X12334Y5716D01*
X12400Y5782D01*
X12467D01*
X12734Y5516D02*
X12867D01*
X12934Y5582D01*
Y5716D01*
X12867Y5782D01*
X12734D01*
X12667Y5716D01*
Y5582D01*
X12734Y5516D01*
X13067D02*
X13200D01*
X13134D01*
Y5916D01*
X13067D01*
X13800D02*
Y5516D01*
X14000D01*
X14067Y5582D01*
Y5649D01*
X14000Y5716D01*
X13800D01*
X14000D01*
X14067Y5782D01*
Y5849D01*
X14000Y5916D01*
X13800D01*
X14267Y5516D02*
X14400D01*
X14466Y5582D01*
Y5716D01*
X14400Y5782D01*
X14267D01*
X14200Y5716D01*
Y5582D01*
X14267Y5516D01*
X14666Y5782D02*
X14800D01*
X14866Y5716D01*
Y5516D01*
X14666D01*
X14600Y5582D01*
X14666Y5649D01*
X14866D01*
X15000Y5782D02*
Y5516D01*
Y5649D01*
X15066Y5716D01*
X15133Y5782D01*
X15200D01*
X15666Y5916D02*
Y5516D01*
X15466D01*
X15400Y5582D01*
Y5716D01*
X15466Y5782D01*
X15666D01*
X8868Y4735D02*
X8735Y4868D01*
Y5001D01*
X8868Y5135D01*
X9068Y5001D02*
X9202Y4735D01*
X9335Y5001D01*
X9668Y4735D02*
X9535D01*
X9468Y4801D01*
Y4935D01*
X9535Y5001D01*
X9668D01*
X9735Y4935D01*
Y4868D01*
X9468D01*
X9868Y5001D02*
Y4735D01*
Y4868D01*
X9935Y4935D01*
X10001Y5001D01*
X10068D01*
X10268Y4735D02*
X10468D01*
X10534Y4801D01*
X10468Y4868D01*
X10334D01*
X10268Y4935D01*
X10334Y5001D01*
X10534D01*
X10668Y4735D02*
X10801D01*
X10734D01*
Y5001D01*
X10668D01*
X11068Y4735D02*
X11201D01*
X11268Y4801D01*
Y4935D01*
X11201Y5001D01*
X11068D01*
X11001Y4935D01*
Y4801D01*
X11068Y4735D01*
X11401D02*
Y5001D01*
X11601D01*
X11667Y4935D01*
Y4735D01*
X12201D02*
X12334D01*
X12267D01*
Y5135D01*
X12201Y5068D01*
X12534Y4735D02*
Y4801D01*
X12600D01*
Y4735D01*
X12534D01*
X12867Y5068D02*
X12934Y5135D01*
X13067D01*
X13134Y5068D01*
Y4801D01*
X13067Y4735D01*
X12934D01*
X12867Y4801D01*
Y5068D01*
X13667Y5001D02*
Y4735D01*
Y4868D01*
X13733Y4935D01*
X13800Y5001D01*
X13867D01*
X14267Y4735D02*
X14133D01*
X14067Y4801D01*
Y4935D01*
X14133Y5001D01*
X14267D01*
X14333Y4935D01*
Y4868D01*
X14067D01*
X14466Y5001D02*
X14600Y4735D01*
X14733Y5001D01*
X14866Y4735D02*
X15000D01*
X14933D01*
Y5001D01*
X14866D01*
X15200Y4735D02*
X15400D01*
X15466Y4801D01*
X15400Y4868D01*
X15266D01*
X15200Y4935D01*
X15266Y5001D01*
X15466D01*
X15599Y4735D02*
X15733D01*
X15666D01*
Y5001D01*
X15599D01*
X15999Y4735D02*
X16133D01*
X16199Y4801D01*
Y4935D01*
X16133Y5001D01*
X15999D01*
X15933Y4935D01*
Y4801D01*
X15999Y4735D01*
X16333D02*
Y5001D01*
X16532D01*
X16599Y4935D01*
Y4735D01*
X17399Y5068D02*
X17332Y5135D01*
X17199D01*
X17132Y5068D01*
Y4801D01*
X17199Y4735D01*
X17332D01*
X17399Y4801D01*
X17532Y4735D02*
X17665Y4868D01*
Y5001D01*
X17532Y5135D01*
X9002Y4420D02*
X8935Y4487D01*
X8802D01*
X8735Y4420D01*
Y4153D01*
X8802Y4087D01*
X8935D01*
X9002Y4153D01*
Y4287D01*
X8868D01*
X9401Y4420D02*
X9335Y4487D01*
X9202D01*
X9135Y4420D01*
Y4353D01*
X9202Y4287D01*
X9335D01*
X9401Y4220D01*
Y4153D01*
X9335Y4087D01*
X9202D01*
X9135Y4153D01*
X9735Y4087D02*
X9601D01*
X9535Y4153D01*
Y4287D01*
X9601Y4353D01*
X9735D01*
X9801Y4287D01*
Y4220D01*
X9535D01*
X9935Y3954D02*
Y4353D01*
X10135D01*
X10201Y4287D01*
Y4153D01*
X10135Y4087D01*
X9935D01*
X10334Y4487D02*
Y4087D01*
Y4287D01*
X10401Y4353D01*
X10534D01*
X10601Y4287D01*
Y4087D01*
X11001Y4487D02*
X10734D01*
Y4087D01*
X11001D01*
X10734Y4287D02*
X10868D01*
X11134Y4087D02*
X11268D01*
X11201D01*
Y4487D01*
X11134D01*
X11667Y4087D02*
X11534D01*
X11467Y4153D01*
Y4287D01*
X11534Y4353D01*
X11667D01*
X11734Y4287D01*
Y4220D01*
X11467D01*
X12134Y4353D02*
X11934D01*
X11867Y4287D01*
Y4153D01*
X11934Y4087D01*
X12134D01*
X9002Y3639D02*
X8935Y3706D01*
X8802D01*
X8735Y3639D01*
Y3372D01*
X8802Y3306D01*
X8935D01*
X9002Y3372D01*
Y3506D01*
X8868D01*
X9335Y3306D02*
X9202D01*
X9135Y3372D01*
Y3506D01*
X9202Y3572D01*
X9335D01*
X9401Y3506D01*
Y3439D01*
X9135D01*
X9601Y3306D02*
X9735D01*
X9801Y3372D01*
Y3506D01*
X9735Y3572D01*
X9601D01*
X9535Y3506D01*
Y3372D01*
X9601Y3306D01*
X9935Y3572D02*
Y3306D01*
Y3439D01*
X10001Y3506D01*
X10068Y3572D01*
X10135D01*
X10468Y3172D02*
X10534D01*
X10601Y3239D01*
Y3572D01*
X10401D01*
X10334Y3506D01*
Y3372D01*
X10401Y3306D01*
X10601D01*
X10934D02*
X10801D01*
X10734Y3372D01*
Y3506D01*
X10801Y3572D01*
X10934D01*
X11001Y3506D01*
Y3439D01*
X10734D01*
X11801Y3639D02*
X11734Y3706D01*
X11601D01*
X11534Y3639D01*
Y3572D01*
X11601Y3506D01*
X11734D01*
X11801Y3439D01*
Y3372D01*
X11734Y3306D01*
X11601D01*
X11534Y3372D01*
X12134Y3306D02*
X12001D01*
X11934Y3372D01*
Y3506D01*
X12001Y3572D01*
X12134D01*
X12201Y3506D01*
Y3439D01*
X11934D01*
X12334Y3172D02*
Y3572D01*
X12534D01*
X12600Y3506D01*
Y3372D01*
X12534Y3306D01*
X12334D01*
X12734Y3706D02*
Y3306D01*
Y3506D01*
X12800Y3572D01*
X12934D01*
X13000Y3506D01*
Y3306D01*
X13200Y3639D02*
Y3572D01*
X13134D01*
X13267D01*
X13200D01*
Y3372D01*
X13267Y3306D01*
X13533D02*
X13667D01*
X13733Y3372D01*
Y3506D01*
X13667Y3572D01*
X13533D01*
X13467Y3506D01*
Y3372D01*
X13533Y3306D01*
X13867D02*
Y3572D01*
X14067D01*
X14133Y3506D01*
Y3306D01*
X9002Y2525D02*
X8735D01*
X9002Y2791D01*
Y2858D01*
X8935Y2924D01*
X8802D01*
X8735Y2858D01*
X9135D02*
X9202Y2924D01*
X9335D01*
X9401Y2858D01*
Y2791D01*
X9335Y2724D01*
X9401Y2658D01*
Y2591D01*
X9335Y2525D01*
X9202D01*
X9135Y2591D01*
Y2658D01*
X9202Y2724D01*
X9135Y2791D01*
Y2858D01*
X9202Y2724D02*
X9335D01*
X9535Y2525D02*
X9801Y2791D01*
X9935Y2858D02*
X10001Y2924D01*
X10135D01*
X10201Y2858D01*
Y2591D01*
X10135Y2525D01*
X10001D01*
X9935Y2591D01*
Y2858D01*
X10601Y2924D02*
X10334D01*
Y2724D01*
X10468Y2791D01*
X10534D01*
X10601Y2724D01*
Y2591D01*
X10534Y2525D01*
X10401D01*
X10334Y2591D01*
X10734Y2525D02*
X11001Y2791D01*
X11401Y2525D02*
X11134D01*
X11401Y2791D01*
Y2858D01*
X11334Y2924D01*
X11201D01*
X11134Y2858D01*
X11534D02*
X11601Y2924D01*
X11734D01*
X11801Y2858D01*
Y2591D01*
X11734Y2525D01*
X11601D01*
X11534Y2591D01*
Y2858D01*
X12201Y2525D02*
X11934D01*
X12201Y2791D01*
Y2858D01*
X12134Y2924D01*
X12001D01*
X11934Y2858D01*
X12334Y2525D02*
X12467D01*
X12400D01*
Y2924D01*
X12334Y2858D01*
D73*
X165Y300D02*
X435D01*
X300Y165D02*
Y435D01*
X165Y5700D02*
X435D01*
X300Y5565D02*
Y5835D01*
X7230Y5700D02*
X7500D01*
X7365Y5565D02*
Y5835D01*
X7230Y300D02*
X7500D01*
X7365Y165D02*
Y435D01*
X1373Y5578D02*
X1483D01*
X1428Y5523D02*
Y5633D01*
X865Y5578D02*
X975D01*
X920Y5523D02*
Y5633D01*
X1119Y5578D02*
X1229D01*
X1174Y5523D02*
Y5633D01*
X1627Y5578D02*
X1737D01*
X1682Y5523D02*
Y5633D01*
X1881Y5578D02*
X1991D01*
X1936Y5523D02*
Y5633D01*
X2135Y5578D02*
X2245D01*
X2190Y5523D02*
Y5633D01*
X3298Y5583D02*
X3408D01*
X3353Y5528D02*
Y5638D01*
X2790Y5583D02*
X2900D01*
X2845Y5528D02*
Y5638D01*
X3044Y5583D02*
X3154D01*
X3099Y5528D02*
Y5638D01*
X3552Y5583D02*
X3662D01*
X3607Y5528D02*
Y5638D01*
X3806Y5583D02*
X3916D01*
X3861Y5528D02*
Y5638D01*
X4060Y5583D02*
X4170D01*
X4115Y5528D02*
Y5638D01*
X350Y3045D02*
X500D01*
X425Y2970D02*
Y3120D01*
X350Y3545D02*
X500D01*
X425Y3470D02*
Y3620D01*
X350Y1430D02*
X500D01*
X425Y1355D02*
Y1505D01*
X350Y1930D02*
X500D01*
X425Y1855D02*
Y2005D01*
X350Y930D02*
X500D01*
X425Y855D02*
Y1005D01*
X2324Y275D02*
X2434D01*
X2379Y220D02*
Y330D01*
X2070Y275D02*
X2180D01*
X2125Y220D02*
Y330D01*
X1816Y275D02*
X1926D01*
X1871Y220D02*
Y330D01*
X3670Y425D02*
X3820D01*
X3745Y350D02*
Y500D01*
X4170Y425D02*
X4320D01*
X4245Y350D02*
Y500D01*
X5550Y425D02*
X5700D01*
X5625Y350D02*
Y500D01*
X5050Y425D02*
X5200D01*
X5125Y350D02*
Y500D01*
X6050Y425D02*
X6200D01*
X6125Y350D02*
Y500D01*
X6915Y1375D02*
X6995D01*
X6955Y1335D02*
Y1415D01*
X6915Y795D02*
X6995D01*
X6955Y755D02*
Y835D01*
X7395Y1075D02*
X7475D01*
X7435Y1035D02*
Y1115D01*
X7165Y5350D02*
X7225D01*
X7195Y5320D02*
Y5380D01*
X4290Y4625D02*
X4350D01*
X4320Y4595D02*
Y4655D01*
X6840Y5445D02*
X6900D01*
X6870Y5415D02*
Y5475D01*
X6560Y3885D02*
X6620D01*
X6590Y3855D02*
Y3915D01*
X7255Y5115D02*
X7315D01*
X7285Y5085D02*
Y5145D01*
X6605Y4140D02*
X6665D01*
X6635Y4110D02*
Y4170D01*
X6676Y5501D02*
X6736D01*
X6706Y5471D02*
Y5531D01*
X6925Y3885D02*
X6985D01*
X6955Y3855D02*
Y3915D01*
X6740Y3885D02*
X6800D01*
X6770Y3855D02*
Y3915D01*
X7030Y5130D02*
X7090D01*
X7060Y5100D02*
Y5160D01*
X7170Y3635D02*
X7230D01*
X7200Y3605D02*
Y3665D01*
X7170Y4875D02*
X7230D01*
X7200Y4845D02*
Y4905D01*
X2440Y5570D02*
X2500D01*
X2470Y5540D02*
Y5600D01*
X2440Y4725D02*
X2500D01*
X2470Y4695D02*
Y4755D01*
X4305Y4830D02*
X4365D01*
X4335Y4800D02*
Y4860D01*
X4115Y4830D02*
X4175D01*
X4145Y4800D02*
Y4860D01*
X6676Y5374D02*
X6736D01*
X6706Y5344D02*
Y5404D01*
X6015Y5755D02*
X6075D01*
X6045Y5725D02*
Y5785D01*
X6180Y2885D02*
X6240D01*
X6210Y2855D02*
Y2915D01*
X7345Y3000D02*
X7405D01*
X7375Y2970D02*
Y3030D01*
X6455Y1655D02*
X6515D01*
X6485Y1625D02*
Y1685D01*
M02*
