G04 Layer_Color=16711935*
%FSLAX42Y42*%
%MOMM*%
G71*
G01*
G75*
%ADD27C,0.30*%
%ADD29C,0.20*%
%ADD30C,0.70*%
D27*
X13640Y1700D02*
Y1500D01*
X13740D01*
X13773Y1533D01*
Y1567D01*
X13740Y1600D01*
X13640D01*
X13740D01*
X13773Y1633D01*
Y1667D01*
X13740Y1700D01*
X13640D01*
X13873Y1500D02*
X13940D01*
X13973Y1533D01*
Y1600D01*
X13940Y1633D01*
X13873D01*
X13840Y1600D01*
Y1533D01*
X13873Y1500D01*
X14073Y1633D02*
X14140D01*
X14173Y1600D01*
Y1500D01*
X14073D01*
X14040Y1533D01*
X14073Y1567D01*
X14173D01*
X14240Y1633D02*
Y1500D01*
Y1567D01*
X14273Y1600D01*
X14306Y1633D01*
X14340D01*
X14573Y1700D02*
Y1500D01*
X14473D01*
X14440Y1533D01*
Y1600D01*
X14473Y1633D01*
X14573D01*
X14940Y1700D02*
X14873D01*
X14840Y1667D01*
Y1533D01*
X14873Y1500D01*
X14940D01*
X14973Y1533D01*
Y1667D01*
X14940Y1700D01*
X15040Y1633D02*
Y1533D01*
X15073Y1500D01*
X15173D01*
Y1633D01*
X15273Y1667D02*
Y1633D01*
X15239D01*
X15306D01*
X15273D01*
Y1533D01*
X15306Y1500D01*
X15406D02*
X15473D01*
X15439D01*
Y1700D01*
X15406D01*
X15573Y1500D02*
X15639D01*
X15606D01*
Y1633D01*
X15573D01*
X15739Y1500D02*
Y1633D01*
X15839D01*
X15873Y1600D01*
Y1500D01*
X16039D02*
X15973D01*
X15939Y1533D01*
Y1600D01*
X15973Y1633D01*
X16039D01*
X16073Y1600D01*
Y1567D01*
X15939D01*
D29*
X7665Y0D02*
Y6000D01*
X0D02*
X7665D01*
X0Y0D02*
Y6000D01*
Y0D02*
X7665D01*
Y6000D01*
X0D02*
X7665D01*
X0Y0D02*
Y6000D01*
Y0D02*
X7665D01*
D30*
X8735Y5916D02*
Y5516D01*
X9002D01*
X9202Y5782D02*
X9335D01*
X9401Y5716D01*
Y5516D01*
X9202D01*
X9135Y5582D01*
X9202Y5649D01*
X9401D01*
X9535Y5782D02*
X9801D01*
X9535Y5516D01*
X9801D01*
X9935Y5782D02*
Y5582D01*
X10001Y5516D01*
X10201D01*
Y5449D01*
X10135Y5383D01*
X10068D01*
X10201Y5516D02*
Y5782D01*
X11001Y5849D02*
X10934Y5916D01*
X10801D01*
X10734Y5849D01*
Y5582D01*
X10801Y5516D01*
X10934D01*
X11001Y5582D01*
X11201Y5516D02*
X11334D01*
X11401Y5582D01*
Y5716D01*
X11334Y5782D01*
X11201D01*
X11134Y5716D01*
Y5582D01*
X11201Y5516D01*
X11534D02*
Y5782D01*
X11734D01*
X11801Y5716D01*
Y5516D01*
X12001Y5849D02*
Y5782D01*
X11934D01*
X12067D01*
X12001D01*
Y5582D01*
X12067Y5516D01*
X12267Y5782D02*
Y5516D01*
Y5649D01*
X12334Y5716D01*
X12400Y5782D01*
X12467D01*
X12734Y5516D02*
X12867D01*
X12934Y5582D01*
Y5716D01*
X12867Y5782D01*
X12734D01*
X12667Y5716D01*
Y5582D01*
X12734Y5516D01*
X13067D02*
X13200D01*
X13134D01*
Y5916D01*
X13067D01*
X13800D02*
Y5516D01*
X14000D01*
X14067Y5582D01*
Y5649D01*
X14000Y5716D01*
X13800D01*
X14000D01*
X14067Y5782D01*
Y5849D01*
X14000Y5916D01*
X13800D01*
X14267Y5516D02*
X14400D01*
X14466Y5582D01*
Y5716D01*
X14400Y5782D01*
X14267D01*
X14200Y5716D01*
Y5582D01*
X14267Y5516D01*
X14666Y5782D02*
X14800D01*
X14866Y5716D01*
Y5516D01*
X14666D01*
X14600Y5582D01*
X14666Y5649D01*
X14866D01*
X15000Y5782D02*
Y5516D01*
Y5649D01*
X15066Y5716D01*
X15133Y5782D01*
X15200D01*
X15666Y5916D02*
Y5516D01*
X15466D01*
X15400Y5582D01*
Y5716D01*
X15466Y5782D01*
X15666D01*
X8868Y4735D02*
X8735Y4868D01*
Y5001D01*
X8868Y5135D01*
X9068Y5001D02*
X9202Y4735D01*
X9335Y5001D01*
X9668Y4735D02*
X9535D01*
X9468Y4801D01*
Y4935D01*
X9535Y5001D01*
X9668D01*
X9735Y4935D01*
Y4868D01*
X9468D01*
X9868Y5001D02*
Y4735D01*
Y4868D01*
X9935Y4935D01*
X10001Y5001D01*
X10068D01*
X10268Y4735D02*
X10468D01*
X10534Y4801D01*
X10468Y4868D01*
X10334D01*
X10268Y4935D01*
X10334Y5001D01*
X10534D01*
X10668Y4735D02*
X10801D01*
X10734D01*
Y5001D01*
X10668D01*
X11068Y4735D02*
X11201D01*
X11268Y4801D01*
Y4935D01*
X11201Y5001D01*
X11068D01*
X11001Y4935D01*
Y4801D01*
X11068Y4735D01*
X11401D02*
Y5001D01*
X11601D01*
X11667Y4935D01*
Y4735D01*
X12201D02*
X12334D01*
X12267D01*
Y5135D01*
X12201Y5068D01*
X12534Y4735D02*
Y4801D01*
X12600D01*
Y4735D01*
X12534D01*
X12867Y5068D02*
X12934Y5135D01*
X13067D01*
X13134Y5068D01*
Y4801D01*
X13067Y4735D01*
X12934D01*
X12867Y4801D01*
Y5068D01*
X13667Y5001D02*
Y4735D01*
Y4868D01*
X13733Y4935D01*
X13800Y5001D01*
X13867D01*
X14267Y4735D02*
X14133D01*
X14067Y4801D01*
Y4935D01*
X14133Y5001D01*
X14267D01*
X14333Y4935D01*
Y4868D01*
X14067D01*
X14466Y5001D02*
X14600Y4735D01*
X14733Y5001D01*
X14866Y4735D02*
X15000D01*
X14933D01*
Y5001D01*
X14866D01*
X15200Y4735D02*
X15400D01*
X15466Y4801D01*
X15400Y4868D01*
X15266D01*
X15200Y4935D01*
X15266Y5001D01*
X15466D01*
X15599Y4735D02*
X15733D01*
X15666D01*
Y5001D01*
X15599D01*
X15999Y4735D02*
X16133D01*
X16199Y4801D01*
Y4935D01*
X16133Y5001D01*
X15999D01*
X15933Y4935D01*
Y4801D01*
X15999Y4735D01*
X16333D02*
Y5001D01*
X16532D01*
X16599Y4935D01*
Y4735D01*
X17399Y5068D02*
X17332Y5135D01*
X17199D01*
X17132Y5068D01*
Y4801D01*
X17199Y4735D01*
X17332D01*
X17399Y4801D01*
X17532Y4735D02*
X17665Y4868D01*
Y5001D01*
X17532Y5135D01*
X9002Y4420D02*
X8935Y4487D01*
X8802D01*
X8735Y4420D01*
Y4153D01*
X8802Y4087D01*
X8935D01*
X9002Y4153D01*
Y4287D01*
X8868D01*
X9401Y4420D02*
X9335Y4487D01*
X9202D01*
X9135Y4420D01*
Y4353D01*
X9202Y4287D01*
X9335D01*
X9401Y4220D01*
Y4153D01*
X9335Y4087D01*
X9202D01*
X9135Y4153D01*
X9735Y4087D02*
X9601D01*
X9535Y4153D01*
Y4287D01*
X9601Y4353D01*
X9735D01*
X9801Y4287D01*
Y4220D01*
X9535D01*
X9935Y3954D02*
Y4353D01*
X10135D01*
X10201Y4287D01*
Y4153D01*
X10135Y4087D01*
X9935D01*
X10334Y4487D02*
Y4087D01*
Y4287D01*
X10401Y4353D01*
X10534D01*
X10601Y4287D01*
Y4087D01*
X11001Y4487D02*
X10734D01*
Y4087D01*
X11001D01*
X10734Y4287D02*
X10868D01*
X11134Y4087D02*
X11268D01*
X11201D01*
Y4487D01*
X11134D01*
X11667Y4087D02*
X11534D01*
X11467Y4153D01*
Y4287D01*
X11534Y4353D01*
X11667D01*
X11734Y4287D01*
Y4220D01*
X11467D01*
X12134Y4353D02*
X11934D01*
X11867Y4287D01*
Y4153D01*
X11934Y4087D01*
X12134D01*
X9002Y3639D02*
X8935Y3706D01*
X8802D01*
X8735Y3639D01*
Y3372D01*
X8802Y3306D01*
X8935D01*
X9002Y3372D01*
Y3506D01*
X8868D01*
X9335Y3306D02*
X9202D01*
X9135Y3372D01*
Y3506D01*
X9202Y3572D01*
X9335D01*
X9401Y3506D01*
Y3439D01*
X9135D01*
X9601Y3306D02*
X9735D01*
X9801Y3372D01*
Y3506D01*
X9735Y3572D01*
X9601D01*
X9535Y3506D01*
Y3372D01*
X9601Y3306D01*
X9935Y3572D02*
Y3306D01*
Y3439D01*
X10001Y3506D01*
X10068Y3572D01*
X10135D01*
X10468Y3172D02*
X10534D01*
X10601Y3239D01*
Y3572D01*
X10401D01*
X10334Y3506D01*
Y3372D01*
X10401Y3306D01*
X10601D01*
X10934D02*
X10801D01*
X10734Y3372D01*
Y3506D01*
X10801Y3572D01*
X10934D01*
X11001Y3506D01*
Y3439D01*
X10734D01*
X11801Y3639D02*
X11734Y3706D01*
X11601D01*
X11534Y3639D01*
Y3572D01*
X11601Y3506D01*
X11734D01*
X11801Y3439D01*
Y3372D01*
X11734Y3306D01*
X11601D01*
X11534Y3372D01*
X12134Y3306D02*
X12001D01*
X11934Y3372D01*
Y3506D01*
X12001Y3572D01*
X12134D01*
X12201Y3506D01*
Y3439D01*
X11934D01*
X12334Y3172D02*
Y3572D01*
X12534D01*
X12600Y3506D01*
Y3372D01*
X12534Y3306D01*
X12334D01*
X12734Y3706D02*
Y3306D01*
Y3506D01*
X12800Y3572D01*
X12934D01*
X13000Y3506D01*
Y3306D01*
X13200Y3639D02*
Y3572D01*
X13134D01*
X13267D01*
X13200D01*
Y3372D01*
X13267Y3306D01*
X13533D02*
X13667D01*
X13733Y3372D01*
Y3506D01*
X13667Y3572D01*
X13533D01*
X13467Y3506D01*
Y3372D01*
X13533Y3306D01*
X13867D02*
Y3572D01*
X14067D01*
X14133Y3506D01*
Y3306D01*
X9002Y2525D02*
X8735D01*
X9002Y2791D01*
Y2858D01*
X8935Y2924D01*
X8802D01*
X8735Y2858D01*
X9135D02*
X9202Y2924D01*
X9335D01*
X9401Y2858D01*
Y2791D01*
X9335Y2724D01*
X9401Y2658D01*
Y2591D01*
X9335Y2525D01*
X9202D01*
X9135Y2591D01*
Y2658D01*
X9202Y2724D01*
X9135Y2791D01*
Y2858D01*
X9202Y2724D02*
X9335D01*
X9535Y2525D02*
X9801Y2791D01*
X9935Y2858D02*
X10001Y2924D01*
X10135D01*
X10201Y2858D01*
Y2591D01*
X10135Y2525D01*
X10001D01*
X9935Y2591D01*
Y2858D01*
X10601Y2924D02*
X10334D01*
Y2724D01*
X10468Y2791D01*
X10534D01*
X10601Y2724D01*
Y2591D01*
X10534Y2525D01*
X10401D01*
X10334Y2591D01*
X10734Y2525D02*
X11001Y2791D01*
X11401Y2525D02*
X11134D01*
X11401Y2791D01*
Y2858D01*
X11334Y2924D01*
X11201D01*
X11134Y2858D01*
X11534D02*
X11601Y2924D01*
X11734D01*
X11801Y2858D01*
Y2591D01*
X11734Y2525D01*
X11601D01*
X11534Y2591D01*
Y2858D01*
X12201Y2525D02*
X11934D01*
X12201Y2791D01*
Y2858D01*
X12134Y2924D01*
X12001D01*
X11934Y2858D01*
X12334Y2525D02*
X12467D01*
X12400D01*
Y2924D01*
X12334Y2858D01*
M02*
