G04 Layer_Physical_Order=1*
G04 Layer_Color=255*
%FSLAX42Y42*%
%MOMM*%
G71*
G01*
G75*
%ADD10C,1.50*%
%ADD11R,0.70X0.90*%
%ADD12O,2.20X0.70*%
%ADD13R,2.20X0.70*%
%ADD14R,2.75X1.00*%
%ADD15R,0.90X0.70*%
%ADD16R,1.75X2.65*%
%ADD17R,0.80X0.90*%
%ADD18R,1.10X1.40*%
%ADD19R,0.90X0.80*%
%ADD20R,1.40X1.10*%
%ADD21R,1.60X3.50*%
%ADD22R,3.50X1.60*%
%ADD23R,0.90X0.90*%
%ADD24R,1.50X0.90*%
%ADD25R,0.90X1.50*%
%ADD26R,0.90X0.90*%
%ADD27C,0.30*%
%ADD28C,0.50*%
%ADD29C,0.20*%
%ADD30C,0.70*%
%ADD31C,3.60*%
%ADD32C,1.65*%
%ADD33R,1.65X1.65*%
%ADD34C,2.25*%
G04:AMPARAMS|DCode=35|XSize=2.25mm|YSize=2.25mm|CornerRadius=0.56mm|HoleSize=0mm|Usage=FLASHONLY|Rotation=270.000|XOffset=0mm|YOffset=0mm|HoleType=Round|Shape=RoundedRectangle|*
%AMROUNDEDRECTD35*
21,1,2.25,1.13,0,0,270.0*
21,1,1.13,2.25,0,0,270.0*
1,1,1.13,-0.56,-0.56*
1,1,1.13,-0.56,0.56*
1,1,1.13,0.56,0.56*
1,1,1.13,0.56,-0.56*
%
%ADD35ROUNDEDRECTD35*%
%ADD36C,1.60*%
%ADD37R,1.60X1.60*%
G04:AMPARAMS|DCode=38|XSize=2.25mm|YSize=2.25mm|CornerRadius=0.56mm|HoleSize=0mm|Usage=FLASHONLY|Rotation=0.000|XOffset=0mm|YOffset=0mm|HoleType=Round|Shape=RoundedRectangle|*
%AMROUNDEDRECTD38*
21,1,2.25,1.13,0,0,0.0*
21,1,1.13,2.25,0,0,0.0*
1,1,1.13,0.56,-0.56*
1,1,1.13,-0.56,-0.56*
1,1,1.13,-0.56,0.56*
1,1,1.13,0.56,0.56*
%
%ADD38ROUNDEDRECTD38*%
G04:AMPARAMS|DCode=39|XSize=4mm|YSize=1.8mm|CornerRadius=0.45mm|HoleSize=0mm|Usage=FLASHONLY|Rotation=180.000|XOffset=0mm|YOffset=0mm|HoleType=Round|Shape=RoundedRectangle|*
%AMROUNDEDRECTD39*
21,1,4.00,0.90,0,0,180.0*
21,1,3.10,1.80,0,0,180.0*
1,1,0.90,-1.55,0.45*
1,1,0.90,1.55,0.45*
1,1,0.90,1.55,-0.45*
1,1,0.90,-1.55,-0.45*
%
%ADD39ROUNDEDRECTD39*%
G04:AMPARAMS|DCode=40|XSize=4mm|YSize=1.8mm|CornerRadius=0.45mm|HoleSize=0mm|Usage=FLASHONLY|Rotation=270.000|XOffset=0mm|YOffset=0mm|HoleType=Round|Shape=RoundedRectangle|*
%AMROUNDEDRECTD40*
21,1,4.00,0.90,0,0,270.0*
21,1,3.10,1.80,0,0,270.0*
1,1,0.90,-0.45,-1.55*
1,1,0.90,-0.45,1.55*
1,1,0.90,0.45,1.55*
1,1,0.90,0.45,-1.55*
%
%ADD40ROUNDEDRECTD40*%
%ADD41C,1.00*%
G36*
X7665Y0D02*
X0D01*
Y6000D01*
X7665D01*
Y0D01*
D02*
G37*
%LPC*%
G36*
X4705Y1425D02*
X4603Y1323D01*
X4807D01*
X4705Y1425D01*
D02*
G37*
G36*
X2865Y1690D02*
Y1310D01*
X2977Y1423D01*
X2995Y1405D01*
X3013Y1423D01*
X3125Y1310D01*
Y1690D01*
X3013Y1577D01*
X2995Y1595D01*
X2977Y1577D01*
X2865Y1690D01*
D02*
G37*
G36*
X4807Y1688D02*
X4603D01*
X4705Y1585D01*
X4807Y1688D01*
D02*
G37*
G36*
X4567Y1652D02*
Y1358D01*
X4687Y1478D01*
X4705Y1460D01*
X4723Y1478D01*
X4842Y1358D01*
Y1652D01*
X4723Y1532D01*
X4705Y1550D01*
X4687Y1532D01*
X4567Y1652D01*
D02*
G37*
G36*
X2995Y1370D02*
X2900Y1275D01*
X3090D01*
X2995Y1370D01*
D02*
G37*
G36*
X5181Y588D02*
X5069D01*
X5041Y585D01*
X5015Y574D01*
X5013Y572D01*
X5125Y460D01*
X5237Y572D01*
X5235Y574D01*
X5209Y585D01*
X5181Y588D01*
D02*
G37*
G36*
X3801Y588D02*
X3689D01*
X3661Y585D01*
X3635Y574D01*
X3633Y572D01*
X3745Y460D01*
X3857Y572D01*
X3855Y574D01*
X3829Y585D01*
X3801Y588D01*
D02*
G37*
G36*
X7480Y1301D02*
X7390D01*
X7372Y1298D01*
X7355Y1291D01*
X7340Y1280D01*
X7329Y1265D01*
X7322Y1248D01*
X7319Y1230D01*
Y920D01*
X7322Y902D01*
X7329Y885D01*
X7340Y870D01*
X7355Y859D01*
X7372Y852D01*
X7390Y849D01*
X7480D01*
X7498Y852D01*
X7515Y859D01*
X7530Y870D01*
X7541Y885D01*
X7548Y902D01*
X7551Y920D01*
Y1230D01*
X7548Y1248D01*
X7541Y1265D01*
X7530Y1280D01*
X7515Y1291D01*
X7498Y1298D01*
X7480Y1301D01*
D02*
G37*
G36*
X7193Y888D02*
X7100Y795D01*
X7193Y702D01*
X7203Y725D01*
X7206Y750D01*
Y840D01*
X7203Y865D01*
X7193Y888D01*
D02*
G37*
G36*
X7585Y2670D02*
X7205D01*
X7318Y2558D01*
X7300Y2540D01*
X7318Y2522D01*
X7205Y2410D01*
X7585D01*
X7472Y2522D01*
X7490Y2540D01*
X7472Y2558D01*
X7585Y2670D01*
D02*
G37*
G36*
X481Y2093D02*
X369D01*
X341Y2090D01*
X315Y2079D01*
X313Y2077D01*
X425Y1965D01*
X537Y2077D01*
X535Y2079D01*
X509Y2090D01*
X481Y2093D01*
D02*
G37*
G36*
X7170Y2635D02*
Y2445D01*
X7265Y2540D01*
X7170Y2635D01*
D02*
G37*
G36*
X7620Y2635D02*
X7525Y2540D01*
X7620Y2445D01*
Y2635D01*
D02*
G37*
G36*
X1500Y2095D02*
X1415Y2010D01*
X1500Y1925D01*
Y2095D01*
D02*
G37*
G36*
X425Y1895D02*
X313Y1783D01*
X315Y1781D01*
X341Y1770D01*
X369Y1767D01*
X481D01*
X509Y1770D01*
X535Y1781D01*
X537Y1783D01*
X425Y1895D01*
D02*
G37*
G36*
X3090Y1725D02*
X2900D01*
X2995Y1630D01*
X3090Y1725D01*
D02*
G37*
G36*
X278Y2042D02*
X276Y2040D01*
X265Y2014D01*
X262Y1986D01*
Y1874D01*
X265Y1846D01*
X276Y1820D01*
X278Y1818D01*
X390Y1930D01*
X278Y2042D01*
D02*
G37*
G36*
X572Y2042D02*
X460Y1930D01*
X572Y1818D01*
X574Y1820D01*
X585Y1846D01*
X588Y1874D01*
Y1986D01*
X585Y2014D01*
X574Y2040D01*
X572Y2042D01*
D02*
G37*
G36*
X300Y531D02*
X255Y527D01*
X212Y514D01*
X172Y492D01*
X156Y479D01*
X300Y335D01*
X444Y479D01*
X428Y492D01*
X388Y514D01*
X345Y527D01*
X300Y531D01*
D02*
G37*
G36*
X121Y444D02*
X108Y428D01*
X86Y388D01*
X73Y345D01*
X69Y300D01*
X73Y255D01*
X86Y212D01*
X108Y172D01*
X121Y156D01*
X265Y300D01*
X121Y444D01*
D02*
G37*
G36*
X7186Y444D02*
X7173Y428D01*
X7151Y388D01*
X7138Y345D01*
X7134Y300D01*
X7138Y255D01*
X7151Y212D01*
X7173Y172D01*
X7186Y156D01*
X7330Y300D01*
X7186Y444D01*
D02*
G37*
G36*
X3745Y390D02*
X3633Y278D01*
X3635Y276D01*
X3661Y265D01*
X3689Y262D01*
X3801D01*
X3829Y265D01*
X3855Y276D01*
X3857Y278D01*
X3745Y390D01*
D02*
G37*
G36*
X3030Y360D02*
Y190D01*
X3115Y275D01*
X3030Y360D01*
D02*
G37*
G36*
X479Y444D02*
X335Y300D01*
X479Y156D01*
X492Y172D01*
X514Y212D01*
X527Y255D01*
X531Y300D01*
X527Y345D01*
X514Y388D01*
X492Y428D01*
X479Y444D01*
D02*
G37*
G36*
X7365Y265D02*
X7221Y121D01*
X7237Y108D01*
X7277Y86D01*
X7320Y73D01*
X7365Y69D01*
X7410Y73D01*
X7453Y86D01*
X7493Y108D01*
X7509Y121D01*
X7365Y265D01*
D02*
G37*
G36*
X300Y265D02*
X156Y121D01*
X172Y108D01*
X212Y86D01*
X255Y73D01*
X300Y69D01*
X345Y73D01*
X388Y86D01*
X428Y108D01*
X444Y121D01*
X300Y265D01*
D02*
G37*
G36*
X7544Y444D02*
X7400Y300D01*
X7544Y156D01*
X7557Y172D01*
X7579Y212D01*
X7592Y255D01*
X7596Y300D01*
X7592Y345D01*
X7579Y388D01*
X7557Y428D01*
X7544Y444D01*
D02*
G37*
G36*
X700Y301D02*
X674Y297D01*
X650Y287D01*
X629Y271D01*
X613Y250D01*
X603Y226D01*
X599Y200D01*
X603Y174D01*
X613Y150D01*
X629Y129D01*
X650Y113D01*
X674Y103D01*
X700Y99D01*
X726Y103D01*
X750Y113D01*
X771Y129D01*
X787Y150D01*
X797Y174D01*
X801Y200D01*
X797Y226D01*
X787Y250D01*
X771Y271D01*
X750Y287D01*
X726Y297D01*
X700Y301D01*
D02*
G37*
G36*
X5272Y537D02*
X5160Y425D01*
X5272Y313D01*
X5274Y315D01*
X5285Y341D01*
X5288Y369D01*
Y481D01*
X5285Y509D01*
X5274Y535D01*
X5272Y537D01*
D02*
G37*
G36*
X4978Y537D02*
X4976Y535D01*
X4965Y509D01*
X4962Y481D01*
Y369D01*
X4965Y341D01*
X4976Y315D01*
X4978Y313D01*
X5090Y425D01*
X4978Y537D01*
D02*
G37*
G36*
X7365Y531D02*
X7320Y527D01*
X7277Y514D01*
X7237Y492D01*
X7221Y479D01*
X7365Y335D01*
X7509Y479D01*
X7493Y492D01*
X7453Y514D01*
X7410Y527D01*
X7365Y531D01*
D02*
G37*
G36*
X1570Y410D02*
X1400D01*
X1485Y325D01*
X1570Y410D01*
D02*
G37*
G36*
X3892Y537D02*
X3780Y425D01*
X3892Y313D01*
X3894Y315D01*
X3905Y341D01*
X3908Y369D01*
Y481D01*
X3905Y509D01*
X3894Y535D01*
X3892Y537D01*
D02*
G37*
G36*
X6485Y1731D02*
X6465Y1728D01*
X6447Y1721D01*
X6432Y1708D01*
X6419Y1693D01*
X6412Y1675D01*
X6409Y1655D01*
X6412Y1635D01*
X6419Y1617D01*
X6432Y1602D01*
X6444Y1592D01*
Y1022D01*
X6096Y674D01*
X6087Y661D01*
X6084Y645D01*
X6084Y645D01*
Y557D01*
X6056Y545D01*
X6027Y523D01*
X6005Y494D01*
X5991Y461D01*
X5986Y425D01*
X5991Y389D01*
X6005Y356D01*
X6027Y327D01*
X6056Y305D01*
X6089Y291D01*
X6125Y286D01*
X6161Y291D01*
X6194Y305D01*
X6223Y327D01*
X6245Y356D01*
X6259Y389D01*
X6264Y425D01*
X6259Y461D01*
X6245Y494D01*
X6223Y523D01*
X6194Y545D01*
X6166Y557D01*
Y628D01*
X6514Y976D01*
X6514Y976D01*
X6523Y989D01*
X6526Y1005D01*
Y1592D01*
X6538Y1602D01*
X6551Y1617D01*
X6558Y1635D01*
X6561Y1655D01*
X6558Y1675D01*
X6551Y1693D01*
X6538Y1708D01*
X6523Y1721D01*
X6505Y1728D01*
X6485Y1731D01*
D02*
G37*
G36*
X5125Y390D02*
X5013Y278D01*
X5015Y276D01*
X5041Y265D01*
X5069Y262D01*
X5181D01*
X5209Y265D01*
X5235Y276D01*
X5237Y278D01*
X5125Y390D01*
D02*
G37*
G36*
X3598Y537D02*
X3596Y535D01*
X3585Y509D01*
X3582Y481D01*
Y369D01*
X3585Y341D01*
X3596Y315D01*
X3598Y313D01*
X3710Y425D01*
X3598Y537D01*
D02*
G37*
G36*
X1966Y405D02*
X1776D01*
X1871Y310D01*
X1966Y405D01*
D02*
G37*
G36*
X1500Y2630D02*
X1415Y2545D01*
X1500Y2460D01*
Y2630D01*
D02*
G37*
G36*
X1052Y5675D02*
X955Y5578D01*
X1052Y5481D01*
Y5675D01*
D02*
G37*
G36*
X7365Y5665D02*
X7221Y5521D01*
X7237Y5508D01*
X7277Y5486D01*
X7320Y5473D01*
X7365Y5469D01*
X7410Y5473D01*
X7453Y5486D01*
X7493Y5508D01*
X7509Y5521D01*
X7365Y5665D01*
D02*
G37*
G36*
X2712Y5680D02*
Y5486D01*
X2810Y5583D01*
X2712Y5680D01*
D02*
G37*
G36*
X788Y5675D02*
Y5481D01*
X885Y5578D01*
X788Y5675D01*
D02*
G37*
G36*
X300Y5665D02*
X156Y5521D01*
X172Y5508D01*
X212Y5486D01*
X255Y5473D01*
X300Y5469D01*
X345Y5473D01*
X388Y5486D01*
X428Y5508D01*
X444Y5521D01*
X300Y5665D01*
D02*
G37*
G36*
X300Y5401D02*
X274Y5397D01*
X250Y5387D01*
X229Y5371D01*
X213Y5350D01*
X203Y5326D01*
X199Y5300D01*
X203Y5274D01*
X213Y5250D01*
X229Y5229D01*
X250Y5213D01*
X274Y5203D01*
X300Y5199D01*
X326Y5203D01*
X350Y5213D01*
X371Y5229D01*
X387Y5250D01*
X397Y5274D01*
X401Y5300D01*
X397Y5326D01*
X387Y5350D01*
X371Y5371D01*
X350Y5387D01*
X326Y5397D01*
X300Y5401D01*
D02*
G37*
G36*
X4405Y5055D02*
X4265D01*
Y4935D01*
X4294D01*
Y4893D01*
X4282Y4883D01*
X4269Y4868D01*
X4262Y4850D01*
X4259Y4830D01*
X4262Y4810D01*
X4269Y4792D01*
X4282Y4777D01*
X4297Y4764D01*
X4315Y4757D01*
X4335Y4754D01*
X4355Y4757D01*
X4373Y4764D01*
X4388Y4777D01*
X4401Y4792D01*
X4408Y4810D01*
X4411Y4830D01*
X4408Y4850D01*
X4401Y4868D01*
X4388Y4883D01*
X4376Y4893D01*
Y4935D01*
X4405D01*
Y5055D01*
D02*
G37*
G36*
X920Y5543D02*
X823Y5446D01*
X1017D01*
X920Y5543D01*
D02*
G37*
G36*
X5625Y5345D02*
X5225D01*
X5303Y5268D01*
X5267Y5232D01*
X5190Y5310D01*
Y5155D01*
Y5015D01*
Y4910D01*
X5267Y4988D01*
X5303Y4952D01*
X5225Y4875D01*
X5625D01*
X5547Y4952D01*
X5583Y4988D01*
X5660Y4910D01*
Y5015D01*
Y5155D01*
Y5310D01*
X5583Y5232D01*
X5547Y5268D01*
X5625Y5345D01*
D02*
G37*
G36*
X479Y5844D02*
X335Y5700D01*
X479Y5556D01*
X492Y5572D01*
X514Y5612D01*
X527Y5655D01*
X531Y5700D01*
X527Y5745D01*
X514Y5788D01*
X492Y5828D01*
X479Y5844D01*
D02*
G37*
G36*
X7365Y5931D02*
X7320Y5927D01*
X7277Y5914D01*
X7237Y5892D01*
X7221Y5879D01*
X7365Y5735D01*
X7509Y5879D01*
X7493Y5892D01*
X7453Y5914D01*
X7410Y5927D01*
X7365Y5931D01*
D02*
G37*
G36*
X300D02*
X255Y5927D01*
X212Y5914D01*
X172Y5892D01*
X156Y5879D01*
X300Y5735D01*
X444Y5879D01*
X428Y5892D01*
X388Y5914D01*
X345Y5927D01*
X300Y5931D01*
D02*
G37*
G36*
X6540Y5977D02*
X6360D01*
X6438Y5900D01*
X6402Y5864D01*
X6325Y5942D01*
Y5787D01*
X6350D01*
Y5685D01*
Y5558D01*
Y5431D01*
Y5304D01*
Y5177D01*
Y5050D01*
Y4923D01*
Y4796D01*
Y4669D01*
Y4542D01*
Y4415D01*
Y4288D01*
Y4161D01*
X6409D01*
Y4127D01*
X6123Y3841D01*
X5930D01*
X5925Y3853D01*
X6048Y3976D01*
X6048Y3976D01*
X6057Y3989D01*
X6060Y4004D01*
Y4006D01*
X6217D01*
Y4206D01*
X5099D01*
Y4231D01*
X4944D01*
X5021Y4154D01*
X4986Y4118D01*
X4908Y4196D01*
Y4016D01*
X4986Y4094D01*
X5021Y4058D01*
X4944Y3981D01*
X5042D01*
X5047Y3969D01*
X5028Y3951D01*
X4381D01*
X4154Y4178D01*
X4158Y4190D01*
X4600D01*
Y4161D01*
X4800D01*
Y4288D01*
Y4415D01*
Y4542D01*
Y4669D01*
Y4796D01*
Y4923D01*
Y5050D01*
Y5177D01*
Y5304D01*
Y5431D01*
Y5558D01*
Y5714D01*
X5982D01*
X5992Y5702D01*
X6007Y5689D01*
X6025Y5682D01*
X6045Y5679D01*
X6065Y5682D01*
X6083Y5689D01*
X6098Y5702D01*
X6111Y5717D01*
X6118Y5735D01*
X6121Y5755D01*
X6118Y5775D01*
X6111Y5793D01*
X6098Y5808D01*
X6083Y5821D01*
X6065Y5828D01*
X6045Y5831D01*
X6025Y5828D01*
X6007Y5821D01*
X5992Y5808D01*
X5982Y5796D01*
X4825D01*
Y5942D01*
X4748Y5864D01*
X4712Y5900D01*
X4790Y5977D01*
X4575D01*
Y5975D01*
X4430D01*
X4503Y5903D01*
X4467Y5867D01*
X4395Y5940D01*
Y5795D01*
X4387Y5786D01*
X4357D01*
X4244Y5899D01*
X4231Y5908D01*
X4215Y5911D01*
X4215Y5911D01*
X1310D01*
X1310Y5911D01*
X1294Y5908D01*
X1281Y5899D01*
X1145Y5763D01*
X1136Y5750D01*
X1133Y5734D01*
X1133Y5734D01*
Y5677D01*
X1120Y5672D01*
X1097Y5655D01*
X1080Y5632D01*
X1069Y5606D01*
X1066Y5578D01*
X1069Y5550D01*
X1080Y5524D01*
X1097Y5501D01*
X1120Y5484D01*
X1133Y5479D01*
Y5088D01*
X1021Y4976D01*
X720D01*
X704Y4973D01*
X691Y4964D01*
X691Y4964D01*
X556Y4829D01*
X547Y4816D01*
X544Y4800D01*
X544Y4800D01*
Y4590D01*
X515D01*
Y4571D01*
X345D01*
X329Y4568D01*
X316Y4559D01*
X316Y4559D01*
X171Y4414D01*
X162Y4401D01*
X159Y4385D01*
X159Y4385D01*
Y1655D01*
X159Y1655D01*
X162Y1639D01*
X171Y1626D01*
X303Y1494D01*
X291Y1466D01*
X286Y1430D01*
X291Y1394D01*
X305Y1361D01*
X327Y1332D01*
X356Y1310D01*
X389Y1296D01*
X425Y1291D01*
X461Y1296D01*
X494Y1310D01*
X523Y1332D01*
X545Y1361D01*
X557Y1389D01*
X855D01*
X855Y1389D01*
X871Y1392D01*
X884Y1401D01*
X1274Y1791D01*
X1274Y1791D01*
X1283Y1804D01*
X1286Y1820D01*
X1286Y1820D01*
Y1879D01*
X1290Y1890D01*
X1465D01*
X1377Y1977D01*
X1410Y2010D01*
X1377Y2043D01*
X1480Y2145D01*
Y2260D01*
X1408Y2187D01*
X1372Y2223D01*
X1445Y2295D01*
X1300D01*
Y2270D01*
X1185D01*
Y2130D01*
X1209D01*
Y2105D01*
X1165D01*
Y1915D01*
X1204D01*
Y1837D01*
X838Y1471D01*
X557D01*
X545Y1499D01*
X523Y1528D01*
X494Y1550D01*
X461Y1564D01*
X425Y1569D01*
X389Y1564D01*
X361Y1552D01*
X241Y1672D01*
Y4368D01*
X362Y4489D01*
X515D01*
Y4470D01*
X655D01*
Y4590D01*
X626D01*
Y4783D01*
X722Y4880D01*
X735Y4874D01*
X735Y4870D01*
Y4715D01*
X817Y4798D01*
X853Y4762D01*
X770Y4680D01*
X1075D01*
X992Y4762D01*
X1010Y4780D01*
X992Y4798D01*
X1075Y4880D01*
X754D01*
X747Y4893D01*
X748Y4894D01*
X1038D01*
X1038Y4894D01*
X1054Y4897D01*
X1067Y4906D01*
X1174Y5013D01*
X1281Y4906D01*
X1294Y4897D01*
X1310Y4894D01*
X1310Y4894D01*
X1693D01*
X1760Y4827D01*
Y4755D01*
X1900D01*
Y4875D01*
X1828D01*
X1739Y4964D01*
X1726Y4973D01*
X1710Y4976D01*
X1710Y4976D01*
X1327D01*
X1215Y5088D01*
Y5479D01*
X1228Y5484D01*
X1251Y5501D01*
X1268Y5524D01*
X1279Y5550D01*
X1282Y5578D01*
X1279Y5606D01*
X1268Y5632D01*
X1251Y5655D01*
X1228Y5672D01*
X1215Y5677D01*
Y5717D01*
X1327Y5829D01*
X2655D01*
X2660Y5817D01*
X2486Y5644D01*
X2470Y5646D01*
X2450Y5643D01*
X2432Y5636D01*
X2417Y5623D01*
X2404Y5608D01*
X2397Y5590D01*
X2394Y5570D01*
X2397Y5550D01*
X2404Y5532D01*
X2417Y5517D01*
X2432Y5504D01*
X2450Y5497D01*
X2470Y5494D01*
X2490Y5497D01*
X2508Y5504D01*
X2523Y5517D01*
X2536Y5532D01*
X2543Y5550D01*
X2546Y5570D01*
X2544Y5586D01*
X2732Y5774D01*
X3230D01*
X3235Y5762D01*
X3196Y5724D01*
X3187Y5711D01*
X3184Y5695D01*
X3184Y5695D01*
Y5668D01*
X3172Y5663D01*
X3153Y5677D01*
X3127Y5688D01*
X3099Y5691D01*
X3071Y5688D01*
X3045Y5677D01*
X3022Y5660D01*
X3005Y5637D01*
X2994Y5611D01*
X2991Y5583D01*
X2994Y5555D01*
X3005Y5529D01*
X3022Y5506D01*
X3044Y5490D01*
X3046Y5487D01*
X3048Y5476D01*
X3028Y5456D01*
X2977D01*
Y5680D01*
X2863Y5565D01*
X2748Y5451D01*
X2930D01*
X2935Y5438D01*
X2872Y5375D01*
X2800D01*
Y5235D01*
X2920D01*
Y5307D01*
X2938Y5326D01*
X2950Y5321D01*
Y5235D01*
X3070D01*
Y5264D01*
X3115D01*
X3115Y5264D01*
X3131Y5267D01*
X3144Y5276D01*
X3254Y5386D01*
X3254Y5386D01*
X3263Y5399D01*
X3266Y5415D01*
Y5501D01*
X3278Y5505D01*
X3299Y5489D01*
X3325Y5478D01*
X3353Y5475D01*
X3381Y5478D01*
X3407Y5489D01*
X3430Y5506D01*
X3447Y5529D01*
X3458Y5555D01*
X3461Y5583D01*
X3458Y5611D01*
X3447Y5637D01*
X3430Y5660D01*
X3407Y5677D01*
X3381Y5688D01*
X3353Y5691D01*
X3325Y5688D01*
X3299Y5677D01*
X3278Y5661D01*
X3266Y5665D01*
Y5678D01*
X3307Y5719D01*
X3921D01*
X4016Y5624D01*
X4010Y5611D01*
X4007Y5583D01*
X4010Y5555D01*
X4017Y5539D01*
X4006Y5531D01*
X3968Y5570D01*
X3969Y5583D01*
X3966Y5611D01*
X3955Y5637D01*
X3938Y5660D01*
X3915Y5677D01*
X3889Y5688D01*
X3861Y5691D01*
X3833Y5688D01*
X3807Y5677D01*
X3784Y5660D01*
X3767Y5637D01*
X3756Y5611D01*
X3753Y5583D01*
X3756Y5555D01*
X3767Y5529D01*
X3784Y5506D01*
X3807Y5489D01*
X3833Y5478D01*
X3861Y5475D01*
X3889Y5478D01*
X3915Y5489D01*
X3925Y5497D01*
X4205Y5218D01*
X4199Y5205D01*
X4143D01*
X4024Y5324D01*
X4011Y5333D01*
X3995Y5336D01*
X3995Y5336D01*
X3912D01*
X3706Y5542D01*
X3712Y5555D01*
X3715Y5583D01*
X3712Y5611D01*
X3701Y5637D01*
X3684Y5660D01*
X3661Y5677D01*
X3635Y5688D01*
X3607Y5691D01*
X3579Y5688D01*
X3553Y5677D01*
X3530Y5660D01*
X3513Y5637D01*
X3502Y5611D01*
X3499Y5583D01*
X3502Y5555D01*
X3513Y5529D01*
X3530Y5506D01*
X3553Y5489D01*
X3579Y5478D01*
X3607Y5475D01*
X3635Y5478D01*
X3648Y5484D01*
X3866Y5266D01*
X3879Y5257D01*
X3895Y5254D01*
X3895Y5254D01*
X3978D01*
X4075Y5157D01*
Y5085D01*
X4215D01*
Y5189D01*
X4228Y5195D01*
X4265Y5157D01*
Y5085D01*
X4405D01*
Y5205D01*
X4333D01*
X4063Y5474D01*
X4071Y5485D01*
X4087Y5478D01*
X4115Y5475D01*
X4143Y5478D01*
X4169Y5489D01*
X4192Y5506D01*
X4209Y5529D01*
X4220Y5555D01*
X4223Y5583D01*
X4220Y5611D01*
X4209Y5637D01*
X4192Y5660D01*
X4169Y5677D01*
X4143Y5688D01*
X4115Y5691D01*
X4087Y5688D01*
X4074Y5682D01*
X3993Y5762D01*
X3998Y5774D01*
X4128D01*
X4303Y5599D01*
X4316Y5590D01*
X4332Y5587D01*
X4600D01*
Y5431D01*
Y5304D01*
Y5177D01*
Y5050D01*
Y4923D01*
Y4796D01*
Y4669D01*
Y4526D01*
X4530D01*
Y4555D01*
X4410D01*
Y4415D01*
X4530D01*
Y4444D01*
X4600D01*
Y4399D01*
X4089D01*
X3286Y5202D01*
X3272Y5211D01*
X3257Y5214D01*
X3257Y5214D01*
X2612D01*
X2289Y5537D01*
X2295Y5550D01*
X2298Y5578D01*
X2295Y5606D01*
X2284Y5632D01*
X2267Y5655D01*
X2244Y5672D01*
X2218Y5683D01*
X2190Y5686D01*
X2162Y5683D01*
X2136Y5672D01*
X2113Y5655D01*
X2096Y5632D01*
X2085Y5606D01*
X2082Y5578D01*
X2085Y5550D01*
X2096Y5524D01*
X2113Y5501D01*
X2136Y5484D01*
X2162Y5473D01*
X2190Y5470D01*
X2218Y5473D01*
X2231Y5479D01*
X2539Y5171D01*
X2535Y5159D01*
X2413D01*
X2035Y5537D01*
X2041Y5550D01*
X2044Y5578D01*
X2041Y5606D01*
X2030Y5632D01*
X2013Y5655D01*
X1990Y5672D01*
X1964Y5683D01*
X1936Y5686D01*
X1908Y5683D01*
X1882Y5672D01*
X1859Y5655D01*
X1842Y5632D01*
X1831Y5606D01*
X1828Y5578D01*
X1831Y5550D01*
X1842Y5524D01*
X1859Y5501D01*
X1882Y5484D01*
X1908Y5473D01*
X1936Y5470D01*
X1964Y5473D01*
X1977Y5479D01*
X2340Y5116D01*
X2336Y5104D01*
X2214D01*
X1781Y5537D01*
X1787Y5550D01*
X1790Y5578D01*
X1787Y5606D01*
X1776Y5632D01*
X1759Y5655D01*
X1736Y5672D01*
X1710Y5683D01*
X1682Y5686D01*
X1654Y5683D01*
X1628Y5672D01*
X1605Y5655D01*
X1588Y5632D01*
X1577Y5606D01*
X1574Y5578D01*
X1577Y5550D01*
X1588Y5524D01*
X1605Y5501D01*
X1628Y5484D01*
X1654Y5473D01*
X1682Y5470D01*
X1710Y5473D01*
X1723Y5479D01*
X2141Y5061D01*
X2137Y5049D01*
X2015D01*
X1527Y5537D01*
X1533Y5550D01*
X1536Y5578D01*
X1533Y5606D01*
X1522Y5632D01*
X1505Y5655D01*
X1482Y5672D01*
X1456Y5683D01*
X1428Y5686D01*
X1400Y5683D01*
X1374Y5672D01*
X1351Y5655D01*
X1334Y5632D01*
X1323Y5606D01*
X1320Y5578D01*
X1323Y5550D01*
X1334Y5524D01*
X1351Y5501D01*
X1374Y5484D01*
X1400Y5473D01*
X1428Y5470D01*
X1456Y5473D01*
X1469Y5479D01*
X1969Y4979D01*
X1969Y4979D01*
X1982Y4971D01*
X1998Y4968D01*
X3171D01*
X3806Y4333D01*
X3802Y4321D01*
X2900D01*
Y4455D01*
X2778D01*
Y4553D01*
X2775Y4568D01*
X2766Y4581D01*
X2766Y4581D01*
X2681Y4666D01*
X2680Y4667D01*
X2684Y4680D01*
X2890D01*
X2807Y4762D01*
X2825Y4780D01*
X2807Y4798D01*
X2890Y4880D01*
X2585D01*
X2668Y4798D01*
X2632Y4762D01*
X2550Y4845D01*
Y4761D01*
X2537Y4759D01*
X2536Y4763D01*
X2523Y4778D01*
X2508Y4791D01*
X2490Y4798D01*
X2470Y4801D01*
X2450Y4798D01*
X2432Y4791D01*
X2417Y4778D01*
X2404Y4763D01*
X2397Y4745D01*
X2394Y4725D01*
X2397Y4705D01*
X2404Y4687D01*
X2417Y4672D01*
X2432Y4659D01*
X2450Y4652D01*
X2470Y4649D01*
X2486Y4651D01*
X2529Y4609D01*
X2529Y4609D01*
X2542Y4600D01*
X2558Y4597D01*
X2558Y4597D01*
X2636D01*
X2697Y4536D01*
Y4455D01*
X2575D01*
Y4421D01*
X2325D01*
Y4455D01*
X2000D01*
Y4421D01*
X1937D01*
X1871Y4487D01*
Y4605D01*
X1900D01*
Y4725D01*
X1760D01*
Y4605D01*
X1789D01*
Y4470D01*
X1789Y4470D01*
X1792Y4454D01*
X1801Y4441D01*
X1891Y4351D01*
X1891Y4351D01*
X1904Y4342D01*
X1920Y4339D01*
X2000D01*
Y4321D01*
X1887D01*
X1799Y4409D01*
X1786Y4418D01*
X1770Y4421D01*
X1770Y4421D01*
X1660D01*
Y4455D01*
X1335D01*
Y4421D01*
X1085D01*
Y4455D01*
X760D01*
Y4421D01*
X655D01*
Y4440D01*
X515D01*
Y4320D01*
X655D01*
Y4339D01*
X760D01*
Y4305D01*
X1085D01*
Y4339D01*
X1335D01*
Y4305D01*
X1660D01*
Y4339D01*
X1753D01*
X1841Y4251D01*
X1854Y4242D01*
X1870Y4239D01*
X1870Y4239D01*
X3822D01*
X4290Y3771D01*
X4290Y3771D01*
X4303Y3762D01*
X4316Y3760D01*
X4323Y3748D01*
X3555Y2981D01*
X1340D01*
X1324Y2978D01*
X1311Y2969D01*
X1311Y2969D01*
X1216Y2874D01*
X1207Y2861D01*
X1204Y2845D01*
X1204Y2845D01*
Y2805D01*
X1180D01*
Y2776D01*
X547D01*
X466Y2857D01*
Y2913D01*
X494Y2925D01*
X523Y2947D01*
X545Y2976D01*
X559Y3009D01*
X564Y3045D01*
X559Y3081D01*
X545Y3114D01*
X523Y3143D01*
X494Y3165D01*
X461Y3179D01*
X425Y3184D01*
X389Y3179D01*
X356Y3165D01*
X327Y3143D01*
X305Y3114D01*
X291Y3081D01*
X286Y3045D01*
X291Y3009D01*
X305Y2976D01*
X327Y2947D01*
X356Y2925D01*
X384Y2913D01*
Y2840D01*
X384Y2840D01*
X387Y2824D01*
X396Y2811D01*
X501Y2706D01*
X501Y2706D01*
X514Y2697D01*
X530Y2694D01*
X530Y2694D01*
X1180D01*
Y2665D01*
X1204D01*
Y2640D01*
X1165D01*
Y2450D01*
X1290D01*
Y2425D01*
X1465D01*
X1377Y2512D01*
X1410Y2545D01*
X1377Y2578D01*
X1475Y2675D01*
Y2795D01*
X1403Y2722D01*
X1367Y2758D01*
X1440Y2830D01*
X1306D01*
X1300Y2843D01*
X1357Y2899D01*
X3535D01*
X3540Y2887D01*
X1623Y971D01*
X557D01*
X545Y999D01*
X523Y1028D01*
X494Y1050D01*
X461Y1064D01*
X425Y1069D01*
X389Y1064D01*
X356Y1050D01*
X327Y1028D01*
X305Y999D01*
X291Y966D01*
X286Y930D01*
X291Y894D01*
X305Y861D01*
X327Y832D01*
X356Y810D01*
X389Y796D01*
X425Y791D01*
X461Y796D01*
X494Y810D01*
X523Y832D01*
X545Y861D01*
X557Y889D01*
X1640D01*
X1640Y889D01*
X1656Y892D01*
X1669Y901D01*
X2326Y1559D01*
X2338Y1554D01*
Y372D01*
X2326Y367D01*
X2304Y350D01*
X2287Y328D01*
X2277Y302D01*
X2273Y275D01*
X2277Y248D01*
X2287Y222D01*
X2298Y208D01*
X2291Y196D01*
X2262D01*
X2222Y235D01*
X2227Y248D01*
X2231Y275D01*
X2227Y302D01*
X2217Y328D01*
X2200Y350D01*
X2178Y367D01*
X2152Y377D01*
X2125Y381D01*
X2098Y377D01*
X2072Y367D01*
X2050Y350D01*
X2033Y328D01*
X2023Y302D01*
X2019Y275D01*
X2023Y248D01*
X2028Y235D01*
X2013Y220D01*
X2001Y225D01*
Y370D01*
X1889Y257D01*
X1871Y275D01*
X1853Y257D01*
X1741Y370D01*
Y196D01*
X1616D01*
X1605Y200D01*
Y375D01*
X1518Y287D01*
X1485Y320D01*
X1452Y287D01*
X1355Y385D01*
X1210D01*
X1283Y313D01*
X1247Y277D01*
X1175Y350D01*
Y205D01*
X1200D01*
Y90D01*
X1340D01*
Y114D01*
X1390D01*
Y75D01*
X1580D01*
Y114D01*
X2005D01*
X2005Y114D01*
X2021Y117D01*
X2034Y126D01*
X2085Y178D01*
X2098Y173D01*
X2125Y169D01*
X2152Y173D01*
X2165Y178D01*
X2216Y126D01*
X2216Y126D01*
X2229Y117D01*
X2245Y114D01*
X2460D01*
X2460Y114D01*
X2476Y117D01*
X2489Y126D01*
X2528Y165D01*
X2537Y178D01*
X2540Y194D01*
X2540Y194D01*
Y325D01*
X2540Y325D01*
X2537Y340D01*
X2528Y354D01*
X2501Y381D01*
Y1578D01*
X3727Y2804D01*
X5635D01*
X5635Y2804D01*
X5651Y2807D01*
X5664Y2816D01*
X5769Y2921D01*
X5778Y2934D01*
X5781Y2950D01*
X5781Y2950D01*
Y3233D01*
X5809Y3261D01*
X5822Y3260D01*
X5842Y3247D01*
X5844Y3246D01*
Y3234D01*
X5842Y3233D01*
X5822Y3220D01*
X5808Y3200D01*
X5804Y3176D01*
X5808Y3153D01*
X5822Y3133D01*
X5838Y3122D01*
X5834Y3109D01*
X5805D01*
Y2990D01*
X6075D01*
Y3009D01*
X6145D01*
Y2980D01*
X6265D01*
Y3052D01*
X6277Y3057D01*
X6295Y3039D01*
Y2980D01*
X6415D01*
Y2999D01*
X6725D01*
Y2980D01*
X6739D01*
Y2785D01*
X6743Y2765D01*
X6754Y2749D01*
X6784Y2719D01*
Y2645D01*
X6635D01*
Y2591D01*
X6625D01*
X6605Y2587D01*
X6589Y2576D01*
X6514Y2501D01*
X6503Y2485D01*
X6499Y2465D01*
Y2386D01*
X6449Y2336D01*
X6415D01*
Y2355D01*
X6406D01*
Y2365D01*
X6402Y2385D01*
X6391Y2401D01*
X6345Y2448D01*
X6328Y2459D01*
X6308Y2462D01*
X6047D01*
X6038Y2468D01*
X6036Y2469D01*
Y2481D01*
X6038Y2482D01*
X6058Y2495D01*
X6060Y2498D01*
X6083D01*
X6083Y2498D01*
X6099Y2501D01*
X6112Y2510D01*
X6133Y2531D01*
X6145Y2526D01*
Y2515D01*
X6260D01*
Y2490D01*
X6405D01*
X6332Y2562D01*
X6355Y2585D01*
X6332Y2608D01*
X6405Y2680D01*
X6260D01*
X6251Y2688D01*
Y2822D01*
X6263Y2832D01*
X6276Y2847D01*
X6283Y2865D01*
X6286Y2885D01*
X6283Y2905D01*
X6276Y2923D01*
X6263Y2938D01*
X6248Y2951D01*
X6230Y2958D01*
X6210Y2961D01*
X6190Y2958D01*
X6172Y2951D01*
X6157Y2938D01*
X6144Y2923D01*
X6137Y2905D01*
X6134Y2885D01*
X6137Y2865D01*
X6144Y2847D01*
X6157Y2832D01*
X6169Y2822D01*
Y2655D01*
X6145D01*
Y2626D01*
X6130D01*
X6130Y2626D01*
X6114Y2623D01*
X6101Y2614D01*
X6071Y2584D01*
X6058Y2582D01*
X6038Y2595D01*
X6036Y2596D01*
Y2608D01*
X6038Y2609D01*
X6058Y2622D01*
X6072Y2642D01*
X6076Y2666D01*
X6072Y2689D01*
X6058Y2709D01*
X6038Y2722D01*
X6015Y2727D01*
X5865D01*
X5842Y2722D01*
X5822Y2709D01*
X5808Y2689D01*
X5804Y2666D01*
X5808Y2642D01*
X5822Y2622D01*
X5842Y2609D01*
X5844Y2608D01*
Y2596D01*
X5842Y2595D01*
X5822Y2582D01*
X5820Y2579D01*
X5804D01*
X5803Y2579D01*
X5788Y2576D01*
X5775Y2567D01*
X5775Y2567D01*
X5721Y2514D01*
X5712Y2501D01*
X5709Y2485D01*
X5709Y2485D01*
Y2260D01*
X5709Y2260D01*
X5712Y2244D01*
X5721Y2231D01*
X5791Y2161D01*
X5791Y2161D01*
X5804Y2152D01*
X5820Y2149D01*
X5820Y2149D01*
X5983D01*
X6144Y1988D01*
Y1208D01*
X6144Y1208D01*
X6147Y1193D01*
X6156Y1180D01*
X6250Y1086D01*
Y1064D01*
X6207Y1021D01*
X5760D01*
X5744Y1018D01*
X5731Y1009D01*
X5731Y1009D01*
X5596Y874D01*
X5587Y861D01*
X5584Y845D01*
X5584Y845D01*
Y557D01*
X5556Y545D01*
X5527Y523D01*
X5505Y494D01*
X5491Y461D01*
X5486Y425D01*
X5491Y389D01*
X5505Y356D01*
X5527Y327D01*
X5556Y305D01*
X5589Y291D01*
X5625Y286D01*
X5661Y291D01*
X5694Y305D01*
X5723Y327D01*
X5745Y356D01*
X5759Y389D01*
X5764Y425D01*
X5759Y461D01*
X5745Y494D01*
X5723Y523D01*
X5694Y545D01*
X5666Y557D01*
Y828D01*
X5777Y939D01*
X6223D01*
X6223Y939D01*
X6239Y942D01*
X6252Y951D01*
X6311Y1010D01*
X6390D01*
Y1125D01*
X6415D01*
Y1270D01*
X6343Y1197D01*
X6307Y1233D01*
X6380Y1305D01*
X6226D01*
Y2005D01*
X6223Y2021D01*
X6214Y2034D01*
X6214Y2034D01*
X6036Y2212D01*
X6041Y2225D01*
X6075D01*
Y2244D01*
X6145D01*
Y2215D01*
X6265D01*
Y2348D01*
X6265Y2355D01*
X6275Y2361D01*
X6285D01*
X6295Y2351D01*
Y2215D01*
X6415D01*
Y2234D01*
X6470D01*
X6490Y2238D01*
X6506Y2249D01*
X6586Y2329D01*
X6597Y2345D01*
X6601Y2365D01*
Y2444D01*
X6623Y2466D01*
X6635Y2461D01*
Y2435D01*
X6784D01*
Y1835D01*
X6788Y1815D01*
X6799Y1799D01*
X6904Y1694D01*
Y1491D01*
X6800D01*
X6782Y1488D01*
X6765Y1481D01*
X6750Y1470D01*
X6739Y1455D01*
X6732Y1438D01*
X6729Y1420D01*
Y1330D01*
X6732Y1312D01*
X6739Y1295D01*
X6750Y1280D01*
X6765Y1269D01*
X6782Y1262D01*
X6800Y1259D01*
X6904D01*
Y1231D01*
X6459Y786D01*
X6448Y770D01*
X6444Y750D01*
Y456D01*
X6234Y246D01*
X4816D01*
X4637Y425D01*
X4741Y529D01*
X4752Y545D01*
X4756Y565D01*
Y918D01*
X4817D01*
Y1232D01*
X4592D01*
Y918D01*
X4654D01*
Y586D01*
X4544Y476D01*
X4373D01*
X4365Y494D01*
X4343Y523D01*
X4314Y545D01*
X4296Y553D01*
Y705D01*
X4292Y725D01*
X4281Y741D01*
X4046Y976D01*
X4030Y987D01*
X4010Y991D01*
X3100D01*
Y1140D01*
X2890D01*
Y740D01*
X2946D01*
X2948Y730D01*
X2959Y714D01*
X3064Y609D01*
X3080Y598D01*
X3100Y594D01*
X3179D01*
X3196Y577D01*
X3191Y565D01*
X3090D01*
X3163Y493D01*
X3127Y457D01*
X3055Y530D01*
Y405D01*
X3153Y308D01*
X3120Y275D01*
X3153Y242D01*
X3065Y155D01*
X3240D01*
Y180D01*
X3365D01*
Y370D01*
X3336D01*
Y400D01*
X3350D01*
Y540D01*
X3336D01*
Y560D01*
X3332Y580D01*
X3321Y596D01*
X3236Y681D01*
X3220Y692D01*
X3200Y696D01*
X3121D01*
X3089Y728D01*
X3094Y740D01*
X3100D01*
Y889D01*
X3989D01*
X4194Y684D01*
Y553D01*
X4176Y545D01*
X4147Y523D01*
X4125Y494D01*
X4111Y461D01*
X4106Y425D01*
X4111Y389D01*
X4125Y356D01*
X4147Y327D01*
X4176Y305D01*
X4209Y291D01*
X4245Y286D01*
X4281Y291D01*
X4314Y305D01*
X4343Y327D01*
X4365Y356D01*
X4373Y374D01*
X4544D01*
X4759Y159D01*
X4775Y148D01*
X4795Y144D01*
X6255D01*
X6275Y148D01*
X6291Y159D01*
X6531Y399D01*
X6542Y415D01*
X6546Y435D01*
Y729D01*
X6702Y885D01*
X6713Y878D01*
X6707Y865D01*
X6704Y840D01*
Y750D01*
X6707Y725D01*
X6717Y702D01*
X6827Y813D01*
X6863Y777D01*
X6752Y667D01*
X6775Y657D01*
X6800Y654D01*
X7110D01*
X7135Y657D01*
X7158Y667D01*
X7047Y777D01*
X7065Y795D01*
X7047Y813D01*
X7158Y923D01*
X7135Y933D01*
X7110Y936D01*
X6800D01*
X6775Y933D01*
X6762Y927D01*
X6755Y938D01*
X6991Y1174D01*
X7002Y1190D01*
X7006Y1210D01*
Y1259D01*
X7110D01*
X7128Y1262D01*
X7145Y1269D01*
X7160Y1280D01*
X7171Y1295D01*
X7178Y1312D01*
X7181Y1330D01*
Y1420D01*
X7178Y1438D01*
X7171Y1455D01*
X7160Y1470D01*
X7145Y1481D01*
X7128Y1488D01*
X7110Y1491D01*
X7006D01*
Y1715D01*
X7002Y1735D01*
X6991Y1751D01*
X6886Y1856D01*
Y2435D01*
X7035D01*
Y2645D01*
X6886D01*
Y2740D01*
X6882Y2760D01*
X6871Y2776D01*
X6841Y2806D01*
Y2955D01*
X6985D01*
X6912Y3027D01*
X6935Y3050D01*
X6912Y3073D01*
X6985Y3145D01*
X6840D01*
Y3120D01*
X6725D01*
Y3101D01*
X6415D01*
Y3120D01*
X6358D01*
X6265Y3213D01*
X6249Y3224D01*
X6229Y3227D01*
X6047D01*
X6038Y3233D01*
X6036Y3234D01*
Y3246D01*
X6038Y3247D01*
X6058Y3260D01*
X6060Y3263D01*
X6078D01*
X6078Y3263D01*
X6094Y3266D01*
X6107Y3275D01*
X6132Y3300D01*
X6145Y3294D01*
Y3280D01*
X6260D01*
Y3255D01*
X6405D01*
X6332Y3327D01*
X6355Y3350D01*
X6332Y3373D01*
X6405Y3445D01*
X6260D01*
Y3420D01*
X6145D01*
Y3391D01*
X6125D01*
X6125Y3391D01*
X6109Y3388D01*
X6096Y3379D01*
X6070Y3352D01*
X6058Y3347D01*
X6038Y3360D01*
X6036Y3361D01*
Y3373D01*
X6038Y3374D01*
X6058Y3387D01*
X6072Y3407D01*
X6076Y3431D01*
X6072Y3454D01*
X6058Y3474D01*
X6038Y3487D01*
X6015Y3492D01*
X5865D01*
X5842Y3487D01*
X5822Y3474D01*
X5808Y3454D01*
X5804Y3431D01*
X5808Y3407D01*
X5822Y3387D01*
X5842Y3374D01*
X5844Y3373D01*
Y3361D01*
X5842Y3360D01*
X5822Y3347D01*
X5820Y3344D01*
X5794D01*
X5794Y3344D01*
X5778Y3341D01*
X5765Y3332D01*
X5765Y3332D01*
X5711Y3279D01*
X5702Y3266D01*
X5699Y3250D01*
X5699Y3250D01*
Y2967D01*
X5618Y2886D01*
X3748D01*
X3743Y2898D01*
X4435Y3589D01*
X7141D01*
X7147Y3582D01*
X7162Y3569D01*
X7180Y3562D01*
X7200Y3559D01*
X7220Y3562D01*
X7238Y3569D01*
X7253Y3582D01*
X7266Y3597D01*
X7273Y3615D01*
X7276Y3635D01*
X7273Y3655D01*
X7266Y3673D01*
X7253Y3688D01*
X7238Y3701D01*
X7220Y3708D01*
X7200Y3711D01*
X7180Y3708D01*
X7162Y3701D01*
X7147Y3688D01*
X7134Y3673D01*
X7134Y3671D01*
X6630D01*
X6625Y3683D01*
X6754Y3811D01*
X6770Y3809D01*
X6790Y3812D01*
X6808Y3819D01*
X6823Y3832D01*
X6836Y3847D01*
X6843Y3865D01*
X6846Y3885D01*
X6844Y3901D01*
X6964Y4021D01*
X6964Y4021D01*
X6973Y4034D01*
X6976Y4050D01*
Y4440D01*
X6976Y4440D01*
X6973Y4456D01*
X6964Y4469D01*
X6964Y4469D01*
X6919Y4514D01*
X6906Y4523D01*
X6890Y4526D01*
X6880Y4533D01*
Y4555D01*
X6760D01*
Y4415D01*
Y4285D01*
X6779D01*
Y4132D01*
X6736Y4088D01*
X6725Y4095D01*
X6732Y4114D01*
X6736Y4140D01*
X6732Y4166D01*
X6722Y4190D01*
X6722Y4191D01*
X6653Y4122D01*
X6584Y4053D01*
X6585Y4053D01*
X6609Y4043D01*
X6635Y4039D01*
X6661Y4043D01*
X6680Y4050D01*
X6687Y4039D01*
X6606Y3959D01*
X6590Y3961D01*
X6570Y3958D01*
X6552Y3951D01*
X6537Y3938D01*
X6524Y3923D01*
X6517Y3905D01*
X6514Y3885D01*
X6516Y3869D01*
X6428Y3781D01*
X6195D01*
X6190Y3793D01*
X6479Y4081D01*
X6479Y4081D01*
X6488Y4094D01*
X6491Y4110D01*
Y4161D01*
X6527D01*
X6536Y4151D01*
X6534Y4140D01*
X6538Y4114D01*
X6548Y4090D01*
X6548Y4089D01*
X6617Y4158D01*
X6686Y4227D01*
X6685Y4227D01*
X6661Y4237D01*
X6635Y4241D01*
X6609Y4237D01*
X6585Y4227D01*
X6564Y4211D01*
X6562Y4209D01*
X6550Y4213D01*
Y4317D01*
X6610D01*
Y4285D01*
X6730D01*
Y4415D01*
Y4555D01*
X6610D01*
Y4526D01*
X6550D01*
Y4698D01*
X6610D01*
Y4675D01*
X6730D01*
Y4805D01*
Y4935D01*
Y5075D01*
X6610D01*
Y5034D01*
X6550D01*
Y5206D01*
X6610D01*
Y5175D01*
X6730D01*
Y5303D01*
X6744Y5308D01*
X6747Y5311D01*
X6760Y5305D01*
Y5175D01*
X6880D01*
Y5204D01*
X7013D01*
X7017Y5192D01*
X7007Y5183D01*
X6994Y5168D01*
X6987Y5150D01*
X6984Y5130D01*
X6986Y5114D01*
X6918Y5046D01*
X6880D01*
Y5075D01*
X6760D01*
Y4935D01*
Y4805D01*
Y4675D01*
X6880D01*
Y4704D01*
X6958D01*
X7014Y4648D01*
Y4002D01*
X6971Y3959D01*
X6955Y3961D01*
X6935Y3958D01*
X6917Y3951D01*
X6902Y3938D01*
X6889Y3923D01*
X6882Y3905D01*
X6879Y3885D01*
X6882Y3865D01*
X6889Y3847D01*
X6902Y3832D01*
X6917Y3819D01*
X6935Y3812D01*
X6955Y3809D01*
X6975Y3812D01*
X6993Y3819D01*
X7008Y3832D01*
X7021Y3847D01*
X7028Y3865D01*
X7031Y3885D01*
X7029Y3901D01*
X7084Y3956D01*
X7084Y3956D01*
X7093Y3969D01*
X7096Y3985D01*
Y4665D01*
X7093Y4681D01*
X7084Y4694D01*
X7004Y4774D01*
X6991Y4783D01*
X6975Y4786D01*
X6975Y4786D01*
X6880D01*
Y4834D01*
X7137D01*
X7147Y4822D01*
X7162Y4809D01*
X7180Y4802D01*
X7200Y4799D01*
X7220Y4802D01*
X7238Y4809D01*
X7253Y4822D01*
X7266Y4837D01*
X7273Y4855D01*
X7276Y4875D01*
X7273Y4895D01*
X7266Y4913D01*
X7253Y4928D01*
X7238Y4941D01*
X7220Y4948D01*
X7200Y4951D01*
X7180Y4948D01*
X7162Y4941D01*
X7147Y4928D01*
X7137Y4916D01*
X6880D01*
Y4964D01*
X6935D01*
X6935Y4964D01*
X6951Y4967D01*
X6964Y4976D01*
X7044Y5056D01*
X7060Y5054D01*
X7080Y5057D01*
X7098Y5064D01*
X7113Y5077D01*
X7126Y5092D01*
X7133Y5110D01*
X7136Y5130D01*
X7133Y5150D01*
X7126Y5168D01*
X7113Y5183D01*
X7103Y5192D01*
X7107Y5204D01*
X7216D01*
X7220Y5192D01*
X7214Y5186D01*
X7198Y5165D01*
X7188Y5141D01*
X7184Y5115D01*
X7188Y5089D01*
X7198Y5065D01*
X7198Y5064D01*
X7267Y5133D01*
X7303Y5097D01*
X7234Y5028D01*
X7235Y5028D01*
X7259Y5018D01*
X7285Y5014D01*
X7311Y5018D01*
X7324Y5023D01*
X7334Y5016D01*
Y3063D01*
X7322Y3053D01*
X7309Y3038D01*
X7302Y3020D01*
X7299Y3000D01*
X7302Y2980D01*
X7309Y2962D01*
X7322Y2947D01*
X7337Y2934D01*
X7355Y2927D01*
X7375Y2924D01*
X7395Y2927D01*
X7413Y2934D01*
X7428Y2947D01*
X7441Y2962D01*
X7448Y2980D01*
X7451Y3000D01*
X7448Y3020D01*
X7441Y3038D01*
X7428Y3053D01*
X7416Y3063D01*
Y5175D01*
X7416Y5175D01*
X7413Y5191D01*
X7404Y5204D01*
X7404Y5204D01*
X7334Y5274D01*
X7321Y5283D01*
X7305Y5286D01*
X7305Y5286D01*
X7253D01*
X7250Y5298D01*
X7261Y5312D01*
X7268Y5330D01*
X7271Y5350D01*
X7268Y5370D01*
X7261Y5388D01*
X7248Y5403D01*
X7233Y5416D01*
X7215Y5423D01*
X7195Y5426D01*
X7175Y5423D01*
X7157Y5416D01*
X7142Y5403D01*
X7132Y5391D01*
X7032D01*
X7001Y5422D01*
Y5535D01*
X6998Y5551D01*
X6989Y5564D01*
X6989Y5564D01*
X6894Y5659D01*
X6881Y5668D01*
X6865Y5671D01*
X6865Y5671D01*
X6850D01*
Y5695D01*
X6730D01*
Y5585D01*
X6717Y5575D01*
X6706Y5577D01*
X6700Y5582D01*
Y5695D01*
X6580D01*
Y5669D01*
X6550D01*
Y5787D01*
X6575D01*
Y5942D01*
X6498Y5864D01*
X6462Y5900D01*
X6540Y5977D01*
D02*
G37*
G36*
X6965Y5951D02*
X6939Y5947D01*
X6915Y5937D01*
X6894Y5921D01*
X6878Y5900D01*
X6868Y5876D01*
X6864Y5850D01*
X6868Y5824D01*
X6878Y5800D01*
X6894Y5779D01*
X6915Y5763D01*
X6939Y5753D01*
X6965Y5749D01*
X6991Y5753D01*
X7015Y5763D01*
X7036Y5779D01*
X7052Y5800D01*
X7062Y5824D01*
X7066Y5850D01*
X7062Y5876D01*
X7052Y5900D01*
X7036Y5921D01*
X7015Y5937D01*
X6991Y5947D01*
X6965Y5951D01*
D02*
G37*
G36*
X2942Y5715D02*
X2748D01*
X2845Y5618D01*
X2942Y5715D01*
D02*
G37*
G36*
X7544Y5844D02*
X7400Y5700D01*
X7544Y5556D01*
X7557Y5572D01*
X7579Y5612D01*
X7592Y5655D01*
X7596Y5700D01*
X7592Y5745D01*
X7579Y5788D01*
X7557Y5828D01*
X7544Y5844D01*
D02*
G37*
G36*
X7186Y5844D02*
X7173Y5828D01*
X7151Y5788D01*
X7138Y5745D01*
X7134Y5700D01*
X7138Y5655D01*
X7151Y5612D01*
X7173Y5572D01*
X7186Y5556D01*
X7330Y5700D01*
X7186Y5844D01*
D02*
G37*
G36*
X1017Y5710D02*
X823D01*
X920Y5613D01*
X1017Y5710D01*
D02*
G37*
G36*
X121Y5844D02*
X108Y5828D01*
X86Y5788D01*
X73Y5745D01*
X69Y5700D01*
X73Y5655D01*
X86Y5612D01*
X108Y5572D01*
X121Y5556D01*
X265Y5700D01*
X121Y5844D01*
D02*
G37*
G36*
X278Y3657D02*
X276Y3655D01*
X265Y3629D01*
X262Y3601D01*
Y3489D01*
X265Y3461D01*
X276Y3435D01*
X278Y3433D01*
X390Y3545D01*
X278Y3657D01*
D02*
G37*
G36*
X5465Y3516D02*
X5315D01*
X5293Y3513D01*
X5275Y3506D01*
X5333Y3448D01*
X5297Y3413D01*
X5240Y3471D01*
X5232Y3453D01*
X5229Y3431D01*
X5232Y3408D01*
X5241Y3388D01*
X5254Y3370D01*
Y3364D01*
X5241Y3346D01*
X5232Y3326D01*
X5229Y3303D01*
X5232Y3281D01*
X5241Y3261D01*
X5254Y3243D01*
Y3237D01*
X5241Y3219D01*
X5232Y3199D01*
X5229Y3176D01*
X5232Y3154D01*
X5241Y3134D01*
X5254Y3116D01*
Y3110D01*
X5241Y3092D01*
X5232Y3072D01*
X5229Y3050D01*
X5232Y3027D01*
X5240Y3009D01*
X5297Y3067D01*
X5333Y3032D01*
X5275Y2974D01*
X5293Y2967D01*
X5315Y2964D01*
X5465D01*
X5487Y2967D01*
X5505Y2974D01*
X5447Y3032D01*
X5483Y3067D01*
X5540Y3009D01*
X5548Y3027D01*
X5551Y3050D01*
X5548Y3072D01*
X5539Y3092D01*
X5526Y3110D01*
Y3116D01*
X5539Y3134D01*
X5548Y3154D01*
X5551Y3176D01*
X5548Y3199D01*
X5539Y3219D01*
X5526Y3237D01*
Y3243D01*
X5539Y3261D01*
X5548Y3281D01*
X5551Y3303D01*
X5548Y3326D01*
X5539Y3346D01*
X5526Y3364D01*
Y3370D01*
X5539Y3388D01*
X5548Y3408D01*
X5551Y3431D01*
X5548Y3453D01*
X5540Y3471D01*
X5483Y3413D01*
X5447Y3448D01*
X5505Y3506D01*
X5487Y3513D01*
X5465Y3516D01*
D02*
G37*
G36*
X481Y3708D02*
X369D01*
X341Y3705D01*
X315Y3694D01*
X313Y3692D01*
X425Y3580D01*
X537Y3692D01*
X535Y3694D01*
X509Y3705D01*
X481Y3708D01*
D02*
G37*
G36*
X572Y3657D02*
X460Y3545D01*
X572Y3433D01*
X574Y3435D01*
X585Y3461D01*
X588Y3489D01*
Y3601D01*
X585Y3629D01*
X574Y3655D01*
X572Y3657D01*
D02*
G37*
G36*
X425Y3510D02*
X313Y3398D01*
X315Y3396D01*
X341Y3385D01*
X369Y3382D01*
X481D01*
X509Y3385D01*
X535Y3396D01*
X537Y3398D01*
X425Y3510D01*
D02*
G37*
G36*
X5465Y2751D02*
X5315D01*
X5293Y2748D01*
X5275Y2741D01*
X5333Y2683D01*
X5297Y2648D01*
X5240Y2706D01*
X5232Y2688D01*
X5229Y2666D01*
X5232Y2643D01*
X5241Y2623D01*
X5249Y2611D01*
X5253Y2602D01*
X5249Y2593D01*
X5241Y2581D01*
X5232Y2561D01*
X5229Y2539D01*
X5232Y2516D01*
X5241Y2496D01*
X5249Y2484D01*
X5253Y2475D01*
X5249Y2466D01*
X5241Y2454D01*
X5232Y2434D01*
X5229Y2411D01*
X5232Y2389D01*
X5241Y2369D01*
X5249Y2357D01*
X5253Y2348D01*
X5249Y2339D01*
X5241Y2327D01*
X5232Y2307D01*
X5229Y2284D01*
X5232Y2262D01*
X5240Y2244D01*
X5297Y2302D01*
X5333Y2267D01*
X5275Y2209D01*
X5293Y2202D01*
X5315Y2199D01*
X5465D01*
X5487Y2202D01*
X5505Y2209D01*
X5447Y2267D01*
X5483Y2302D01*
X5540Y2244D01*
X5548Y2262D01*
X5551Y2284D01*
X5548Y2307D01*
X5539Y2327D01*
X5531Y2339D01*
X5527Y2348D01*
X5531Y2357D01*
X5539Y2369D01*
X5548Y2389D01*
X5551Y2411D01*
X5548Y2434D01*
X5539Y2454D01*
X5531Y2466D01*
X5527Y2475D01*
X5531Y2484D01*
X5539Y2496D01*
X5548Y2516D01*
X5551Y2539D01*
X5548Y2561D01*
X5539Y2581D01*
X5531Y2593D01*
X5527Y2602D01*
X5531Y2611D01*
X5539Y2623D01*
X5548Y2643D01*
X5551Y2666D01*
X5548Y2688D01*
X5540Y2706D01*
X5483Y2648D01*
X5447Y2683D01*
X5505Y2741D01*
X5487Y2748D01*
X5465Y2751D01*
D02*
G37*
G36*
X6440Y2645D02*
X6380Y2585D01*
X6440Y2525D01*
Y2645D01*
D02*
G37*
G36*
Y3410D02*
X6380Y3350D01*
X6440Y3290D01*
Y3410D01*
D02*
G37*
G36*
X7020Y3110D02*
X6960Y3050D01*
X7020Y2990D01*
Y3110D01*
D02*
G37*
G36*
X4320Y4701D02*
X4300Y4698D01*
X4282Y4691D01*
X4267Y4678D01*
X4254Y4663D01*
X4247Y4645D01*
X4244Y4625D01*
X4247Y4605D01*
X4254Y4587D01*
X4267Y4572D01*
X4271Y4568D01*
X4267Y4555D01*
X4260D01*
Y4415D01*
X4380D01*
Y4555D01*
X4373D01*
X4369Y4568D01*
X4373Y4572D01*
X4386Y4587D01*
X4393Y4605D01*
X4396Y4625D01*
X4393Y4645D01*
X4386Y4663D01*
X4373Y4678D01*
X4358Y4691D01*
X4340Y4698D01*
X4320Y4701D01*
D02*
G37*
G36*
X2925Y4845D02*
X2860Y4780D01*
X2925Y4715D01*
Y4845D01*
D02*
G37*
G36*
X1685D02*
X1620Y4780D01*
X1685Y4715D01*
Y4845D01*
D02*
G37*
G36*
X4215Y5055D02*
X4075D01*
Y4935D01*
X4104D01*
Y4893D01*
X4092Y4883D01*
X4079Y4868D01*
X4072Y4850D01*
X4069Y4830D01*
X4072Y4810D01*
X4079Y4792D01*
X4092Y4777D01*
X4107Y4764D01*
X4125Y4757D01*
X4145Y4754D01*
X4165Y4757D01*
X4183Y4764D01*
X4198Y4777D01*
X4211Y4792D01*
X4218Y4810D01*
X4221Y4830D01*
X4218Y4850D01*
X4211Y4868D01*
X4198Y4883D01*
X4186Y4893D01*
Y4935D01*
X4215D01*
Y5055D01*
D02*
G37*
G36*
X2350Y4845D02*
X2285Y4780D01*
X2350Y4715D01*
Y4845D01*
D02*
G37*
G36*
X1310Y4845D02*
Y4715D01*
X1375Y4780D01*
X1310Y4845D01*
D02*
G37*
G36*
X2315Y4880D02*
X2010D01*
X2093Y4798D01*
X2075Y4780D01*
X2093Y4762D01*
X2010Y4680D01*
X2315D01*
X2232Y4762D01*
X2250Y4780D01*
X2232Y4798D01*
X2315Y4880D01*
D02*
G37*
G36*
X1650D02*
X1345D01*
X1428Y4798D01*
X1410Y4780D01*
X1428Y4762D01*
X1345Y4680D01*
X1650D01*
X1567Y4762D01*
X1585Y4780D01*
X1567Y4798D01*
X1650Y4880D01*
D02*
G37*
G36*
X1110Y4845D02*
X1045Y4780D01*
X1110Y4715D01*
Y4845D01*
D02*
G37*
G36*
X1975Y4845D02*
Y4715D01*
X2040Y4780D01*
X1975Y4845D01*
D02*
G37*
%LPD*%
D10*
X700Y200D02*
D03*
X6965Y5850D02*
D03*
X300Y5300D02*
D03*
D11*
X6670Y4355D02*
D03*
X6820D02*
D03*
X6640Y5625D02*
D03*
X6790D02*
D03*
X6670Y4485D02*
D03*
X6820D02*
D03*
X4470Y4485D02*
D03*
X4320D02*
D03*
X6670Y4745D02*
D03*
X6820D02*
D03*
X6670Y4875D02*
D03*
X6820D02*
D03*
X6670Y5005D02*
D03*
X6820D02*
D03*
X6670Y5245D02*
D03*
X6820D02*
D03*
X3010Y5305D02*
D03*
X2860D02*
D03*
X6355Y2285D02*
D03*
X6205D02*
D03*
X6355Y3050D02*
D03*
X6205D02*
D03*
D12*
X5390Y2666D02*
D03*
Y2539D02*
D03*
Y2411D02*
D03*
Y2284D02*
D03*
X5940Y2666D02*
D03*
Y2539D02*
D03*
Y2411D02*
D03*
X5390Y3431D02*
D03*
Y3303D02*
D03*
Y3176D02*
D03*
Y3050D02*
D03*
X5940Y3431D02*
D03*
Y3303D02*
D03*
Y3176D02*
D03*
D13*
Y2284D02*
D03*
Y3050D02*
D03*
D14*
X1498Y4780D02*
D03*
X923D02*
D03*
Y4380D02*
D03*
X1498D02*
D03*
X2738Y4780D02*
D03*
X2162D02*
D03*
Y4380D02*
D03*
X2738D02*
D03*
D15*
X4145Y4995D02*
D03*
Y5145D02*
D03*
X4335Y4995D02*
D03*
Y5145D02*
D03*
X1830Y4665D02*
D03*
Y4815D02*
D03*
X585Y4530D02*
D03*
Y4380D02*
D03*
D16*
X4705Y1075D02*
D03*
X4705Y1505D02*
D03*
D17*
X1385Y2735D02*
D03*
X1245D02*
D03*
X1390Y2200D02*
D03*
X1250D02*
D03*
X3145Y470D02*
D03*
X3285D02*
D03*
X6930Y3050D02*
D03*
X6790D02*
D03*
X6350Y2585D02*
D03*
X6210D02*
D03*
X6350Y3350D02*
D03*
X6210D02*
D03*
D18*
X1245Y2545D02*
D03*
X1395D02*
D03*
X1245Y2010D02*
D03*
X1395D02*
D03*
X3285Y275D02*
D03*
X3135D02*
D03*
D19*
X4490Y5885D02*
D03*
Y5745D02*
D03*
X1270Y295D02*
D03*
Y155D02*
D03*
X6320Y1215D02*
D03*
Y1075D02*
D03*
D20*
X1485Y155D02*
D03*
Y305D02*
D03*
D21*
X2995Y940D02*
D03*
Y1500D02*
D03*
D22*
X6835Y2540D02*
D03*
X7395D02*
D03*
D23*
X5285Y4970D02*
D03*
X5425D02*
D03*
X5565D02*
D03*
D24*
X6450Y4231D02*
D03*
X4700D02*
D03*
Y4485D02*
D03*
Y4358D02*
D03*
Y5120D02*
D03*
Y4993D02*
D03*
Y4866D02*
D03*
Y4612D02*
D03*
Y4739D02*
D03*
Y5374D02*
D03*
Y5247D02*
D03*
Y5501D02*
D03*
Y5628D02*
D03*
Y5882D02*
D03*
Y5755D02*
D03*
X6450D02*
D03*
Y5501D02*
D03*
Y5628D02*
D03*
Y5374D02*
D03*
Y5120D02*
D03*
Y5247D02*
D03*
Y4612D02*
D03*
Y4485D02*
D03*
Y4739D02*
D03*
Y4866D02*
D03*
Y4993D02*
D03*
Y4358D02*
D03*
Y5882D02*
D03*
D25*
X5003Y4106D02*
D03*
X6147D02*
D03*
X5258D02*
D03*
X5131D02*
D03*
X5892D02*
D03*
X5765D02*
D03*
X5638D02*
D03*
X5385D02*
D03*
X5512D02*
D03*
X6019D02*
D03*
D26*
X5285Y5110D02*
D03*
X5425D02*
D03*
X5565D02*
D03*
Y5250D02*
D03*
X5425D02*
D03*
X5285D02*
D03*
D27*
X2499Y194D02*
Y325D01*
X2460Y155D02*
X2499Y194D01*
X2460Y364D02*
Y1594D01*
Y364D02*
X2499Y325D01*
X2460Y1594D02*
X3711Y2845D01*
X6960Y5405D02*
Y5535D01*
X6865Y5630D02*
X6960Y5535D01*
X6820Y5630D02*
X6865D01*
X6637Y5628D02*
X6640Y5625D01*
X6450Y5628D02*
X6637D01*
X6445Y3740D02*
X6820Y4115D01*
X1340Y2940D02*
X3572D01*
X1245Y2845D02*
X1340Y2940D01*
X1245Y2735D02*
Y2845D01*
X3572Y2940D02*
X4372Y3740D01*
X6570Y3685D02*
X6935Y4050D01*
X425Y930D02*
X1640D01*
X4395Y3685D01*
X200Y1655D02*
X425Y1430D01*
X1038Y4935D02*
X1174Y5071D01*
X7015Y5350D02*
X7195D01*
X6960Y5405D02*
X7015Y5350D01*
X4320Y4485D02*
Y4625D01*
X6870Y5380D02*
Y5445D01*
X6820Y5330D02*
X6870Y5380D01*
X6820Y5245D02*
Y5330D01*
X4470Y4485D02*
X4700D01*
X6450Y4739D02*
X6668D01*
X7055Y3985D02*
Y4665D01*
X6975Y4745D02*
X7055Y4665D01*
X6820Y4745D02*
X6975D01*
X5285Y4970D02*
Y5110D01*
X5425Y4970D02*
X5565D01*
X5425D02*
Y5110D01*
X5565D01*
Y5250D01*
X5425D02*
X5565D01*
X5285D02*
X5425D01*
X5285Y5110D02*
Y5250D01*
X6450Y5501D02*
X6706D01*
X6955Y3885D02*
X7055Y3985D01*
X6890Y4485D02*
X6935Y4440D01*
Y4050D02*
Y4440D01*
X6820Y4485D02*
X6890D01*
X4395Y3685D02*
X6570D01*
X6820Y4115D02*
Y4355D01*
X4372Y3740D02*
X6445D01*
X6935Y5005D02*
X7060Y5130D01*
X6820Y5005D02*
X6935D01*
X7195Y3630D02*
X7200Y3635D01*
X4418Y3630D02*
X7195D01*
X6820Y4875D02*
X7200D01*
X6667Y4358D02*
X6670Y4355D01*
X6450Y4358D02*
X6667D01*
X2379Y1591D02*
X4418Y3630D01*
X2125Y275D02*
X2245Y155D01*
X2460D01*
X3711Y2845D02*
X5635D01*
X2379Y275D02*
Y1591D01*
X530Y2735D02*
X1245D01*
X425Y2840D02*
X530Y2735D01*
X425Y2840D02*
Y3045D01*
X5390Y3050D02*
Y3176D01*
Y2539D02*
Y2666D01*
Y2284D02*
Y2411D01*
Y2539D01*
Y3176D02*
Y3303D01*
Y3431D01*
X5635Y2845D02*
X5740Y2950D01*
Y3250D01*
X5794Y3303D01*
X5940D01*
X6450Y4110D02*
Y4231D01*
X6140Y3800D02*
X6450Y4110D01*
X4319Y3800D02*
X6140D01*
X3839Y4280D02*
X4319Y3800D01*
X6019Y4004D02*
Y4106D01*
X5870Y3855D02*
X6019Y4004D01*
X1870Y4280D02*
X3839D01*
X1770Y4380D02*
X1870Y4280D01*
X2738Y4380D02*
Y4553D01*
X2652Y4638D02*
X2738Y4553D01*
X2558Y4638D02*
X2652D01*
X2470Y4725D02*
X2558Y4638D01*
X2162Y4380D02*
X2738D01*
X2595Y5173D02*
X3257D01*
X2190Y5578D02*
X2595Y5173D01*
X2396Y5118D02*
X3234D01*
X1936Y5578D02*
X2396Y5118D01*
X1998Y5008D02*
X3188D01*
X1428Y5578D02*
X1998Y5008D01*
X2197Y5063D02*
X3211D01*
X1682Y5578D02*
X2197Y5063D01*
X4342Y3855D02*
X5870D01*
X3188Y5008D02*
X4342Y3855D01*
X5131Y3996D02*
Y4106D01*
X5045Y3910D02*
X5131Y3996D01*
X4364Y3910D02*
X5045D01*
X3211Y5063D02*
X4364Y3910D01*
X3234Y5118D02*
X4121Y4231D01*
X4700D01*
X3257Y5173D02*
X4072Y4358D01*
X4700D01*
X1310Y4935D02*
X1710D01*
X1174Y5071D02*
X1310Y4935D01*
X1174Y5071D02*
Y5578D01*
X1710Y4935D02*
X1830Y4815D01*
X2970Y5415D02*
X3045D01*
X2860Y5305D02*
X2970Y5415D01*
X3099Y5469D02*
Y5583D01*
X3045Y5415D02*
X3099Y5469D01*
X3115Y5305D02*
X3225Y5415D01*
X3010Y5305D02*
X3115D01*
X2715Y5815D02*
X4145D01*
X2470Y5570D02*
X2715Y5815D01*
X3225Y5695D02*
X3290Y5760D01*
X3225Y5415D02*
Y5695D01*
X3290Y5760D02*
X3938D01*
X4115Y5583D01*
X4145Y5815D02*
X4332Y5628D01*
X4700D01*
X4335Y4830D02*
Y4995D01*
X4145Y4830D02*
Y4995D01*
X6450Y5374D02*
X6706D01*
X3897Y5583D02*
X4335Y5145D01*
X3861Y5583D02*
X3897D01*
X3995Y5295D02*
X4145Y5145D01*
X3895Y5295D02*
X3995D01*
X3607Y5583D02*
X3895Y5295D01*
X6045Y5755D02*
X6045Y5755D01*
X4700Y5755D02*
X6045D01*
X6204Y2284D02*
X6205Y2285D01*
X5940Y2284D02*
X6204D01*
Y3050D02*
X6205Y3050D01*
X5940Y3050D02*
X6204D01*
X6210Y2585D02*
Y2885D01*
X6223Y980D02*
X6318Y1075D01*
X5760Y980D02*
X6223D01*
X6318Y1075D02*
X6320D01*
X6000Y2190D02*
X6185Y2005D01*
Y1208D02*
Y2005D01*
Y1208D02*
X6318Y1075D01*
X5820Y2190D02*
X6000D01*
X5750Y2260D02*
X5820Y2190D01*
X5750Y2260D02*
Y2485D01*
X5625Y845D02*
X5760Y980D01*
X5625Y425D02*
Y845D01*
X5750Y2485D02*
X5803Y2539D01*
X5940D01*
X7375Y3000D02*
Y5175D01*
X7305Y5245D02*
X7375Y5175D01*
X6820Y5245D02*
X7305D01*
X6485Y1005D02*
Y1655D01*
X6125Y645D02*
X6485Y1005D01*
X6125Y425D02*
Y645D01*
X1830Y4470D02*
Y4665D01*
Y4470D02*
X1920Y4380D01*
X2162D01*
X4340Y5745D02*
X4490D01*
X4215Y5870D02*
X4340Y5745D01*
X1310Y5870D02*
X4215D01*
X1174Y5734D02*
X1310Y5870D01*
X1174Y5578D02*
Y5734D01*
X6130Y2585D02*
X6210D01*
X6083Y2539D02*
X6130Y2585D01*
X5940Y2539D02*
X6083D01*
X6125Y3350D02*
X6210D01*
X6078Y3303D02*
X6125Y3350D01*
X5940Y3303D02*
X6078D01*
X4690Y5745D02*
X4700Y5755D01*
X4490Y5745D02*
X4690D01*
X2005Y155D02*
X2125Y275D01*
X1485Y155D02*
X2005D01*
X1270D02*
X1485D01*
X1245Y2545D02*
Y2735D01*
Y2010D02*
X1250Y2015D01*
Y2200D01*
X1245Y1820D02*
Y2010D01*
X855Y1430D02*
X1245Y1820D01*
X425Y1430D02*
X855D01*
X6450Y4485D02*
X6668D01*
X6450Y4866D02*
X6668D01*
X6450Y4993D02*
X6668D01*
X6450Y5247D02*
X6668D01*
X1498Y4380D02*
X1770D01*
X923D02*
X1498D01*
X585Y4530D02*
Y4800D01*
X720Y4935D01*
X1038D01*
X585Y4380D02*
X585Y4380D01*
X923D01*
X200Y1655D02*
Y4385D01*
X345Y4530D01*
X585D01*
X8665Y1700D02*
X8798D01*
X8732D01*
Y1500D01*
X8898D02*
X8965D01*
X8998Y1533D01*
Y1600D01*
X8965Y1633D01*
X8898D01*
X8865Y1600D01*
Y1533D01*
X8898Y1500D01*
X9065Y1433D02*
Y1633D01*
X9165D01*
X9198Y1600D01*
Y1533D01*
X9165Y1500D01*
X9065D01*
X9465Y1700D02*
Y1500D01*
X9598D01*
X9698Y1633D02*
X9765D01*
X9798Y1600D01*
Y1500D01*
X9698D01*
X9665Y1533D01*
X9698Y1567D01*
X9798D01*
X9865Y1633D02*
Y1533D01*
X9898Y1500D01*
X9998D01*
Y1467D01*
X9965Y1433D01*
X9931D01*
X9998Y1500D02*
Y1633D01*
X10165Y1500D02*
X10098D01*
X10065Y1533D01*
Y1600D01*
X10098Y1633D01*
X10165D01*
X10198Y1600D01*
Y1567D01*
X10065D01*
X10264Y1633D02*
Y1500D01*
Y1567D01*
X10298Y1600D01*
X10331Y1633D01*
X10364D01*
D28*
X6355Y2285D02*
Y2365D01*
X6308Y2411D02*
X6355Y2365D01*
X5940Y2411D02*
X6308D01*
X6550Y2465D02*
X6625Y2540D01*
X6550Y2365D02*
Y2465D01*
X6470Y2285D02*
X6550Y2365D01*
X6625Y2540D02*
X6835D01*
X6355Y2285D02*
X6470D01*
X6955Y1210D02*
Y1375D01*
X6495Y750D02*
X6955Y1210D01*
X6495Y435D02*
Y750D01*
X6255Y195D02*
X6495Y435D01*
X4795Y195D02*
X6255D01*
X4565Y425D02*
X4795Y195D01*
X3100Y645D02*
X3200D01*
X2995Y750D02*
X3100Y645D01*
X2995Y750D02*
Y940D01*
X3285Y470D02*
Y560D01*
X3200Y645D02*
X3285Y560D01*
Y275D02*
Y470D01*
X4245Y425D02*
X4565D01*
X4705Y565D01*
Y1075D01*
X4245Y425D02*
Y705D01*
X4010Y940D02*
X4245Y705D01*
X2995Y940D02*
X4010D01*
X6355Y3050D02*
X6790D01*
X6355D02*
Y3051D01*
X6229Y3176D02*
X6355Y3051D01*
X5940Y3176D02*
X6229D01*
X6790Y2785D02*
Y3050D01*
Y2785D02*
X6835Y2740D01*
Y2540D02*
Y2740D01*
Y1835D02*
Y2540D01*
Y1835D02*
X6955Y1715D01*
Y1375D02*
Y1715D01*
D29*
X7665Y0D02*
Y6000D01*
X0D02*
X7665D01*
X0Y0D02*
Y6000D01*
Y0D02*
X7665D01*
D30*
X8735Y5916D02*
Y5516D01*
X9002D01*
X9202Y5782D02*
X9335D01*
X9401Y5716D01*
Y5516D01*
X9202D01*
X9135Y5582D01*
X9202Y5649D01*
X9401D01*
X9535Y5782D02*
X9801D01*
X9535Y5516D01*
X9801D01*
X9935Y5782D02*
Y5582D01*
X10001Y5516D01*
X10201D01*
Y5449D01*
X10135Y5383D01*
X10068D01*
X10201Y5516D02*
Y5782D01*
X11001Y5849D02*
X10934Y5916D01*
X10801D01*
X10734Y5849D01*
Y5582D01*
X10801Y5516D01*
X10934D01*
X11001Y5582D01*
X11201Y5516D02*
X11334D01*
X11401Y5582D01*
Y5716D01*
X11334Y5782D01*
X11201D01*
X11134Y5716D01*
Y5582D01*
X11201Y5516D01*
X11534D02*
Y5782D01*
X11734D01*
X11801Y5716D01*
Y5516D01*
X12001Y5849D02*
Y5782D01*
X11934D01*
X12067D01*
X12001D01*
Y5582D01*
X12067Y5516D01*
X12267Y5782D02*
Y5516D01*
Y5649D01*
X12334Y5716D01*
X12400Y5782D01*
X12467D01*
X12734Y5516D02*
X12867D01*
X12934Y5582D01*
Y5716D01*
X12867Y5782D01*
X12734D01*
X12667Y5716D01*
Y5582D01*
X12734Y5516D01*
X13067D02*
X13200D01*
X13134D01*
Y5916D01*
X13067D01*
X13800D02*
Y5516D01*
X14000D01*
X14067Y5582D01*
Y5649D01*
X14000Y5716D01*
X13800D01*
X14000D01*
X14067Y5782D01*
Y5849D01*
X14000Y5916D01*
X13800D01*
X14267Y5516D02*
X14400D01*
X14466Y5582D01*
Y5716D01*
X14400Y5782D01*
X14267D01*
X14200Y5716D01*
Y5582D01*
X14267Y5516D01*
X14666Y5782D02*
X14800D01*
X14866Y5716D01*
Y5516D01*
X14666D01*
X14600Y5582D01*
X14666Y5649D01*
X14866D01*
X15000Y5782D02*
Y5516D01*
Y5649D01*
X15066Y5716D01*
X15133Y5782D01*
X15200D01*
X15666Y5916D02*
Y5516D01*
X15466D01*
X15400Y5582D01*
Y5716D01*
X15466Y5782D01*
X15666D01*
X8868Y4735D02*
X8735Y4868D01*
Y5001D01*
X8868Y5135D01*
X9068Y5001D02*
X9202Y4735D01*
X9335Y5001D01*
X9668Y4735D02*
X9535D01*
X9468Y4801D01*
Y4935D01*
X9535Y5001D01*
X9668D01*
X9735Y4935D01*
Y4868D01*
X9468D01*
X9868Y5001D02*
Y4735D01*
Y4868D01*
X9935Y4935D01*
X10001Y5001D01*
X10068D01*
X10268Y4735D02*
X10468D01*
X10534Y4801D01*
X10468Y4868D01*
X10334D01*
X10268Y4935D01*
X10334Y5001D01*
X10534D01*
X10668Y4735D02*
X10801D01*
X10734D01*
Y5001D01*
X10668D01*
X11068Y4735D02*
X11201D01*
X11268Y4801D01*
Y4935D01*
X11201Y5001D01*
X11068D01*
X11001Y4935D01*
Y4801D01*
X11068Y4735D01*
X11401D02*
Y5001D01*
X11601D01*
X11667Y4935D01*
Y4735D01*
X12201D02*
X12334D01*
X12267D01*
Y5135D01*
X12201Y5068D01*
X12534Y4735D02*
Y4801D01*
X12600D01*
Y4735D01*
X12534D01*
X12867Y5068D02*
X12934Y5135D01*
X13067D01*
X13134Y5068D01*
Y4801D01*
X13067Y4735D01*
X12934D01*
X12867Y4801D01*
Y5068D01*
X13667Y5001D02*
Y4735D01*
Y4868D01*
X13733Y4935D01*
X13800Y5001D01*
X13867D01*
X14267Y4735D02*
X14133D01*
X14067Y4801D01*
Y4935D01*
X14133Y5001D01*
X14267D01*
X14333Y4935D01*
Y4868D01*
X14067D01*
X14466Y5001D02*
X14600Y4735D01*
X14733Y5001D01*
X14866Y4735D02*
X15000D01*
X14933D01*
Y5001D01*
X14866D01*
X15200Y4735D02*
X15400D01*
X15466Y4801D01*
X15400Y4868D01*
X15266D01*
X15200Y4935D01*
X15266Y5001D01*
X15466D01*
X15599Y4735D02*
X15733D01*
X15666D01*
Y5001D01*
X15599D01*
X15999Y4735D02*
X16133D01*
X16199Y4801D01*
Y4935D01*
X16133Y5001D01*
X15999D01*
X15933Y4935D01*
Y4801D01*
X15999Y4735D01*
X16333D02*
Y5001D01*
X16532D01*
X16599Y4935D01*
Y4735D01*
X17399Y5068D02*
X17332Y5135D01*
X17199D01*
X17132Y5068D01*
Y4801D01*
X17199Y4735D01*
X17332D01*
X17399Y4801D01*
X17532Y4735D02*
X17665Y4868D01*
Y5001D01*
X17532Y5135D01*
X9002Y4420D02*
X8935Y4487D01*
X8802D01*
X8735Y4420D01*
Y4153D01*
X8802Y4087D01*
X8935D01*
X9002Y4153D01*
Y4287D01*
X8868D01*
X9401Y4420D02*
X9335Y4487D01*
X9202D01*
X9135Y4420D01*
Y4353D01*
X9202Y4287D01*
X9335D01*
X9401Y4220D01*
Y4153D01*
X9335Y4087D01*
X9202D01*
X9135Y4153D01*
X9735Y4087D02*
X9601D01*
X9535Y4153D01*
Y4287D01*
X9601Y4353D01*
X9735D01*
X9801Y4287D01*
Y4220D01*
X9535D01*
X9935Y3954D02*
Y4353D01*
X10135D01*
X10201Y4287D01*
Y4153D01*
X10135Y4087D01*
X9935D01*
X10334Y4487D02*
Y4087D01*
Y4287D01*
X10401Y4353D01*
X10534D01*
X10601Y4287D01*
Y4087D01*
X11001Y4487D02*
X10734D01*
Y4087D01*
X11001D01*
X10734Y4287D02*
X10868D01*
X11134Y4087D02*
X11268D01*
X11201D01*
Y4487D01*
X11134D01*
X11667Y4087D02*
X11534D01*
X11467Y4153D01*
Y4287D01*
X11534Y4353D01*
X11667D01*
X11734Y4287D01*
Y4220D01*
X11467D01*
X12134Y4353D02*
X11934D01*
X11867Y4287D01*
Y4153D01*
X11934Y4087D01*
X12134D01*
X9002Y3639D02*
X8935Y3706D01*
X8802D01*
X8735Y3639D01*
Y3372D01*
X8802Y3306D01*
X8935D01*
X9002Y3372D01*
Y3506D01*
X8868D01*
X9335Y3306D02*
X9202D01*
X9135Y3372D01*
Y3506D01*
X9202Y3572D01*
X9335D01*
X9401Y3506D01*
Y3439D01*
X9135D01*
X9601Y3306D02*
X9735D01*
X9801Y3372D01*
Y3506D01*
X9735Y3572D01*
X9601D01*
X9535Y3506D01*
Y3372D01*
X9601Y3306D01*
X9935Y3572D02*
Y3306D01*
Y3439D01*
X10001Y3506D01*
X10068Y3572D01*
X10135D01*
X10468Y3172D02*
X10534D01*
X10601Y3239D01*
Y3572D01*
X10401D01*
X10334Y3506D01*
Y3372D01*
X10401Y3306D01*
X10601D01*
X10934D02*
X10801D01*
X10734Y3372D01*
Y3506D01*
X10801Y3572D01*
X10934D01*
X11001Y3506D01*
Y3439D01*
X10734D01*
X11801Y3639D02*
X11734Y3706D01*
X11601D01*
X11534Y3639D01*
Y3572D01*
X11601Y3506D01*
X11734D01*
X11801Y3439D01*
Y3372D01*
X11734Y3306D01*
X11601D01*
X11534Y3372D01*
X12134Y3306D02*
X12001D01*
X11934Y3372D01*
Y3506D01*
X12001Y3572D01*
X12134D01*
X12201Y3506D01*
Y3439D01*
X11934D01*
X12334Y3172D02*
Y3572D01*
X12534D01*
X12600Y3506D01*
Y3372D01*
X12534Y3306D01*
X12334D01*
X12734Y3706D02*
Y3306D01*
Y3506D01*
X12800Y3572D01*
X12934D01*
X13000Y3506D01*
Y3306D01*
X13200Y3639D02*
Y3572D01*
X13134D01*
X13267D01*
X13200D01*
Y3372D01*
X13267Y3306D01*
X13533D02*
X13667D01*
X13733Y3372D01*
Y3506D01*
X13667Y3572D01*
X13533D01*
X13467Y3506D01*
Y3372D01*
X13533Y3306D01*
X13867D02*
Y3572D01*
X14067D01*
X14133Y3506D01*
Y3306D01*
X9002Y2525D02*
X8735D01*
X9002Y2791D01*
Y2858D01*
X8935Y2924D01*
X8802D01*
X8735Y2858D01*
X9135D02*
X9202Y2924D01*
X9335D01*
X9401Y2858D01*
Y2791D01*
X9335Y2724D01*
X9401Y2658D01*
Y2591D01*
X9335Y2525D01*
X9202D01*
X9135Y2591D01*
Y2658D01*
X9202Y2724D01*
X9135Y2791D01*
Y2858D01*
X9202Y2724D02*
X9335D01*
X9535Y2525D02*
X9801Y2791D01*
X9935Y2858D02*
X10001Y2924D01*
X10135D01*
X10201Y2858D01*
Y2591D01*
X10135Y2525D01*
X10001D01*
X9935Y2591D01*
Y2858D01*
X10601Y2924D02*
X10334D01*
Y2724D01*
X10468Y2791D01*
X10534D01*
X10601Y2724D01*
Y2591D01*
X10534Y2525D01*
X10401D01*
X10334Y2591D01*
X10734Y2525D02*
X11001Y2791D01*
X11401Y2525D02*
X11134D01*
X11401Y2791D01*
Y2858D01*
X11334Y2924D01*
X11201D01*
X11134Y2858D01*
X11534D02*
X11601Y2924D01*
X11734D01*
X11801Y2858D01*
Y2591D01*
X11734Y2525D01*
X11601D01*
X11534Y2591D01*
Y2858D01*
X12201Y2525D02*
X11934D01*
X12201Y2791D01*
Y2858D01*
X12134Y2924D01*
X12001D01*
X11934Y2858D01*
X12334Y2525D02*
X12467D01*
X12400D01*
Y2924D01*
X12334Y2858D01*
D31*
X300Y300D02*
D03*
Y5700D02*
D03*
X7365D02*
D03*
Y300D02*
D03*
D32*
X1428Y5578D02*
D03*
X1174D02*
D03*
X1682D02*
D03*
X1936D02*
D03*
X2190D02*
D03*
X3353Y5583D02*
D03*
X3099D02*
D03*
X3607D02*
D03*
X3861D02*
D03*
X4115D02*
D03*
D33*
X920Y5578D02*
D03*
X2845Y5583D02*
D03*
D34*
X425Y3045D02*
D03*
X425Y1430D02*
D03*
Y930D02*
D03*
X4245Y425D02*
D03*
X5625Y425D02*
D03*
X6125D02*
D03*
D35*
X425Y3545D02*
D03*
X425Y1930D02*
D03*
D36*
X2379Y275D02*
D03*
X2125D02*
D03*
D37*
X1871D02*
D03*
D38*
X3745Y425D02*
D03*
X5125Y425D02*
D03*
D39*
X6955Y1375D02*
D03*
Y795D02*
D03*
D40*
X7435Y1075D02*
D03*
D41*
X7195Y5350D02*
D03*
X4320Y4625D02*
D03*
X6870Y5445D02*
D03*
X6590Y3885D02*
D03*
X7285Y5115D02*
D03*
X6635Y4140D02*
D03*
X6706Y5501D02*
D03*
X6955Y3885D02*
D03*
X6770D02*
D03*
X7060Y5130D02*
D03*
X7200Y3635D02*
D03*
X7200Y4875D02*
D03*
X2470Y5570D02*
D03*
Y4725D02*
D03*
X4335Y4830D02*
D03*
X4145D02*
D03*
X6706Y5374D02*
D03*
X6045Y5755D02*
D03*
X6210Y2885D02*
D03*
X7375Y3000D02*
D03*
X6485Y1655D02*
D03*
M02*
