G04 Layer_Color=32896*
%FSLAX42Y42*%
%MOMM*%
G71*
G01*
G75*
%ADD27C,0.30*%
%ADD29C,0.20*%
%ADD30C,0.70*%
G36*
X5683Y5569D02*
X5688Y5568D01*
X5693Y5567D01*
X5697Y5565D01*
X5700Y5564D01*
X5703Y5562D01*
X5704Y5561D01*
X5705Y5560D01*
X5708Y5557D01*
X5710Y5554D01*
X5712Y5550D01*
X5713Y5547D01*
X5714Y5544D01*
X5714Y5541D01*
Y5540D01*
Y5539D01*
X5714Y5535D01*
X5713Y5530D01*
X5712Y5527D01*
X5711Y5524D01*
X5710Y5522D01*
X5709Y5521D01*
X5708Y5520D01*
Y5520D01*
X5705Y5517D01*
X5702Y5515D01*
X5693Y5512D01*
X5690Y5510D01*
X5687Y5510D01*
X5685Y5509D01*
X5684D01*
X5674Y5506D01*
X5668Y5504D01*
X5664Y5502D01*
X5660Y5501D01*
X5657Y5499D01*
X5655Y5498D01*
X5653Y5497D01*
X5652Y5496D01*
X5652D01*
X5649Y5492D01*
X5647Y5487D01*
X5647Y5485D01*
Y5483D01*
Y5482D01*
Y5482D01*
X5647Y5478D01*
X5648Y5475D01*
X5651Y5470D01*
X5652Y5468D01*
X5653Y5466D01*
X5654Y5466D01*
X5655Y5465D01*
X5658Y5463D01*
X5662Y5462D01*
X5668Y5460D01*
X5671Y5460D01*
X5673Y5459D01*
X5675D01*
X5680Y5460D01*
X5685Y5461D01*
X5689Y5462D01*
X5692Y5463D01*
X5695Y5465D01*
X5697Y5466D01*
X5698Y5467D01*
X5698Y5467D01*
X5701Y5470D01*
X5703Y5474D01*
X5705Y5478D01*
X5706Y5481D01*
X5706Y5484D01*
X5707Y5486D01*
Y5488D01*
Y5488D01*
X5717D01*
Y5487D01*
X5716Y5481D01*
X5715Y5475D01*
X5714Y5471D01*
X5712Y5467D01*
X5710Y5464D01*
X5708Y5462D01*
X5707Y5461D01*
X5707Y5460D01*
X5702Y5457D01*
X5697Y5455D01*
X5692Y5453D01*
X5687Y5452D01*
X5682Y5451D01*
X5679Y5451D01*
X5675D01*
X5668Y5451D01*
X5663Y5452D01*
X5658Y5453D01*
X5654Y5455D01*
X5651Y5457D01*
X5649Y5458D01*
X5647Y5459D01*
X5647Y5459D01*
X5643Y5463D01*
X5640Y5466D01*
X5639Y5470D01*
X5637Y5474D01*
X5637Y5478D01*
X5636Y5480D01*
Y5482D01*
Y5483D01*
X5637Y5487D01*
X5638Y5491D01*
X5639Y5494D01*
X5640Y5497D01*
X5642Y5500D01*
X5644Y5502D01*
X5645Y5503D01*
X5645Y5503D01*
X5649Y5507D01*
X5653Y5509D01*
X5661Y5513D01*
X5665Y5514D01*
X5669Y5515D01*
X5671Y5516D01*
X5672D01*
X5685Y5519D01*
X5691Y5521D01*
X5696Y5523D01*
X5698Y5525D01*
X5699Y5526D01*
X5702Y5530D01*
X5703Y5534D01*
X5704Y5537D01*
Y5538D01*
Y5538D01*
X5703Y5542D01*
X5703Y5545D01*
X5700Y5550D01*
X5699Y5552D01*
X5698Y5554D01*
X5697Y5554D01*
X5697Y5555D01*
X5694Y5556D01*
X5691Y5557D01*
X5685Y5559D01*
X5682Y5559D01*
X5678D01*
X5673Y5559D01*
X5669Y5558D01*
X5666Y5557D01*
X5663Y5556D01*
X5661Y5555D01*
X5659Y5554D01*
X5658Y5553D01*
X5658Y5553D01*
X5655Y5550D01*
X5653Y5547D01*
X5652Y5544D01*
X5651Y5541D01*
X5651Y5539D01*
X5650Y5537D01*
Y5535D01*
Y5535D01*
X5640D01*
X5640Y5540D01*
X5641Y5545D01*
X5643Y5550D01*
X5645Y5553D01*
X5647Y5556D01*
X5649Y5558D01*
X5650Y5559D01*
X5650Y5559D01*
X5654Y5563D01*
X5659Y5566D01*
X5663Y5567D01*
X5668Y5569D01*
X5672Y5569D01*
X5675Y5570D01*
X5678D01*
X5683Y5569D01*
D02*
G37*
G36*
X5884Y5536D02*
X5889Y5535D01*
X5894Y5533D01*
X5898Y5531D01*
X5901Y5529D01*
X5903Y5527D01*
X5905Y5526D01*
X5905Y5526D01*
X5908Y5521D01*
X5911Y5516D01*
X5912Y5511D01*
X5914Y5506D01*
X5914Y5501D01*
X5915Y5497D01*
Y5495D01*
Y5494D01*
X5914Y5487D01*
X5913Y5481D01*
X5912Y5475D01*
X5910Y5471D01*
X5908Y5467D01*
X5907Y5465D01*
X5906Y5463D01*
X5905Y5463D01*
X5901Y5459D01*
X5897Y5456D01*
X5892Y5454D01*
X5888Y5453D01*
X5884Y5452D01*
X5881Y5452D01*
X5878D01*
X5872Y5452D01*
X5866Y5453D01*
X5861Y5455D01*
X5857Y5457D01*
X5854Y5459D01*
X5852Y5461D01*
X5851Y5462D01*
X5850Y5463D01*
X5847Y5467D01*
X5845Y5472D01*
X5843Y5478D01*
X5842Y5483D01*
X5841Y5487D01*
X5840Y5491D01*
Y5493D01*
Y5494D01*
X5841Y5501D01*
X5842Y5507D01*
X5844Y5513D01*
X5845Y5517D01*
X5847Y5521D01*
X5849Y5524D01*
X5850Y5525D01*
X5850Y5526D01*
X5854Y5529D01*
X5859Y5532D01*
X5863Y5534D01*
X5867Y5535D01*
X5872Y5536D01*
X5875Y5537D01*
X5878D01*
X5884Y5536D01*
D02*
G37*
G36*
X5357Y5429D02*
X5339D01*
Y5435D01*
X5357D01*
Y5429D01*
D02*
G37*
G36*
X5391Y5415D02*
X5385D01*
Y5419D01*
X5384Y5417D01*
X5383Y5416D01*
X5381Y5416D01*
X5379Y5415D01*
X5378Y5415D01*
X5377Y5414D01*
X5376D01*
X5374Y5415D01*
X5372Y5415D01*
X5370Y5416D01*
X5368Y5417D01*
X5367Y5418D01*
X5367Y5418D01*
X5366Y5419D01*
X5366Y5419D01*
X5364Y5421D01*
X5363Y5423D01*
X5363Y5426D01*
X5362Y5427D01*
X5362Y5429D01*
X5362Y5431D01*
Y5432D01*
Y5432D01*
Y5435D01*
X5362Y5437D01*
X5362Y5439D01*
X5362Y5439D01*
X5363Y5441D01*
X5364Y5443D01*
X5365Y5444D01*
X5365Y5445D01*
X5367Y5446D01*
X5368Y5447D01*
X5369Y5448D01*
X5370Y5448D01*
X5372Y5449D01*
X5374Y5449D01*
X5375Y5450D01*
X5376D01*
X5378Y5449D01*
X5380Y5449D01*
X5382Y5447D01*
X5383Y5446D01*
X5384Y5446D01*
X5385Y5445D01*
X5385Y5445D01*
Y5462D01*
X5391D01*
Y5415D01*
D02*
G37*
G36*
X6010Y5454D02*
X6000D01*
Y5503D01*
X5962D01*
X5958Y5503D01*
X5955Y5502D01*
X5953Y5502D01*
X5951Y5501D01*
X5950Y5500D01*
X5949Y5500D01*
X5948Y5497D01*
X5946Y5495D01*
X5945Y5488D01*
X5944Y5485D01*
Y5483D01*
X5943Y5481D01*
Y5480D01*
X5942Y5465D01*
Y5463D01*
Y5462D01*
Y5461D01*
X5942Y5459D01*
Y5459D01*
X5941Y5456D01*
X5941Y5455D01*
X5940Y5454D01*
X5929D01*
Y5455D01*
X5930Y5456D01*
X5931Y5458D01*
X5931Y5459D01*
Y5459D01*
Y5461D01*
X5932Y5462D01*
X5932Y5464D01*
Y5465D01*
Y5465D01*
X5934Y5483D01*
X5935Y5488D01*
X5935Y5492D01*
X5936Y5495D01*
X5936Y5498D01*
X5937Y5499D01*
X5937Y5501D01*
X5938Y5502D01*
X5941Y5504D01*
X5944Y5507D01*
X5947Y5508D01*
X5947Y5509D01*
X5948D01*
X5942Y5511D01*
X5938Y5514D01*
X5935Y5517D01*
X5935Y5518D01*
X5934Y5518D01*
X5932Y5525D01*
X5930Y5530D01*
X5930Y5533D01*
Y5535D01*
Y5536D01*
Y5537D01*
X5930Y5542D01*
X5931Y5547D01*
X5933Y5550D01*
X5933Y5551D01*
Y5551D01*
X5937Y5555D01*
X5940Y5559D01*
X5942Y5561D01*
X5943Y5561D01*
X5943D01*
X5946Y5563D01*
X5950Y5564D01*
X5953Y5565D01*
X5954D01*
X5956Y5566D01*
X5958D01*
X5964Y5566D01*
X6010D01*
Y5454D01*
D02*
G37*
G36*
X5668Y5865D02*
X5672Y5864D01*
X5674Y5862D01*
X5675Y5862D01*
X5675D01*
X5677Y5861D01*
X5678Y5860D01*
X5680Y5859D01*
X5681Y5858D01*
X5689Y5853D01*
X5698Y5847D01*
X5715Y5835D01*
X5730Y5823D01*
X5738Y5816D01*
X5744Y5810D01*
X5751Y5805D01*
X5757Y5799D01*
X5762Y5795D01*
X5766Y5791D01*
X5769Y5787D01*
X5772Y5784D01*
X5773Y5783D01*
X5774Y5782D01*
X5791Y5765D01*
X5806Y5747D01*
X5819Y5732D01*
X5825Y5724D01*
X5830Y5717D01*
X5835Y5711D01*
X5839Y5706D01*
X5843Y5700D01*
X5846Y5696D01*
X5849Y5693D01*
X5850Y5691D01*
X5851Y5689D01*
X5852Y5689D01*
X5857Y5681D01*
X5862Y5674D01*
X5866Y5668D01*
X5870Y5663D01*
X5873Y5659D01*
X5875Y5655D01*
X5877Y5653D01*
X5879Y5650D01*
X5880Y5648D01*
X5881Y5647D01*
X5882Y5645D01*
X5883Y5644D01*
X5883Y5645D01*
X5884Y5647D01*
X5885Y5650D01*
X5887Y5653D01*
X5888Y5656D01*
X5889Y5659D01*
X5890Y5661D01*
X5891Y5661D01*
X5898Y5674D01*
X5901Y5680D01*
X5904Y5686D01*
X5907Y5691D01*
X5909Y5694D01*
X5910Y5696D01*
X5911Y5697D01*
X5913Y5701D01*
X5916Y5704D01*
X5922Y5708D01*
X5924Y5709D01*
X5927Y5710D01*
X5928Y5711D01*
X5928D01*
X5933Y5712D01*
X5938Y5711D01*
X5942Y5709D01*
X5947Y5706D01*
X5951Y5704D01*
X5954Y5701D01*
X5956Y5699D01*
X5957Y5698D01*
X5963Y5693D01*
X5967Y5689D01*
X5970Y5687D01*
X5972Y5685D01*
X5973Y5684D01*
X5973Y5683D01*
X5974Y5683D01*
X5970Y5682D01*
X5966Y5681D01*
X5962Y5678D01*
X5958Y5674D01*
X5955Y5670D01*
X5950Y5665D01*
X5943Y5655D01*
X5937Y5643D01*
X5934Y5638D01*
X5932Y5634D01*
X5930Y5630D01*
X5929Y5627D01*
X5928Y5625D01*
X5928Y5625D01*
X5923Y5614D01*
X5919Y5605D01*
X5915Y5597D01*
X5912Y5590D01*
X5910Y5584D01*
X5908Y5580D01*
X5906Y5576D01*
X5904Y5573D01*
X5903Y5570D01*
X5903Y5568D01*
X5902Y5567D01*
X5902Y5566D01*
X5901Y5565D01*
X5853Y5602D01*
X5850Y5609D01*
X5847Y5616D01*
X5839Y5631D01*
X5831Y5647D01*
X5823Y5661D01*
X5819Y5667D01*
X5815Y5673D01*
X5811Y5679D01*
X5808Y5683D01*
X5806Y5687D01*
X5804Y5690D01*
X5803Y5692D01*
X5803Y5692D01*
X5789Y5712D01*
X5774Y5731D01*
X5767Y5740D01*
X5761Y5748D01*
X5754Y5756D01*
X5748Y5764D01*
X5742Y5770D01*
X5737Y5776D01*
X5732Y5781D01*
X5728Y5786D01*
X5725Y5790D01*
X5722Y5792D01*
X5721Y5794D01*
X5720Y5794D01*
X5713Y5802D01*
X5706Y5810D01*
X5698Y5817D01*
X5692Y5824D01*
X5687Y5829D01*
X5683Y5833D01*
X5680Y5835D01*
X5679Y5836D01*
X5675Y5840D01*
X5672Y5843D01*
X5666Y5848D01*
X5662Y5852D01*
X5660Y5854D01*
X5658Y5856D01*
X5658Y5856D01*
X5657Y5857D01*
X5658Y5857D01*
X5659Y5859D01*
X5660Y5860D01*
X5660Y5861D01*
X5662Y5864D01*
X5663Y5865D01*
X5664Y5866D01*
Y5867D01*
X5668Y5865D01*
D02*
G37*
G36*
X5822Y5454D02*
X5811D01*
Y5508D01*
X5747D01*
Y5454D01*
X5737D01*
Y5566D01*
X5747D01*
Y5518D01*
X5811D01*
Y5566D01*
X5822D01*
Y5454D01*
D02*
G37*
G36*
X6342Y5901D02*
X6346Y5900D01*
X6351Y5899D01*
X6354Y5898D01*
X6358Y5896D01*
X6360Y5895D01*
X6361Y5895D01*
X6362Y5894D01*
X6363Y5893D01*
X6365Y5893D01*
X6365Y5892D01*
X6369Y5889D01*
X6372Y5887D01*
X6374Y5884D01*
X6376Y5881D01*
X6378Y5879D01*
X6379Y5877D01*
X6380Y5876D01*
X6380Y5875D01*
X6576Y5537D01*
X6576D01*
X6576Y5537D01*
Y5536D01*
Y5536D01*
X6578Y5533D01*
X6579Y5531D01*
X6579Y5530D01*
X6579Y5529D01*
X6580Y5529D01*
X6580Y5528D01*
X6581Y5525D01*
X6581Y5523D01*
X6581Y5523D01*
Y5522D01*
X6582Y5516D01*
X6582Y5509D01*
X6581Y5503D01*
X6580Y5498D01*
X6579Y5494D01*
X6577Y5490D01*
X6577Y5489D01*
X6576Y5488D01*
X6576Y5488D01*
Y5487D01*
Y5487D01*
X6574Y5485D01*
X6573Y5483D01*
X6572Y5482D01*
X6571Y5481D01*
X6570Y5479D01*
X6568Y5477D01*
X6567Y5476D01*
X6566Y5476D01*
X6563Y5473D01*
X6560Y5471D01*
X6555Y5468D01*
X6549Y5465D01*
X6544Y5464D01*
X6539Y5463D01*
X6535Y5463D01*
X6534Y5462D01*
X6140D01*
X6137Y5463D01*
X6135Y5463D01*
X6133Y5463D01*
X6133D01*
X6131Y5463D01*
X6128Y5464D01*
X6126Y5464D01*
X6126Y5465D01*
X6126D01*
X6119Y5467D01*
X6114Y5471D01*
X6109Y5475D01*
X6105Y5478D01*
X6102Y5482D01*
X6100Y5485D01*
X6098Y5487D01*
X6098Y5487D01*
Y5487D01*
X6098D01*
X6096Y5490D01*
X6095Y5493D01*
X6095Y5494D01*
X6094Y5494D01*
X6093Y5497D01*
X6093Y5499D01*
X6092Y5501D01*
Y5501D01*
X6092Y5505D01*
X6091Y5509D01*
Y5515D01*
X6092Y5521D01*
X6094Y5527D01*
X6095Y5531D01*
X6097Y5535D01*
X6097Y5536D01*
X6098Y5537D01*
X6098Y5538D01*
Y5538D01*
X6294Y5876D01*
X6295Y5879D01*
X6296Y5881D01*
X6297Y5882D01*
X6298Y5883D01*
X6299Y5884D01*
X6301Y5886D01*
X6302Y5887D01*
X6303Y5888D01*
X6303D01*
X6308Y5892D01*
X6314Y5896D01*
X6320Y5898D01*
X6325Y5899D01*
X6330Y5900D01*
X6333Y5901D01*
X6335Y5901D01*
X6337D01*
X6342Y5901D01*
D02*
G37*
G36*
X5342Y5937D02*
X5351Y5936D01*
X5359Y5935D01*
X5368Y5934D01*
X5376Y5932D01*
X5384Y5931D01*
X5399Y5926D01*
X5414Y5921D01*
X5427Y5915D01*
X5440Y5909D01*
X5446Y5906D01*
X5451Y5903D01*
X5456Y5900D01*
X5461Y5896D01*
X5466Y5893D01*
X5471Y5890D01*
X5475Y5887D01*
X5479Y5884D01*
X5482Y5882D01*
X5485Y5879D01*
X5488Y5877D01*
X5490Y5875D01*
X5493Y5873D01*
X5494Y5872D01*
X5496Y5870D01*
X5496Y5869D01*
X5497Y5869D01*
X5497Y5869D01*
X5503Y5862D01*
X5509Y5856D01*
X5514Y5849D01*
X5520Y5842D01*
X5524Y5835D01*
X5529Y5828D01*
X5533Y5821D01*
X5536Y5814D01*
X5540Y5807D01*
X5543Y5800D01*
X5548Y5787D01*
X5553Y5774D01*
X5556Y5761D01*
X5559Y5749D01*
X5561Y5744D01*
X5561Y5738D01*
X5562Y5734D01*
X5563Y5729D01*
X5564Y5725D01*
X5564Y5721D01*
X5564Y5717D01*
X5564Y5714D01*
X5565Y5711D01*
Y5709D01*
X5565Y5707D01*
Y5706D01*
Y5705D01*
Y5705D01*
X5565Y5696D01*
X5564Y5687D01*
X5563Y5678D01*
X5562Y5670D01*
X5561Y5662D01*
X5559Y5654D01*
X5554Y5638D01*
X5549Y5624D01*
X5544Y5610D01*
X5538Y5598D01*
X5534Y5592D01*
X5531Y5586D01*
X5528Y5581D01*
X5525Y5576D01*
X5522Y5571D01*
X5519Y5567D01*
X5516Y5563D01*
X5513Y5559D01*
X5510Y5555D01*
X5508Y5552D01*
X5506Y5550D01*
X5503Y5547D01*
X5502Y5545D01*
X5500Y5543D01*
X5499Y5542D01*
X5498Y5541D01*
X5498Y5540D01*
X5497Y5540D01*
X5491Y5534D01*
X5484Y5528D01*
X5478Y5523D01*
X5471Y5518D01*
X5464Y5513D01*
X5457Y5509D01*
X5450Y5505D01*
X5443Y5501D01*
X5436Y5497D01*
X5429Y5494D01*
X5415Y5489D01*
X5402Y5484D01*
X5390Y5481D01*
X5378Y5478D01*
X5372Y5477D01*
X5367Y5476D01*
X5362Y5475D01*
X5357Y5474D01*
X5353Y5474D01*
X5349Y5473D01*
X5345Y5473D01*
X5342Y5473D01*
X5340Y5472D01*
X5337D01*
X5335Y5472D01*
X5333D01*
X5324Y5472D01*
X5315Y5473D01*
X5307Y5474D01*
X5298Y5475D01*
X5290Y5477D01*
X5282Y5479D01*
X5267Y5483D01*
X5252Y5488D01*
X5239Y5494D01*
X5226Y5500D01*
X5220Y5503D01*
X5215Y5506D01*
X5210Y5509D01*
X5205Y5512D01*
X5200Y5516D01*
X5195Y5519D01*
X5191Y5522D01*
X5187Y5524D01*
X5184Y5527D01*
X5181Y5530D01*
X5178Y5532D01*
X5176Y5534D01*
X5174Y5536D01*
X5172Y5537D01*
X5170Y5539D01*
X5170Y5539D01*
X5169Y5540D01*
X5169Y5540D01*
X5163Y5547D01*
X5157Y5553D01*
X5151Y5560D01*
X5146Y5567D01*
X5142Y5574D01*
X5137Y5581D01*
X5133Y5588D01*
X5129Y5595D01*
X5126Y5602D01*
X5123Y5608D01*
X5117Y5622D01*
X5113Y5635D01*
X5109Y5648D01*
X5106Y5660D01*
X5105Y5665D01*
X5104Y5670D01*
X5103Y5675D01*
X5102Y5680D01*
X5102Y5685D01*
X5102Y5688D01*
X5101Y5692D01*
X5101Y5695D01*
X5101Y5698D01*
X5101Y5700D01*
Y5702D01*
Y5703D01*
Y5704D01*
Y5705D01*
X5101Y5713D01*
X5101Y5722D01*
X5102Y5731D01*
X5104Y5739D01*
X5105Y5747D01*
X5107Y5755D01*
X5111Y5771D01*
X5116Y5785D01*
X5122Y5799D01*
X5128Y5811D01*
X5131Y5817D01*
X5135Y5823D01*
X5138Y5828D01*
X5141Y5833D01*
X5144Y5838D01*
X5147Y5842D01*
X5150Y5846D01*
X5153Y5850D01*
X5156Y5853D01*
X5158Y5856D01*
X5161Y5859D01*
X5162Y5862D01*
X5164Y5864D01*
X5166Y5866D01*
X5167Y5867D01*
X5168Y5868D01*
X5169Y5868D01*
X5169Y5869D01*
X5175Y5875D01*
X5182Y5881D01*
X5189Y5886D01*
X5195Y5891D01*
X5202Y5896D01*
X5209Y5900D01*
X5216Y5904D01*
X5223Y5908D01*
X5230Y5912D01*
X5237Y5915D01*
X5251Y5920D01*
X5264Y5925D01*
X5276Y5928D01*
X5288Y5931D01*
X5294Y5932D01*
X5299Y5933D01*
X5304Y5934D01*
X5308Y5935D01*
X5313Y5936D01*
X5317Y5936D01*
X5320Y5936D01*
X5323Y5936D01*
X5326Y5937D01*
X5329Y5937D01*
X5333D01*
X5342Y5937D01*
D02*
G37*
G36*
X5433Y5415D02*
X5427D01*
Y5434D01*
X5415D01*
X5412Y5434D01*
X5409Y5435D01*
X5406Y5435D01*
X5405Y5436D01*
X5403Y5437D01*
X5402Y5437D01*
X5402Y5438D01*
X5401Y5438D01*
X5400Y5440D01*
X5399Y5441D01*
X5398Y5445D01*
X5398Y5446D01*
X5398Y5447D01*
Y5448D01*
Y5448D01*
X5398Y5451D01*
X5398Y5453D01*
X5399Y5454D01*
X5399Y5454D01*
X5400Y5456D01*
X5401Y5458D01*
X5403Y5459D01*
X5403Y5459D01*
X5405Y5460D01*
X5407Y5461D01*
X5408Y5461D01*
X5409D01*
X5411Y5461D01*
X5413Y5462D01*
X5433D01*
Y5415D01*
D02*
G37*
G36*
X5077Y5892D02*
X4983Y5794D01*
X4981Y5768D01*
X4975Y5704D01*
X4970Y5658D01*
X5071Y5554D01*
X5064Y5547D01*
X4969Y5645D01*
X4964Y5585D01*
X4961D01*
Y5562D01*
X4940D01*
Y5585D01*
X4874D01*
X4872Y5580D01*
X4869Y5576D01*
X4864Y5571D01*
X4858Y5567D01*
X4851Y5565D01*
X4844Y5564D01*
X4837Y5564D01*
X4832Y5565D01*
X4827Y5568D01*
X4822Y5571D01*
X4818Y5575D01*
X4814Y5580D01*
X4811Y5587D01*
X4809Y5592D01*
X4809Y5597D01*
X4809Y5603D01*
X4810Y5607D01*
X4812Y5612D01*
X4814Y5616D01*
X4817Y5620D01*
X4821Y5624D01*
X4825Y5627D01*
X4829Y5628D01*
X4828Y5633D01*
X4745Y5547D01*
X4739Y5554D01*
X4828Y5647D01*
X4820Y5727D01*
X4815Y5785D01*
X4789D01*
Y5823D01*
X4796D01*
X4728Y5892D01*
X4735Y5899D01*
X4799Y5833D01*
Y5838D01*
X4797Y5839D01*
X4796Y5840D01*
X4794Y5842D01*
X4792Y5844D01*
X4792Y5846D01*
X4791Y5849D01*
X4790Y5851D01*
X4791Y5855D01*
X4792Y5857D01*
X4794Y5861D01*
X4797Y5863D01*
X4801Y5865D01*
X4805Y5866D01*
X4808Y5865D01*
X4812Y5864D01*
X4815Y5862D01*
X4816Y5860D01*
X4818Y5863D01*
X4823Y5865D01*
X4828Y5868D01*
X4835Y5871D01*
X4843Y5873D01*
X4850Y5874D01*
X4859Y5876D01*
X4865Y5877D01*
Y5885D01*
X4919D01*
Y5878D01*
X4923D01*
X4930Y5877D01*
X4937Y5876D01*
X4944Y5875D01*
Y5879D01*
X4967D01*
Y5869D01*
X4970Y5867D01*
X4973Y5866D01*
X4978Y5863D01*
X4981Y5861D01*
X4984Y5858D01*
X4986Y5856D01*
X4988Y5854D01*
X4989Y5852D01*
X4988Y5848D01*
X5001D01*
Y5831D01*
X4987D01*
X4984Y5809D01*
X5071Y5899D01*
X5077Y5892D01*
D02*
G37*
G36*
X5325Y5462D02*
X5327Y5462D01*
X5328Y5461D01*
X5328Y5461D01*
X5329Y5460D01*
X5330Y5459D01*
X5330Y5458D01*
X5331Y5457D01*
X5331Y5456D01*
X5332Y5454D01*
Y5453D01*
Y5453D01*
Y5452D01*
Y5449D01*
X5337D01*
Y5444D01*
X5332D01*
Y5415D01*
X5326D01*
Y5444D01*
X5319D01*
Y5449D01*
X5326D01*
Y5452D01*
X5325Y5454D01*
X5325Y5455D01*
X5325Y5456D01*
X5325Y5456D01*
X5323Y5457D01*
X5322Y5457D01*
X5319D01*
X5318Y5457D01*
X5318D01*
X5317Y5462D01*
X5319Y5462D01*
X5320Y5462D01*
X5322D01*
X5325Y5462D01*
D02*
G37*
G36*
X5057Y5471D02*
Y5469D01*
Y5467D01*
Y5465D01*
Y5463D01*
Y5461D01*
Y5460D01*
Y5459D01*
Y5459D01*
Y5450D01*
Y5446D01*
Y5441D01*
Y5438D01*
Y5435D01*
Y5434D01*
Y5433D01*
Y5433D01*
Y5433D01*
Y5427D01*
Y5423D01*
Y5418D01*
Y5414D01*
Y5411D01*
Y5409D01*
Y5407D01*
Y5407D01*
Y5407D01*
Y5403D01*
Y5400D01*
Y5398D01*
Y5396D01*
Y5396D01*
Y5395D01*
Y5395D01*
X4754D01*
Y5396D01*
Y5397D01*
Y5399D01*
Y5401D01*
Y5403D01*
Y5405D01*
Y5406D01*
Y5407D01*
Y5416D01*
Y5420D01*
Y5424D01*
Y5428D01*
Y5430D01*
Y5431D01*
Y5432D01*
Y5432D01*
Y5433D01*
Y5438D01*
Y5443D01*
Y5447D01*
Y5451D01*
Y5455D01*
Y5457D01*
Y5459D01*
Y5459D01*
Y5461D01*
Y5463D01*
Y5466D01*
Y5468D01*
Y5470D01*
Y5471D01*
Y5471D01*
Y5471D01*
X5057D01*
Y5471D01*
D02*
G37*
G36*
X5304Y5449D02*
X5305Y5449D01*
X5306Y5449D01*
X5306Y5449D01*
X5307Y5447D01*
X5308Y5446D01*
X5309Y5444D01*
X5310Y5444D01*
Y5449D01*
X5315D01*
Y5415D01*
X5309D01*
Y5433D01*
X5309Y5436D01*
X5308Y5437D01*
X5308Y5439D01*
X5308Y5439D01*
X5307Y5441D01*
X5307Y5442D01*
X5306Y5442D01*
X5306Y5442D01*
X5305Y5443D01*
X5304Y5444D01*
X5303D01*
X5301Y5443D01*
X5300Y5443D01*
X5299Y5443D01*
X5298Y5442D01*
X5297Y5448D01*
X5299Y5449D01*
X5301Y5449D01*
X5302Y5450D01*
X5302D01*
X5304Y5449D01*
D02*
G37*
G36*
X5246D02*
X5248Y5449D01*
X5250Y5448D01*
X5251Y5447D01*
X5253Y5446D01*
X5254Y5446D01*
X5254Y5445D01*
X5254Y5445D01*
X5256Y5443D01*
X5257Y5441D01*
X5258Y5439D01*
X5258Y5437D01*
X5259Y5435D01*
X5259Y5433D01*
Y5432D01*
Y5432D01*
X5259Y5429D01*
X5258Y5426D01*
X5257Y5424D01*
X5257Y5422D01*
X5256Y5421D01*
X5255Y5420D01*
X5255Y5419D01*
X5255Y5419D01*
X5253Y5417D01*
X5251Y5416D01*
X5249Y5416D01*
X5247Y5415D01*
X5245Y5415D01*
X5244Y5414D01*
X5243D01*
X5239Y5415D01*
X5236Y5416D01*
X5235Y5416D01*
X5234Y5417D01*
X5233Y5417D01*
X5233D01*
X5231Y5420D01*
X5229Y5422D01*
X5229Y5423D01*
X5228Y5424D01*
X5228Y5425D01*
Y5425D01*
X5234Y5426D01*
X5235Y5424D01*
X5236Y5422D01*
X5237Y5421D01*
X5237Y5421D01*
X5239Y5420D01*
X5241Y5419D01*
X5242Y5419D01*
X5243D01*
X5244Y5419D01*
X5245Y5419D01*
X5248Y5421D01*
X5249Y5421D01*
X5250Y5422D01*
X5250D01*
X5251Y5423D01*
X5252Y5424D01*
X5252Y5427D01*
X5253Y5429D01*
X5253Y5430D01*
Y5430D01*
Y5431D01*
X5228D01*
Y5431D01*
Y5431D01*
Y5432D01*
Y5432D01*
X5228Y5435D01*
X5228Y5437D01*
X5229Y5440D01*
X5230Y5442D01*
X5231Y5443D01*
X5231Y5444D01*
X5232Y5445D01*
X5232Y5445D01*
X5234Y5447D01*
X5236Y5448D01*
X5238Y5449D01*
X5239Y5449D01*
X5241Y5449D01*
X5242Y5450D01*
X5243D01*
X5246Y5449D01*
D02*
G37*
G36*
X5282D02*
X5284Y5449D01*
X5286Y5448D01*
X5288Y5447D01*
X5289Y5446D01*
X5290Y5446D01*
X5290Y5445D01*
X5291Y5445D01*
X5292Y5443D01*
X5293Y5441D01*
X5294Y5439D01*
X5294Y5436D01*
X5295Y5434D01*
X5295Y5433D01*
Y5432D01*
Y5432D01*
X5295Y5429D01*
X5294Y5426D01*
X5293Y5424D01*
X5293Y5422D01*
X5292Y5421D01*
X5291Y5420D01*
X5291Y5419D01*
X5291Y5419D01*
X5289Y5417D01*
X5287Y5416D01*
X5285Y5416D01*
X5283Y5415D01*
X5282Y5415D01*
X5280Y5414D01*
X5279D01*
X5275Y5415D01*
X5272Y5416D01*
X5271Y5416D01*
X5270Y5417D01*
X5270Y5417D01*
X5269D01*
X5267Y5420D01*
X5265Y5422D01*
X5265Y5423D01*
X5264Y5424D01*
X5264Y5425D01*
Y5425D01*
X5270Y5426D01*
X5271Y5424D01*
X5272Y5422D01*
X5273Y5421D01*
X5273Y5421D01*
X5275Y5420D01*
X5277Y5419D01*
X5278Y5419D01*
X5279D01*
X5280Y5419D01*
X5282Y5419D01*
X5284Y5421D01*
X5285Y5421D01*
X5286Y5422D01*
X5286D01*
X5288Y5425D01*
X5288Y5427D01*
X5289Y5429D01*
X5289Y5430D01*
Y5430D01*
Y5431D01*
X5264D01*
Y5431D01*
Y5431D01*
Y5432D01*
Y5432D01*
X5264Y5435D01*
X5265Y5437D01*
X5265Y5440D01*
X5266Y5442D01*
X5267Y5443D01*
X5268Y5444D01*
X5268Y5445D01*
X5268Y5445D01*
X5270Y5447D01*
X5272Y5448D01*
X5273Y5449D01*
X5275Y5449D01*
X5277Y5449D01*
X5278Y5450D01*
X5279D01*
X5282Y5449D01*
D02*
G37*
G36*
X6270Y3400D02*
X6270D01*
X7665Y2005D01*
Y0D01*
X4600Y-0D01*
D01*
X4452D01*
X4345D01*
D01*
X-0Y0D01*
X0Y6000D01*
X3670D01*
X6270Y3400D01*
D02*
G37*
%LPC*%
G36*
X5880Y5529D02*
X5878D01*
X5873Y5528D01*
X5869Y5527D01*
X5865Y5526D01*
X5863Y5524D01*
X5860Y5522D01*
X5859Y5520D01*
X5858Y5519D01*
X5858Y5519D01*
X5855Y5516D01*
X5853Y5512D01*
X5852Y5508D01*
X5851Y5503D01*
X5851Y5500D01*
X5850Y5497D01*
Y5495D01*
Y5494D01*
X5851Y5488D01*
X5851Y5484D01*
X5853Y5479D01*
X5854Y5475D01*
X5855Y5473D01*
X5857Y5470D01*
X5857Y5469D01*
X5858Y5469D01*
X5860Y5466D01*
X5864Y5463D01*
X5867Y5462D01*
X5870Y5460D01*
X5873Y5460D01*
X5876Y5459D01*
X5878D01*
X5882Y5460D01*
X5886Y5461D01*
X5890Y5462D01*
X5892Y5464D01*
X5894Y5466D01*
X5896Y5467D01*
X5897Y5468D01*
X5898Y5469D01*
X5900Y5472D01*
X5902Y5476D01*
X5903Y5481D01*
X5904Y5485D01*
X5905Y5488D01*
X5905Y5491D01*
Y5493D01*
Y5494D01*
X5905Y5499D01*
X5904Y5504D01*
X5903Y5509D01*
X5901Y5513D01*
X5900Y5515D01*
X5899Y5517D01*
X5898Y5518D01*
X5898Y5519D01*
X5895Y5522D01*
X5891Y5525D01*
X5888Y5526D01*
X5885Y5528D01*
X5882Y5528D01*
X5880Y5529D01*
D02*
G37*
G36*
X5377Y5445D02*
X5375D01*
X5373Y5444D01*
X5371Y5443D01*
X5370Y5442D01*
X5370Y5442D01*
Y5442D01*
X5369Y5440D01*
X5368Y5439D01*
X5368Y5436D01*
X5367Y5434D01*
Y5433D01*
Y5432D01*
Y5432D01*
Y5430D01*
X5368Y5428D01*
X5368Y5426D01*
X5368Y5425D01*
X5369Y5424D01*
X5370Y5423D01*
X5370Y5423D01*
Y5422D01*
X5371Y5421D01*
X5372Y5421D01*
X5374Y5419D01*
X5376Y5419D01*
X5376D01*
X5378Y5419D01*
X5380Y5420D01*
X5382Y5421D01*
X5383Y5423D01*
X5384Y5423D01*
Y5423D01*
X5384Y5424D01*
X5385Y5426D01*
X5385Y5429D01*
X5385Y5430D01*
Y5431D01*
Y5432D01*
Y5432D01*
X5385Y5436D01*
X5385Y5438D01*
X5384Y5439D01*
X5383Y5440D01*
X5383Y5441D01*
X5383Y5441D01*
Y5442D01*
X5381Y5443D01*
X5381Y5443D01*
X5378Y5444D01*
X5377Y5445D01*
D02*
G37*
G36*
X6000Y5557D02*
X5964D01*
X5960Y5556D01*
X5958Y5556D01*
X5957Y5555D01*
X5953Y5555D01*
X5951Y5554D01*
X5949Y5553D01*
X5949Y5553D01*
X5946Y5550D01*
X5944Y5548D01*
X5943Y5546D01*
X5942Y5546D01*
X5941Y5542D01*
X5940Y5539D01*
Y5537D01*
Y5536D01*
X5941Y5531D01*
X5941Y5528D01*
X5942Y5525D01*
X5943Y5522D01*
X5945Y5520D01*
X5946Y5519D01*
X5946Y5519D01*
X5947Y5518D01*
X5950Y5517D01*
X5954Y5515D01*
X5961Y5514D01*
X5964D01*
X5967Y5513D01*
X6000D01*
Y5557D01*
D02*
G37*
G36*
X6205Y5667D02*
X6205D01*
X6128Y5533D01*
Y5533D01*
X6126Y5529D01*
X6125Y5525D01*
X6124Y5524D01*
Y5522D01*
X6124Y5522D01*
Y5521D01*
X6124D01*
X6124Y5520D01*
Y5520D01*
Y5519D01*
Y5517D01*
Y5516D01*
X6124Y5515D01*
Y5515D01*
X6265Y5597D01*
X6260Y5599D01*
X6255Y5602D01*
X6250Y5606D01*
X6246Y5609D01*
X6242Y5612D01*
X6239Y5615D01*
X6238Y5617D01*
X6237Y5617D01*
X6237Y5618D01*
X6235Y5620D01*
X6233Y5621D01*
X6232Y5622D01*
X6231Y5623D01*
X6230Y5625D01*
X6229Y5627D01*
X6228Y5628D01*
X6228Y5628D01*
X6226Y5630D01*
X6226Y5633D01*
X6223Y5637D01*
X6223Y5639D01*
X6222Y5641D01*
X6221Y5642D01*
Y5642D01*
X6220Y5645D01*
X6219Y5648D01*
X6218Y5650D01*
X6217Y5652D01*
X6216Y5653D01*
X6216Y5654D01*
X6216Y5655D01*
X6215Y5657D01*
X6213Y5659D01*
X6211Y5662D01*
X6209Y5663D01*
X6209Y5664D01*
X6206Y5666D01*
X6206Y5667D01*
X6205Y5667D01*
D02*
G37*
G36*
X6341Y5553D02*
X6339D01*
X6336Y5553D01*
X6334Y5552D01*
X6331Y5551D01*
X6330Y5550D01*
X6329Y5550D01*
X6329Y5548D01*
X6330Y5546D01*
X6333Y5542D01*
X6334Y5541D01*
X6335Y5539D01*
X6335Y5538D01*
X6336Y5538D01*
X6338Y5535D01*
X6340Y5533D01*
X6341Y5531D01*
X6342Y5530D01*
X6343Y5529D01*
X6344Y5528D01*
X6345Y5527D01*
X6347Y5526D01*
X6348Y5525D01*
X6349Y5525D01*
X6349D01*
X6351Y5524D01*
X6352Y5524D01*
X6353D01*
X6356Y5523D01*
X6360D01*
X6362Y5524D01*
X6363Y5525D01*
X6364Y5525D01*
X6365Y5526D01*
X6367Y5529D01*
X6368Y5532D01*
X6369Y5533D01*
X6369Y5534D01*
X6369Y5535D01*
Y5535D01*
X6369Y5537D01*
X6369Y5538D01*
X6368Y5539D01*
Y5539D01*
X6368Y5541D01*
X6367Y5543D01*
X6366Y5544D01*
X6366Y5544D01*
X6365Y5545D01*
X6365Y5546D01*
X6363Y5548D01*
X6360Y5549D01*
X6358Y5550D01*
X6357Y5551D01*
X6356D01*
X6355Y5551D01*
X6355Y5551D01*
X6354D01*
X6353Y5552D01*
X6353D01*
X6350Y5552D01*
X6347Y5553D01*
X6344Y5553D01*
X6342D01*
X6341Y5553D01*
D02*
G37*
G36*
X6459Y5684D02*
X6433Y5669D01*
X6434Y5666D01*
X6435Y5663D01*
X6436Y5659D01*
X6437Y5656D01*
X6438Y5653D01*
X6439Y5651D01*
X6440Y5649D01*
X6440Y5649D01*
X6442Y5645D01*
X6443Y5643D01*
X6444Y5640D01*
X6444Y5638D01*
X6445Y5637D01*
X6445Y5636D01*
X6446Y5635D01*
Y5635D01*
X6446Y5632D01*
Y5628D01*
X6446Y5624D01*
X6445Y5620D01*
X6444Y5616D01*
X6444Y5613D01*
X6443Y5612D01*
Y5611D01*
X6443Y5611D01*
Y5611D01*
X6442Y5608D01*
X6442Y5606D01*
X6442Y5604D01*
Y5604D01*
X6441Y5603D01*
X6441Y5601D01*
X6440Y5598D01*
X6439Y5592D01*
X6439Y5590D01*
X6439Y5588D01*
X6438Y5586D01*
Y5586D01*
X6438Y5581D01*
X6437Y5577D01*
X6437Y5575D01*
X6436Y5572D01*
X6436Y5571D01*
X6435Y5569D01*
X6435Y5569D01*
Y5568D01*
X6434Y5567D01*
X6434Y5565D01*
X6432Y5560D01*
X6431Y5558D01*
X6431Y5557D01*
X6430Y5556D01*
Y5555D01*
X6429Y5552D01*
X6428Y5550D01*
X6427Y5548D01*
X6427Y5547D01*
X6426Y5546D01*
X6426Y5545D01*
Y5545D01*
X6426Y5545D01*
X6425Y5544D01*
X6425Y5543D01*
Y5542D01*
X6423Y5537D01*
X6421Y5533D01*
X6420Y5530D01*
X6419Y5527D01*
X6417Y5525D01*
X6416Y5523D01*
X6416Y5523D01*
X6416Y5522D01*
X6414Y5520D01*
X6411Y5519D01*
X6409Y5517D01*
X6407Y5517D01*
X6406Y5516D01*
X6404Y5516D01*
X6403Y5515D01*
X6400D01*
X6398Y5516D01*
X6396Y5516D01*
X6396Y5517D01*
X6396D01*
X6393Y5518D01*
X6391Y5519D01*
X6390Y5520D01*
X6389Y5520D01*
X6386Y5523D01*
X6384Y5526D01*
X6383Y5529D01*
X6382Y5531D01*
X6381Y5533D01*
X6381Y5535D01*
X6380Y5536D01*
Y5537D01*
Y5539D01*
X6381Y5543D01*
X6382Y5547D01*
X6383Y5551D01*
X6384Y5554D01*
X6385Y5558D01*
X6385Y5559D01*
X6385Y5560D01*
X6386Y5560D01*
Y5561D01*
X6384Y5560D01*
X6383Y5559D01*
X6381Y5558D01*
X6381Y5558D01*
X6379Y5557D01*
X6378Y5556D01*
X6377Y5555D01*
X6376Y5555D01*
X6376Y5554D01*
Y5554D01*
X6377Y5550D01*
X6377Y5547D01*
Y5546D01*
Y5545D01*
Y5544D01*
Y5544D01*
Y5543D01*
Y5543D01*
Y5542D01*
Y5542D01*
X6377Y5537D01*
X6376Y5532D01*
X6375Y5529D01*
X6373Y5526D01*
X6372Y5523D01*
X6371Y5522D01*
X6370Y5521D01*
X6370Y5520D01*
X6367Y5519D01*
X6364Y5517D01*
X6363Y5517D01*
X6362Y5517D01*
X6361Y5516D01*
X6353D01*
X6350Y5517D01*
X6348Y5518D01*
X6347Y5518D01*
X6346Y5518D01*
X6344Y5520D01*
X6342Y5520D01*
X6341Y5521D01*
X6340Y5522D01*
X6337Y5525D01*
X6335Y5528D01*
X6333Y5529D01*
X6332Y5530D01*
X6332Y5531D01*
X6332Y5531D01*
X6330Y5530D01*
X6328Y5528D01*
X6324Y5527D01*
X6322Y5527D01*
X6321Y5526D01*
X6317D01*
X6315Y5527D01*
X6313Y5528D01*
X6311Y5528D01*
X6310Y5529D01*
X6309Y5530D01*
X6308Y5531D01*
X6308Y5531D01*
Y5531D01*
X6307Y5531D01*
X6307Y5531D01*
X6307Y5532D01*
X6306Y5533D01*
X6306Y5534D01*
X6305Y5534D01*
Y5535D01*
X6305Y5536D01*
X6304Y5537D01*
X6304Y5538D01*
Y5538D01*
X6304Y5541D01*
Y5544D01*
X6304Y5545D01*
Y5546D01*
X6304Y5547D01*
Y5547D01*
X6301D01*
X6298Y5547D01*
X6295Y5548D01*
X6293Y5548D01*
X6291Y5549D01*
X6290Y5550D01*
X6289Y5551D01*
X6288Y5551D01*
Y5552D01*
X6287Y5553D01*
X6287Y5553D01*
X6287Y5554D01*
X6286Y5557D01*
X6285Y5560D01*
X6285Y5562D01*
Y5562D01*
X6285Y5566D01*
X6286Y5569D01*
X6287Y5571D01*
X6288Y5571D01*
Y5571D01*
X6288Y5572D01*
X6289Y5572D01*
X6292Y5576D01*
X6295Y5578D01*
X6296Y5579D01*
X6296Y5579D01*
X6294Y5582D01*
X6291Y5584D01*
X6290Y5585D01*
X6289Y5586D01*
X6136Y5497D01*
X6138Y5495D01*
X6140Y5494D01*
X6142Y5494D01*
X6143Y5493D01*
X6144D01*
X6145Y5493D01*
X6146Y5493D01*
X6147Y5492D01*
X6151D01*
Y5492D01*
X6522D01*
X6526Y5492D01*
X6530Y5493D01*
X6533Y5494D01*
X6536Y5496D01*
X6538Y5497D01*
X6540Y5498D01*
X6541Y5499D01*
X6541Y5499D01*
X6542Y5500D01*
X6543Y5501D01*
X6544Y5502D01*
Y5502D01*
X6545Y5503D01*
X6545Y5504D01*
X6546Y5505D01*
Y5506D01*
X6546D01*
X6548Y5509D01*
X6549Y5512D01*
X6549Y5515D01*
X6549Y5518D01*
Y5521D01*
Y5523D01*
X6549Y5524D01*
Y5524D01*
X6549Y5526D01*
X6548Y5527D01*
X6548Y5528D01*
Y5528D01*
X6548Y5529D01*
X6547Y5531D01*
X6547Y5531D01*
X6546Y5532D01*
X6546Y5532D01*
Y5532D01*
X6459Y5684D01*
D02*
G37*
G36*
X6417Y5547D02*
X6415D01*
X6413Y5547D01*
X6410Y5546D01*
X6409Y5545D01*
X6407Y5543D01*
X6406Y5542D01*
X6404Y5541D01*
X6404Y5540D01*
X6404Y5540D01*
X6403Y5538D01*
X6403Y5538D01*
X6402Y5537D01*
X6402Y5536D01*
X6400Y5534D01*
X6400Y5533D01*
X6399Y5531D01*
Y5531D01*
X6399Y5530D01*
Y5529D01*
Y5528D01*
Y5528D01*
Y5526D01*
X6399Y5525D01*
Y5525D01*
Y5524D01*
Y5523D01*
Y5523D01*
X6400Y5523D01*
X6401Y5522D01*
X6402D01*
X6404Y5523D01*
X6406Y5523D01*
X6408Y5525D01*
X6409Y5526D01*
X6410Y5527D01*
Y5527D01*
X6411Y5529D01*
X6413Y5531D01*
X6414Y5534D01*
X6416Y5537D01*
X6417Y5540D01*
X6418Y5542D01*
X6418Y5544D01*
X6418Y5544D01*
X6419Y5547D01*
X6419D01*
X6418Y5547D01*
X6417Y5547D01*
D02*
G37*
G36*
X6322Y5551D02*
X6320Y5551D01*
X6318Y5550D01*
X6317Y5550D01*
X6317Y5549D01*
X6316Y5549D01*
X6314Y5549D01*
X6313Y5548D01*
X6313D01*
X6312Y5547D01*
X6311Y5545D01*
X6311Y5543D01*
Y5540D01*
X6311Y5540D01*
Y5540D01*
X6311Y5539D01*
Y5538D01*
X6312Y5538D01*
X6312Y5537D01*
X6313Y5536D01*
X6313Y5536D01*
X6315Y5534D01*
X6317Y5534D01*
X6319D01*
X6323Y5534D01*
X6325Y5535D01*
X6327Y5536D01*
X6328Y5537D01*
X6325Y5541D01*
X6323Y5545D01*
X6323Y5546D01*
X6323Y5547D01*
X6322Y5548D01*
Y5548D01*
X6322Y5550D01*
X6322Y5551D01*
Y5551D01*
Y5551D01*
D02*
G37*
G36*
X6338Y5868D02*
X6337D01*
Y5868D01*
X6333Y5867D01*
X6329Y5867D01*
X6326Y5865D01*
X6324Y5864D01*
X6321Y5863D01*
X6320Y5862D01*
X6319Y5861D01*
X6318Y5861D01*
X6317Y5859D01*
X6316Y5858D01*
X6316Y5858D01*
X6315Y5857D01*
X6314Y5855D01*
X6314Y5855D01*
Y5854D01*
X6313D01*
X6250Y5744D01*
X6272Y5735D01*
X6275Y5734D01*
X6278Y5733D01*
X6282Y5732D01*
X6284Y5732D01*
X6287Y5732D01*
X6289Y5731D01*
X6298D01*
X6302Y5732D01*
X6307D01*
X6310Y5732D01*
X6316D01*
X6318Y5732D01*
X6319D01*
X6321Y5733D01*
X6328D01*
X6334Y5732D01*
X6340Y5732D01*
X6344Y5731D01*
X6348Y5730D01*
X6351Y5729D01*
X6353Y5729D01*
X6353Y5728D01*
X6354D01*
X6359Y5726D01*
X6364Y5724D01*
X6369Y5721D01*
X6374Y5718D01*
X6378Y5715D01*
X6381Y5713D01*
X6383Y5713D01*
X6384Y5712D01*
X6384Y5711D01*
X6384D01*
X6385Y5711D01*
X6386Y5710D01*
X6389Y5708D01*
X6391Y5707D01*
X6392Y5706D01*
X6393Y5706D01*
X6393Y5706D01*
X6396Y5704D01*
X6397Y5704D01*
X6397Y5703D01*
X6399Y5702D01*
X6399Y5702D01*
X6399Y5702D01*
X6404Y5699D01*
X6407Y5697D01*
X6409Y5696D01*
X6409Y5695D01*
X6410Y5694D01*
X6410D01*
X6412Y5692D01*
X6414Y5691D01*
X6416Y5690D01*
X6417Y5688D01*
X6419Y5687D01*
X6419Y5686D01*
X6448Y5702D01*
X6360Y5854D01*
X6358Y5858D01*
X6355Y5861D01*
X6353Y5862D01*
X6353Y5863D01*
X6352Y5863D01*
X6352D01*
X6352Y5863D01*
X6351Y5864D01*
X6351Y5864D01*
X6351D01*
X6348Y5865D01*
X6346Y5866D01*
X6341Y5868D01*
X6339D01*
X6338Y5868D01*
D02*
G37*
G36*
X6366Y5630D02*
X6353Y5623D01*
X6354Y5619D01*
X6354Y5616D01*
X6355Y5614D01*
Y5614D01*
Y5614D01*
X6354Y5611D01*
X6354Y5608D01*
X6353Y5606D01*
X6353Y5606D01*
Y5605D01*
X6352Y5604D01*
X6352Y5604D01*
X6352Y5604D01*
X6351Y5601D01*
X6350Y5600D01*
X6348Y5597D01*
X6347Y5596D01*
X6347Y5595D01*
X6352Y5591D01*
X6355Y5587D01*
X6357Y5586D01*
X6358Y5584D01*
X6359Y5584D01*
X6359Y5583D01*
X6360Y5582D01*
X6360Y5582D01*
X6361Y5581D01*
X6361Y5581D01*
X6363Y5585D01*
X6365Y5588D01*
X6366Y5589D01*
X6366Y5590D01*
Y5590D01*
X6367Y5592D01*
X6367Y5593D01*
X6368Y5593D01*
X6368Y5594D01*
X6368Y5595D01*
Y5596D01*
X6369Y5599D01*
X6369Y5602D01*
Y5604D01*
Y5605D01*
Y5606D01*
Y5606D01*
Y5607D01*
Y5608D01*
Y5610D01*
Y5612D01*
Y5614D01*
Y5616D01*
Y5617D01*
Y5617D01*
Y5620D01*
X6369Y5622D01*
X6369Y5624D01*
Y5624D01*
X6368Y5627D01*
X6367Y5628D01*
X6366Y5630D01*
X6366Y5630D01*
D02*
G37*
G36*
X6427Y5665D02*
X6390Y5644D01*
X6390Y5642D01*
X6390Y5640D01*
X6392Y5636D01*
X6393Y5634D01*
X6394Y5633D01*
X6395Y5632D01*
X6395Y5631D01*
X6397Y5629D01*
X6398Y5626D01*
X6399Y5624D01*
X6400Y5623D01*
X6400Y5622D01*
X6401Y5621D01*
X6401Y5620D01*
Y5620D01*
Y5617D01*
X6401Y5614D01*
X6399Y5608D01*
X6399Y5606D01*
X6398Y5603D01*
X6398Y5602D01*
X6397Y5601D01*
X6397Y5598D01*
X6396Y5595D01*
X6395Y5593D01*
X6395Y5592D01*
Y5591D01*
Y5590D01*
Y5589D01*
X6396Y5584D01*
X6396Y5581D01*
Y5579D01*
Y5577D01*
X6396Y5575D01*
Y5574D01*
Y5574D01*
Y5572D01*
Y5572D01*
Y5572D01*
X6396Y5570D01*
Y5570D01*
Y5570D01*
X6395Y5568D01*
X6395Y5566D01*
X6394Y5566D01*
Y5566D01*
X6394Y5564D01*
X6394Y5563D01*
X6393Y5562D01*
X6393Y5561D01*
X6392Y5557D01*
X6391Y5554D01*
X6390Y5549D01*
X6389Y5545D01*
X6388Y5542D01*
X6388Y5540D01*
X6387Y5538D01*
Y5537D01*
Y5537D01*
X6388Y5535D01*
X6389Y5532D01*
X6391Y5529D01*
X6392Y5528D01*
X6393Y5527D01*
X6393Y5526D01*
X6394Y5526D01*
X6394Y5526D01*
X6395Y5525D01*
X6395Y5525D01*
X6395Y5525D01*
Y5526D01*
Y5527D01*
Y5528D01*
Y5528D01*
Y5530D01*
Y5531D01*
X6396Y5531D01*
Y5532D01*
X6397Y5534D01*
X6397Y5536D01*
X6398Y5538D01*
X6399Y5538D01*
Y5539D01*
X6399Y5539D01*
X6400Y5540D01*
X6400Y5541D01*
X6401Y5541D01*
X6403Y5544D01*
X6405Y5547D01*
X6408Y5549D01*
X6410Y5550D01*
X6412Y5550D01*
X6414Y5551D01*
X6417D01*
X6418Y5551D01*
X6419Y5550D01*
X6419D01*
X6420Y5550D01*
X6420D01*
X6421Y5553D01*
X6422Y5555D01*
X6423Y5557D01*
X6423Y5558D01*
Y5558D01*
X6426Y5563D01*
X6427Y5567D01*
X6428Y5568D01*
X6428Y5570D01*
X6428Y5570D01*
Y5571D01*
X6429Y5573D01*
X6430Y5576D01*
X6431Y5581D01*
X6431Y5583D01*
Y5585D01*
X6431Y5586D01*
Y5587D01*
X6432Y5591D01*
X6432Y5595D01*
X6433Y5598D01*
X6433Y5600D01*
X6433Y5602D01*
X6434Y5604D01*
X6434Y5605D01*
Y5605D01*
Y5606D01*
X6435Y5608D01*
X6435Y5610D01*
X6436Y5612D01*
X6436Y5612D01*
Y5612D01*
X6437Y5618D01*
X6438Y5622D01*
X6439Y5625D01*
X6439Y5628D01*
Y5630D01*
Y5632D01*
X6439Y5633D01*
Y5633D01*
X6438Y5634D01*
X6438Y5636D01*
X6436Y5641D01*
X6435Y5643D01*
X6434Y5644D01*
X6434Y5645D01*
X6434Y5646D01*
X6432Y5650D01*
X6430Y5654D01*
X6429Y5657D01*
X6428Y5660D01*
X6427Y5662D01*
X6427Y5664D01*
X6427Y5665D01*
Y5665D01*
D02*
G37*
G36*
X6303Y5575D02*
X6303D01*
X6302Y5575D01*
X6301Y5574D01*
X6299Y5573D01*
X6298Y5571D01*
X6296Y5570D01*
X6295Y5569D01*
X6295Y5568D01*
X6295Y5567D01*
X6294Y5567D01*
Y5567D01*
X6294D01*
X6294Y5566D01*
X6293Y5565D01*
X6292Y5564D01*
Y5563D01*
Y5563D01*
X6293Y5561D01*
X6293Y5559D01*
X6293Y5557D01*
X6294Y5557D01*
Y5556D01*
Y5556D01*
X6294D01*
X6295Y5555D01*
X6295Y5555D01*
X6298Y5554D01*
X6300Y5554D01*
X6301D01*
X6306Y5554D01*
X6308Y5555D01*
X6310Y5555D01*
X6312Y5555D01*
X6313Y5556D01*
X6314Y5556D01*
X6314D01*
X6316Y5557D01*
X6318Y5558D01*
X6319Y5558D01*
X6319Y5558D01*
X6319Y5559D01*
Y5559D01*
X6318Y5560D01*
X6318Y5560D01*
X6316Y5565D01*
X6313Y5567D01*
X6311Y5569D01*
X6311Y5570D01*
X6311D01*
X6308Y5572D01*
X6306Y5573D01*
X6304Y5575D01*
X6303Y5575D01*
D02*
G37*
G36*
X6383Y5640D02*
X6372Y5634D01*
X6374Y5631D01*
X6375Y5629D01*
X6375Y5627D01*
X6376Y5627D01*
Y5626D01*
X6376Y5623D01*
X6377Y5621D01*
Y5619D01*
Y5618D01*
Y5618D01*
Y5617D01*
Y5615D01*
Y5613D01*
Y5612D01*
Y5611D01*
Y5609D01*
Y5608D01*
Y5606D01*
Y5606D01*
Y5603D01*
X6376Y5600D01*
Y5599D01*
X6376Y5597D01*
X6376Y5596D01*
Y5595D01*
X6375Y5594D01*
Y5594D01*
Y5594D01*
X6375Y5592D01*
X6374Y5591D01*
Y5590D01*
Y5590D01*
X6374Y5589D01*
X6373Y5588D01*
X6373Y5588D01*
Y5587D01*
X6371Y5582D01*
X6368Y5578D01*
X6367Y5577D01*
X6367Y5576D01*
X6366Y5575D01*
X6366Y5575D01*
X6369Y5570D01*
X6371Y5566D01*
X6372Y5564D01*
X6373Y5563D01*
X6373Y5562D01*
Y5562D01*
X6374Y5563D01*
X6376Y5563D01*
X6377Y5564D01*
X6377Y5564D01*
X6380Y5566D01*
X6381Y5566D01*
X6382Y5567D01*
X6382Y5567D01*
X6383Y5568D01*
X6383Y5569D01*
X6384Y5569D01*
X6385Y5569D01*
X6386Y5570D01*
X6386Y5570D01*
X6386Y5571D01*
X6386D01*
X6386Y5571D01*
X6387Y5571D01*
X6388Y5572D01*
X6388D01*
Y5572D01*
X6389Y5573D01*
Y5573D01*
Y5574D01*
Y5574D01*
Y5579D01*
X6388Y5584D01*
X6388Y5585D01*
Y5587D01*
X6388Y5588D01*
Y5588D01*
X6387Y5590D01*
X6388Y5592D01*
X6389Y5597D01*
X6389Y5600D01*
X6390Y5602D01*
X6390Y5603D01*
X6391Y5604D01*
X6392Y5608D01*
X6393Y5611D01*
X6393Y5613D01*
X6394Y5615D01*
Y5617D01*
Y5618D01*
Y5618D01*
Y5618D01*
X6393Y5620D01*
X6393Y5621D01*
X6391Y5624D01*
X6390Y5625D01*
X6390Y5626D01*
X6389Y5627D01*
X6389Y5627D01*
X6387Y5630D01*
X6386Y5632D01*
X6385Y5634D01*
X6384Y5636D01*
X6384Y5638D01*
X6383Y5639D01*
X6383Y5639D01*
Y5640D01*
D02*
G37*
G36*
X6347Y5619D02*
X6329Y5609D01*
X6333Y5606D01*
X6337Y5603D01*
X6339Y5601D01*
X6340Y5600D01*
X6341Y5600D01*
X6341Y5600D01*
X6343Y5602D01*
X6344Y5604D01*
X6345Y5606D01*
X6345Y5606D01*
Y5607D01*
X6346Y5608D01*
X6346Y5608D01*
Y5608D01*
X6347Y5610D01*
X6347Y5612D01*
X6347Y5613D01*
Y5614D01*
Y5615D01*
X6347Y5617D01*
X6347Y5618D01*
Y5619D01*
D02*
G37*
G36*
X6246Y5738D02*
X6209Y5673D01*
X6211Y5672D01*
X6212Y5671D01*
X6214Y5669D01*
X6214Y5669D01*
X6217Y5666D01*
X6220Y5662D01*
X6221Y5660D01*
X6222Y5659D01*
X6222Y5658D01*
X6222Y5658D01*
X6223Y5656D01*
X6224Y5654D01*
X6226Y5650D01*
X6227Y5648D01*
X6227Y5646D01*
X6228Y5645D01*
Y5645D01*
X6229Y5642D01*
X6230Y5639D01*
X6231Y5637D01*
X6232Y5635D01*
X6233Y5634D01*
X6233Y5633D01*
X6234Y5633D01*
Y5632D01*
X6235Y5631D01*
X6236Y5629D01*
X6237Y5628D01*
X6237Y5628D01*
X6239Y5626D01*
X6240Y5624D01*
X6241Y5623D01*
X6242Y5623D01*
X6245Y5620D01*
X6248Y5617D01*
X6254Y5612D01*
X6260Y5608D01*
X6264Y5605D01*
X6268Y5603D01*
X6271Y5602D01*
X6272Y5601D01*
X6273Y5601D01*
X6413Y5682D01*
X6410Y5685D01*
X6408Y5687D01*
X6407Y5688D01*
X6406Y5689D01*
X6402Y5691D01*
X6399Y5694D01*
X6397Y5695D01*
X6397Y5695D01*
X6396Y5696D01*
X6396D01*
X6394Y5697D01*
X6393Y5698D01*
X6391Y5699D01*
X6390Y5699D01*
X6390D01*
X6387Y5701D01*
X6385Y5702D01*
X6384Y5703D01*
X6382Y5704D01*
X6381Y5705D01*
X6380Y5705D01*
X6374Y5710D01*
X6369Y5713D01*
X6364Y5716D01*
X6360Y5718D01*
X6356Y5720D01*
X6354Y5721D01*
X6352Y5721D01*
X6352Y5722D01*
X6347Y5723D01*
X6341Y5724D01*
X6337Y5725D01*
X6332Y5725D01*
X6328Y5725D01*
X6317D01*
X6315Y5725D01*
X6312D01*
X6304Y5724D01*
X6300D01*
X6297Y5724D01*
X6290D01*
X6286Y5724D01*
X6282Y5725D01*
X6278Y5725D01*
X6275Y5726D01*
X6273Y5727D01*
X6271Y5728D01*
X6269Y5728D01*
X6269Y5729D01*
X6246Y5738D01*
D02*
G37*
G36*
X6322Y5605D02*
X6295Y5589D01*
X6297Y5588D01*
X6298Y5587D01*
X6302Y5584D01*
X6304Y5583D01*
X6305Y5582D01*
X6306Y5582D01*
X6306Y5581D01*
X6309Y5580D01*
X6311Y5578D01*
X6312Y5577D01*
X6313Y5577D01*
X6315Y5576D01*
X6315Y5576D01*
X6319Y5572D01*
X6322Y5568D01*
X6323Y5566D01*
X6324Y5565D01*
X6324Y5564D01*
X6325Y5564D01*
X6326Y5561D01*
X6327Y5559D01*
X6328Y5557D01*
Y5557D01*
X6328Y5555D01*
X6329Y5554D01*
Y5554D01*
X6331Y5555D01*
X6332Y5555D01*
X6334Y5555D01*
X6334D01*
X6336Y5556D01*
X6337Y5556D01*
X6337Y5556D01*
X6338D01*
X6342Y5557D01*
X6347Y5556D01*
X6349Y5556D01*
X6350D01*
X6352Y5556D01*
X6352D01*
X6353Y5555D01*
X6354Y5555D01*
X6354Y5555D01*
X6356D01*
X6357Y5554D01*
X6358Y5554D01*
X6358Y5554D01*
X6362Y5552D01*
X6365Y5551D01*
X6367Y5549D01*
X6367Y5549D01*
X6368Y5548D01*
X6368Y5547D01*
X6369Y5546D01*
X6369Y5545D01*
X6370Y5545D01*
X6369Y5548D01*
X6369Y5551D01*
X6367Y5557D01*
X6364Y5562D01*
X6362Y5567D01*
X6359Y5572D01*
X6356Y5576D01*
X6355Y5577D01*
X6354Y5578D01*
X6354Y5578D01*
X6353Y5578D01*
X6348Y5584D01*
X6345Y5587D01*
X6343Y5589D01*
X6341Y5591D01*
X6339Y5592D01*
X6338Y5593D01*
X6338Y5593D01*
X6331Y5598D01*
X6329Y5600D01*
X6327Y5602D01*
X6325Y5603D01*
X6324Y5604D01*
X6323Y5605D01*
X6322Y5605D01*
D02*
G37*
G36*
X5337Y5914D02*
X5333D01*
X5325Y5913D01*
X5317Y5913D01*
X5309Y5912D01*
X5302Y5911D01*
X5287Y5908D01*
X5273Y5904D01*
X5260Y5899D01*
X5248Y5894D01*
X5237Y5889D01*
X5227Y5883D01*
X5217Y5877D01*
X5213Y5874D01*
X5209Y5872D01*
X5205Y5869D01*
X5202Y5866D01*
X5199Y5864D01*
X5196Y5862D01*
X5194Y5860D01*
X5191Y5858D01*
X5190Y5856D01*
X5188Y5855D01*
X5187Y5854D01*
X5186Y5853D01*
X5185Y5853D01*
X5185Y5852D01*
X5180Y5846D01*
X5174Y5841D01*
X5169Y5834D01*
X5165Y5828D01*
X5161Y5822D01*
X5157Y5816D01*
X5153Y5810D01*
X5150Y5803D01*
X5144Y5791D01*
X5139Y5779D01*
X5135Y5767D01*
X5132Y5756D01*
X5129Y5745D01*
X5127Y5735D01*
X5126Y5731D01*
X5126Y5726D01*
X5125Y5723D01*
X5125Y5719D01*
X5124Y5716D01*
X5124Y5713D01*
Y5710D01*
X5124Y5708D01*
Y5707D01*
Y5706D01*
Y5705D01*
Y5705D01*
X5124Y5696D01*
X5124Y5689D01*
X5125Y5681D01*
X5126Y5673D01*
X5129Y5659D01*
X5133Y5645D01*
X5138Y5632D01*
X5143Y5620D01*
X5149Y5608D01*
X5154Y5598D01*
X5160Y5589D01*
X5163Y5585D01*
X5166Y5580D01*
X5169Y5577D01*
X5171Y5574D01*
X5173Y5570D01*
X5175Y5567D01*
X5177Y5566D01*
X5177Y5565D01*
X5181Y5561D01*
X5182Y5559D01*
X5183Y5559D01*
X5184Y5558D01*
X5184Y5557D01*
X5185Y5557D01*
X5185Y5557D01*
X5191Y5551D01*
X5197Y5546D01*
X5203Y5541D01*
X5209Y5536D01*
X5215Y5532D01*
X5222Y5528D01*
X5228Y5525D01*
X5234Y5521D01*
X5247Y5515D01*
X5259Y5510D01*
X5271Y5506D01*
X5282Y5503D01*
X5293Y5500D01*
X5302Y5499D01*
X5307Y5498D01*
X5311Y5497D01*
X5315Y5497D01*
X5318Y5496D01*
X5322Y5496D01*
X5325Y5496D01*
X5327D01*
X5329Y5495D01*
X5333D01*
X5341Y5496D01*
X5349Y5496D01*
X5357Y5497D01*
X5364Y5498D01*
X5379Y5501D01*
X5392Y5505D01*
X5405Y5510D01*
X5418Y5515D01*
X5429Y5520D01*
X5439Y5526D01*
X5448Y5532D01*
X5453Y5535D01*
X5457Y5537D01*
X5460Y5540D01*
X5464Y5542D01*
X5467Y5545D01*
X5470Y5547D01*
X5472Y5549D01*
X5474Y5551D01*
X5476Y5553D01*
X5478Y5554D01*
X5479Y5555D01*
X5480Y5556D01*
X5480Y5556D01*
X5481Y5557D01*
X5486Y5562D01*
X5491Y5568D01*
X5496Y5574D01*
X5501Y5580D01*
X5505Y5587D01*
X5509Y5593D01*
X5513Y5599D01*
X5516Y5606D01*
X5522Y5618D01*
X5527Y5630D01*
X5531Y5642D01*
X5534Y5653D01*
X5537Y5664D01*
X5539Y5674D01*
X5539Y5678D01*
X5540Y5683D01*
X5541Y5687D01*
X5541Y5690D01*
X5541Y5693D01*
X5542Y5696D01*
Y5699D01*
X5542Y5701D01*
Y5702D01*
Y5703D01*
Y5704D01*
Y5705D01*
X5542Y5713D01*
X5541Y5720D01*
X5541Y5728D01*
X5539Y5736D01*
X5536Y5750D01*
X5532Y5764D01*
X5528Y5777D01*
X5523Y5789D01*
X5517Y5801D01*
X5511Y5811D01*
X5506Y5820D01*
X5503Y5824D01*
X5500Y5828D01*
X5497Y5832D01*
X5495Y5835D01*
X5493Y5839D01*
X5490Y5841D01*
X5488Y5844D01*
X5488Y5844D01*
X5481Y5852D01*
X5481Y5852D01*
X5481Y5852D01*
X5481Y5852D01*
X5481Y5851D01*
X5482Y5851D01*
X5483Y5849D01*
X5484Y5848D01*
X5486Y5846D01*
X5488Y5844D01*
X5423Y5779D01*
X5447D01*
Y5775D01*
X5441D01*
X5438Y5775D01*
X5436Y5774D01*
X5433Y5773D01*
X5431Y5773D01*
X5430Y5772D01*
X5429Y5771D01*
X5428Y5770D01*
X5428Y5770D01*
X5427Y5768D01*
X5426Y5766D01*
X5426Y5763D01*
X5425Y5760D01*
Y5757D01*
X5425Y5755D01*
Y5753D01*
Y5752D01*
Y5752D01*
Y5653D01*
Y5648D01*
X5425Y5645D01*
X5426Y5642D01*
X5426Y5640D01*
X5426Y5638D01*
X5427Y5637D01*
X5427Y5636D01*
Y5636D01*
X5429Y5634D01*
X5431Y5632D01*
X5434Y5631D01*
X5436Y5631D01*
X5438Y5630D01*
X5440Y5630D01*
X5447D01*
Y5625D01*
X5381D01*
Y5630D01*
X5387D01*
X5390Y5630D01*
X5393Y5631D01*
X5395Y5631D01*
X5397Y5632D01*
X5398Y5633D01*
X5399Y5634D01*
X5400Y5634D01*
X5400Y5635D01*
X5401Y5637D01*
X5402Y5639D01*
X5403Y5642D01*
X5403Y5645D01*
X5403Y5648D01*
X5403Y5651D01*
Y5652D01*
Y5653D01*
Y5653D01*
Y5697D01*
X5400Y5697D01*
X5398Y5696D01*
X5395Y5696D01*
X5393Y5696D01*
X5392Y5695D01*
X5391Y5695D01*
X5390D01*
X5385Y5695D01*
X5383D01*
X5381Y5694D01*
X5377D01*
X5371Y5695D01*
X5365Y5696D01*
X5359Y5697D01*
X5355Y5698D01*
X5352Y5700D01*
X5349Y5701D01*
X5347Y5702D01*
X5347Y5703D01*
X5305Y5661D01*
Y5635D01*
X5301Y5633D01*
X5298Y5631D01*
X5295Y5630D01*
X5292Y5628D01*
X5289Y5627D01*
X5287Y5626D01*
X5286Y5626D01*
X5286Y5626D01*
X5282Y5625D01*
X5279Y5624D01*
X5276Y5623D01*
X5273Y5623D01*
X5271Y5623D01*
X5269Y5622D01*
X5267D01*
X5193Y5549D01*
X5185Y5557D01*
X5184Y5558D01*
X5184Y5558D01*
X5183Y5559D01*
X5181Y5561D01*
X5181Y5561D01*
X5180Y5563D01*
X5178Y5565D01*
X5177Y5566D01*
X5241Y5630D01*
X5238Y5632D01*
X5235Y5634D01*
X5234Y5635D01*
X5233Y5636D01*
X5232Y5637D01*
X5232Y5637D01*
X5229Y5640D01*
X5226Y5643D01*
X5224Y5647D01*
X5222Y5651D01*
X5220Y5655D01*
X5218Y5658D01*
X5216Y5665D01*
X5215Y5669D01*
X5215Y5672D01*
X5214Y5674D01*
X5214Y5677D01*
X5214Y5678D01*
Y5680D01*
Y5681D01*
Y5681D01*
Y5686D01*
X5214Y5690D01*
X5216Y5697D01*
X5218Y5704D01*
X5219Y5706D01*
X5220Y5709D01*
X5221Y5711D01*
X5222Y5713D01*
X5223Y5715D01*
X5224Y5716D01*
X5225Y5717D01*
X5225Y5718D01*
X5225Y5718D01*
X5226Y5719D01*
X5228Y5721D01*
X5230Y5723D01*
X5233Y5725D01*
X5235Y5727D01*
X5240Y5729D01*
X5244Y5731D01*
X5248Y5732D01*
X5251Y5732D01*
X5252Y5733D01*
X5254D01*
X5257Y5732D01*
X5260Y5732D01*
X5263Y5731D01*
X5266Y5729D01*
X5272Y5726D01*
X5277Y5722D01*
X5280Y5718D01*
X5282Y5716D01*
X5283Y5715D01*
X5285Y5713D01*
X5285Y5712D01*
X5286Y5712D01*
X5286Y5711D01*
Y5787D01*
X5291D01*
X5322Y5774D01*
X5321Y5770D01*
X5318Y5771D01*
X5315Y5771D01*
X5313Y5772D01*
X5313D01*
X5311Y5771D01*
X5310Y5771D01*
X5308Y5771D01*
X5308Y5770D01*
X5307Y5769D01*
X5306Y5767D01*
X5306Y5765D01*
X5306Y5765D01*
Y5765D01*
X5305Y5764D01*
Y5763D01*
X5305Y5760D01*
Y5756D01*
X5305Y5752D01*
Y5749D01*
Y5746D01*
Y5745D01*
Y5744D01*
Y5743D01*
Y5743D01*
Y5693D01*
X5332Y5721D01*
X5331Y5726D01*
X5330Y5729D01*
X5330Y5731D01*
X5330Y5734D01*
Y5735D01*
Y5736D01*
Y5737D01*
X5330Y5742D01*
X5331Y5746D01*
X5332Y5750D01*
X5334Y5754D01*
X5335Y5757D01*
X5337Y5759D01*
X5338Y5760D01*
X5338Y5761D01*
X5342Y5764D01*
X5345Y5767D01*
X5348Y5770D01*
X5351Y5772D01*
X5354Y5773D01*
X5356Y5774D01*
X5358Y5775D01*
X5358Y5775D01*
X5363Y5776D01*
X5368Y5778D01*
X5374Y5778D01*
X5379Y5779D01*
X5384Y5779D01*
X5386Y5779D01*
X5391D01*
X5472Y5860D01*
X5469Y5863D01*
X5463Y5868D01*
X5457Y5873D01*
X5450Y5877D01*
X5444Y5881D01*
X5438Y5884D01*
X5432Y5888D01*
X5419Y5894D01*
X5407Y5899D01*
X5395Y5903D01*
X5384Y5906D01*
X5373Y5909D01*
X5363Y5910D01*
X5359Y5911D01*
X5355Y5912D01*
X5351Y5912D01*
X5347Y5913D01*
X5344Y5913D01*
X5341Y5913D01*
X5339D01*
X5337Y5914D01*
D02*
G37*
G36*
X5381Y5769D02*
X5377Y5768D01*
X5374Y5767D01*
X5373Y5766D01*
X5372Y5766D01*
X5372Y5766D01*
X5371D01*
X5369Y5764D01*
X5367Y5762D01*
X5365Y5760D01*
X5363Y5758D01*
X5362Y5756D01*
X5361Y5754D01*
X5360Y5753D01*
X5360Y5753D01*
X5358Y5750D01*
X5358Y5748D01*
X5357Y5746D01*
X5357Y5746D01*
X5381Y5769D01*
D02*
G37*
G36*
X5403Y5759D02*
X5360Y5716D01*
X5362Y5714D01*
X5363Y5712D01*
X5364Y5711D01*
X5364Y5711D01*
X5368Y5708D01*
X5371Y5705D01*
X5375Y5704D01*
X5378Y5703D01*
X5380Y5702D01*
X5383Y5702D01*
X5384Y5701D01*
X5385D01*
X5387Y5702D01*
X5390Y5702D01*
X5391D01*
X5392Y5702D01*
X5393D01*
X5396Y5703D01*
X5400Y5703D01*
X5401Y5703D01*
X5402Y5704D01*
X5403Y5704D01*
X5403D01*
Y5759D01*
D02*
G37*
G36*
X5472Y5861D02*
X5472Y5860D01*
X5475Y5858D01*
X5481Y5852D01*
X5472Y5861D01*
D02*
G37*
G36*
X5265Y5716D02*
X5262D01*
X5258Y5716D01*
X5255Y5715D01*
X5251Y5713D01*
X5248Y5711D01*
X5246Y5709D01*
X5244Y5707D01*
X5243Y5706D01*
X5242Y5706D01*
X5239Y5701D01*
X5237Y5696D01*
X5235Y5691D01*
X5234Y5686D01*
X5234Y5682D01*
X5234Y5680D01*
X5233Y5678D01*
Y5677D01*
Y5676D01*
Y5675D01*
Y5675D01*
X5234Y5667D01*
X5235Y5661D01*
X5236Y5655D01*
X5238Y5650D01*
X5240Y5647D01*
X5241Y5644D01*
X5242Y5643D01*
X5242Y5642D01*
X5244Y5640D01*
X5246Y5638D01*
X5247Y5637D01*
X5247Y5636D01*
X5248D01*
X5286Y5675D01*
Y5704D01*
X5283Y5707D01*
X5281Y5709D01*
X5279Y5710D01*
X5277Y5711D01*
X5276Y5712D01*
X5275Y5713D01*
X5275Y5713D01*
X5274D01*
X5270Y5715D01*
X5268Y5716D01*
X5266Y5716D01*
X5265Y5716D01*
D02*
G37*
G36*
X5427Y5456D02*
X5411D01*
X5410Y5456D01*
X5410D01*
X5408Y5455D01*
X5406Y5454D01*
X5406Y5453D01*
X5405Y5453D01*
X5405Y5451D01*
X5404Y5450D01*
Y5449D01*
Y5448D01*
X5405Y5445D01*
X5405Y5443D01*
X5406Y5442D01*
X5406Y5442D01*
X5408Y5441D01*
X5409Y5440D01*
X5412Y5440D01*
X5413Y5439D01*
X5427D01*
Y5456D01*
D02*
G37*
G36*
X4977Y5831D02*
X4822D01*
X4822Y5823D01*
X4827D01*
Y5805D01*
X4850Y5781D01*
X4920D01*
Y5759D01*
X4872D01*
X4904Y5726D01*
X4974Y5799D01*
X4977Y5831D01*
D02*
G37*
G36*
X4910Y5771D02*
X4860D01*
Y5768D01*
X4910D01*
Y5771D01*
D02*
G37*
G36*
X4973Y5783D02*
X4910Y5719D01*
X4961Y5666D01*
X4973Y5783D01*
D02*
G37*
G36*
X4817Y5813D02*
X4798D01*
Y5795D01*
X4817D01*
Y5813D01*
D02*
G37*
G36*
X4958Y5870D02*
X4954D01*
Y5857D01*
X4957D01*
X4958Y5870D01*
D02*
G37*
G36*
X4919Y5868D02*
Y5860D01*
X4865D01*
Y5867D01*
X4854Y5865D01*
X4844Y5863D01*
X4836Y5860D01*
X4829Y5857D01*
X4824Y5854D01*
X4820Y5851D01*
Y5848D01*
X4944D01*
Y5864D01*
X4936Y5866D01*
X4928Y5867D01*
X4919Y5868D01*
D02*
G37*
G36*
X4909Y5876D02*
X4875D01*
Y5870D01*
X4909D01*
Y5876D01*
D02*
G37*
G36*
X4806Y5856D02*
X4805D01*
X4803Y5856D01*
X4802Y5855D01*
X4801Y5854D01*
X4801Y5854D01*
X4800Y5852D01*
Y5851D01*
Y5851D01*
X4800Y5849D01*
X4801Y5848D01*
X4802Y5848D01*
X4803Y5847D01*
X4804Y5846D01*
X4805D01*
X4807Y5847D01*
X4808Y5847D01*
X4809Y5848D01*
X4809Y5849D01*
X4810Y5850D01*
Y5851D01*
Y5851D01*
X4810Y5853D01*
X4809Y5854D01*
X4808Y5855D01*
X4807Y5855D01*
X4806Y5856D01*
D02*
G37*
G36*
X4967Y5858D02*
Y5848D01*
X4978D01*
X4979Y5850D01*
X4976Y5853D01*
X4972Y5855D01*
X4967Y5858D01*
D02*
G37*
G36*
X4827Y5791D02*
Y5785D01*
X4825D01*
X4837Y5656D01*
X4897Y5719D01*
X4858Y5759D01*
X4850D01*
Y5767D01*
X4827Y5791D01*
D02*
G37*
G36*
X4951Y5585D02*
X4949D01*
Y5572D01*
X4951D01*
Y5585D01*
D02*
G37*
G36*
X4845Y5615D02*
X4843D01*
X4840Y5614D01*
X4837Y5614D01*
X4835Y5613D01*
X4833Y5612D01*
X4832Y5611D01*
X4830Y5609D01*
X4828Y5606D01*
X4827Y5603D01*
X4827Y5600D01*
X4826Y5599D01*
Y5598D01*
Y5598D01*
Y5598D01*
X4827Y5595D01*
X4827Y5592D01*
X4828Y5590D01*
X4829Y5588D01*
X4830Y5587D01*
X4832Y5585D01*
X4835Y5583D01*
X4838Y5582D01*
X4840Y5581D01*
X4841Y5581D01*
X4843D01*
X4846Y5581D01*
X4848Y5582D01*
X4851Y5583D01*
X4853Y5584D01*
X4854Y5585D01*
X4856Y5586D01*
X4858Y5589D01*
X4859Y5592D01*
X4860Y5595D01*
X4860Y5596D01*
Y5597D01*
Y5597D01*
Y5598D01*
X4860Y5601D01*
X4859Y5603D01*
X4858Y5605D01*
X4857Y5607D01*
X4856Y5609D01*
X4855Y5610D01*
X4851Y5612D01*
X4848Y5614D01*
X4845Y5614D01*
X4845Y5615D01*
D02*
G37*
G36*
X4904Y5712D02*
X4838Y5643D01*
X4839Y5631D01*
X4843Y5632D01*
X4848Y5631D01*
X4854Y5630D01*
X4860Y5627D01*
X4865Y5623D01*
X4869Y5619D01*
X4872Y5614D01*
X4875Y5607D01*
X4877Y5600D01*
X4876Y5595D01*
X4955D01*
X4960Y5653D01*
X4904Y5712D01*
D02*
G37*
%LPD*%
G36*
X4847Y5608D02*
X4850Y5607D01*
X4852Y5605D01*
X4853Y5603D01*
X4854Y5601D01*
X4854Y5599D01*
X4854Y5598D01*
Y5598D01*
X4854Y5594D01*
X4853Y5591D01*
X4851Y5589D01*
X4848Y5588D01*
X4847Y5587D01*
X4845Y5587D01*
X4843Y5587D01*
X4843D01*
X4839Y5587D01*
X4837Y5588D01*
X4835Y5590D01*
X4833Y5592D01*
X4832Y5594D01*
X4832Y5596D01*
X4832Y5597D01*
Y5598D01*
X4832Y5602D01*
X4833Y5604D01*
X4835Y5606D01*
X4837Y5608D01*
X4839Y5608D01*
X4841Y5609D01*
X4842Y5609D01*
X4843D01*
X4847Y5608D01*
D02*
G37*
%LPC*%
G36*
X4843Y5599D02*
X4843D01*
X4842Y5599D01*
X4842Y5598D01*
X4841Y5598D01*
Y5598D01*
X4842Y5597D01*
X4842Y5596D01*
X4843Y5596D01*
X4843D01*
X4844Y5596D01*
X4844Y5597D01*
X4845Y5597D01*
Y5598D01*
X4844Y5599D01*
X4844Y5599D01*
X4843Y5599D01*
D02*
G37*
G36*
X5244Y5445D02*
X5241D01*
X5240Y5444D01*
X5238Y5443D01*
X5237Y5442D01*
X5236Y5442D01*
Y5442D01*
X5235Y5440D01*
X5234Y5438D01*
X5234Y5436D01*
Y5436D01*
Y5435D01*
X5253D01*
X5252Y5438D01*
X5251Y5441D01*
X5250Y5442D01*
X5250Y5442D01*
X5247Y5444D01*
X5245Y5444D01*
X5244Y5445D01*
D02*
G37*
G36*
X5280D02*
X5278D01*
X5276Y5444D01*
X5274Y5443D01*
X5273Y5442D01*
X5272Y5442D01*
Y5442D01*
X5271Y5440D01*
X5270Y5438D01*
X5270Y5436D01*
Y5436D01*
Y5435D01*
X5289D01*
X5288Y5438D01*
X5287Y5440D01*
X5286Y5442D01*
X5286Y5442D01*
X5284Y5444D01*
X5282Y5444D01*
X5280Y5445D01*
D02*
G37*
G36*
X3849Y3149D02*
X1764D01*
X1742Y3147D01*
X1721Y3142D01*
X1703Y3136D01*
X1688Y3128D01*
X1674Y3121D01*
X1665Y3114D01*
X1658Y3109D01*
X1657Y3107D01*
X1642Y3092D01*
X1629Y3074D01*
X1618Y3057D01*
X1611Y3042D01*
X1606Y3027D01*
X1603Y3016D01*
X1600Y3009D01*
Y3007D01*
Y3006D01*
Y2702D01*
Y2538D01*
X1603D01*
Y2517D01*
X1600D01*
Y2538D01*
X1374D01*
X1368Y2536D01*
X1360Y2535D01*
X1351Y2532D01*
X1342Y2528D01*
X1333Y2522D01*
X1324Y2516D01*
X1322Y2514D01*
X1319Y2511D01*
X1317Y2507D01*
X1311Y2500D01*
X1307Y2492D01*
X1304Y2482D01*
X1301Y2471D01*
X1300Y2459D01*
Y1860D01*
Y1859D01*
Y1854D01*
X1301Y1849D01*
X1303Y1841D01*
X1306Y1832D01*
X1310Y1822D01*
X1315Y1814D01*
X1324Y1804D01*
X1325Y1803D01*
X1328Y1800D01*
X1333Y1797D01*
X1339Y1793D01*
X1347Y1788D01*
X1357Y1785D01*
X1368Y1782D01*
X1379Y1781D01*
X1600D01*
Y1342D01*
Y1313D01*
X1606Y1291D01*
X1614Y1271D01*
X1622Y1254D01*
X1632Y1239D01*
X1642Y1228D01*
X1650Y1218D01*
X1656Y1213D01*
X1657Y1211D01*
X1675Y1199D01*
X1693Y1189D01*
X1711Y1182D01*
X1728Y1178D01*
X1743Y1175D01*
X1756Y1172D01*
X3838D01*
X3860Y1174D01*
X3881Y1178D01*
X3899Y1185D01*
X3915Y1192D01*
X3928Y1199D01*
X3938Y1206D01*
X3943Y1210D01*
X3946Y1211D01*
X3961Y1227D01*
X3974Y1245D01*
X3983Y1261D01*
X3990Y1277D01*
X3996Y1292D01*
X3999Y1303D01*
X4001Y1310D01*
Y1313D01*
Y1620D01*
Y1781D01*
X3999D01*
Y1804D01*
X4001D01*
Y1781D01*
X4228D01*
X4233Y1782D01*
X4242Y1784D01*
X4250Y1786D01*
X4260Y1791D01*
X4268Y1796D01*
X4278Y1804D01*
X4279Y1806D01*
X4281Y1809D01*
X4285Y1814D01*
X4289Y1820D01*
X4293Y1828D01*
X4296Y1838D01*
X4299Y1849D01*
X4300Y1860D01*
Y2459D01*
Y2460D01*
Y2464D01*
X4299Y2471D01*
X4297Y2479D01*
X4294Y2488D01*
X4290Y2497D01*
X4285Y2507D01*
X4278Y2516D01*
X4276Y2517D01*
X4274Y2520D01*
X4268Y2522D01*
X4262Y2527D01*
X4254Y2531D01*
X4244Y2535D01*
X4233Y2536D01*
X4222Y2538D01*
X4001D01*
Y2542D01*
Y2582D01*
Y2620D01*
Y2656D01*
Y2689D01*
Y2720D01*
Y2747D01*
Y2774D01*
Y2799D01*
Y2821D01*
Y2842D01*
Y2860D01*
Y2878D01*
Y2893D01*
Y2906D01*
Y2918D01*
Y2929D01*
Y2939D01*
Y2954D01*
Y2966D01*
Y2972D01*
Y2975D01*
Y2977D01*
Y3006D01*
X3996Y3028D01*
X3988Y3047D01*
X3979Y3064D01*
X3969Y3079D01*
X3961Y3092D01*
X3953Y3100D01*
X3947Y3106D01*
X3946Y3107D01*
X3928Y3121D01*
X3910Y3131D01*
X3892Y3139D01*
X3875Y3143D01*
X3860Y3146D01*
X3849Y3149D01*
D02*
G37*
%LPD*%
G36*
X4001Y2517D02*
X4226D01*
X4231Y2516D01*
X4235Y2514D01*
X4249Y2507D01*
X4261Y2497D01*
X4264Y2495D01*
X4269Y2486D01*
X4275Y2475D01*
X4276Y2467D01*
X4278Y2459D01*
Y1860D01*
Y1859D01*
Y1856D01*
X4276Y1852D01*
X4275Y1846D01*
X4271Y1834D01*
X4267Y1827D01*
X4261Y1820D01*
X4260D01*
X4258Y1817D01*
X4250Y1813D01*
X4238Y1807D01*
X4231Y1806D01*
X4222Y1804D01*
X4001D01*
Y2300D01*
Y2354D01*
Y2406D01*
Y2453D01*
Y2499D01*
Y2517D01*
X3999D01*
Y2538D01*
X4001D01*
Y2517D01*
D02*
G37*
G36*
X3978Y1620D02*
X3976Y1617D01*
X3971Y1610D01*
X3965Y1602D01*
X3957Y1592D01*
X3950Y1582D01*
X3943Y1574D01*
X3939Y1568D01*
X3938Y1566D01*
X3921Y1545D01*
X3900Y1524D01*
X3881Y1503D01*
X3860Y1484D01*
X3842Y1466D01*
X3828Y1452D01*
X3822Y1446D01*
X3818Y1442D01*
X3815Y1441D01*
X3814Y1439D01*
X3785Y1416D01*
X3760Y1397D01*
X3736Y1384D01*
X3717Y1372D01*
X3700Y1366D01*
X3688Y1360D01*
X3681Y1359D01*
X3678Y1357D01*
X3658Y1353D01*
X3644Y1350D01*
X3633Y1349D01*
X3622D01*
X3619Y1350D01*
X3618D01*
X1624Y1342D01*
Y1342D01*
X1600D01*
X1624Y1342D01*
Y2021D01*
Y2075D01*
Y2127D01*
Y2175D01*
Y2221D01*
Y2264D01*
Y2306D01*
Y2343D01*
Y2379D01*
Y2413D01*
Y2443D01*
Y2471D01*
Y2499D01*
Y2522D01*
Y2545D01*
Y2566D01*
Y2585D01*
Y2602D01*
Y2617D01*
Y2631D01*
Y2643D01*
Y2654D01*
Y2664D01*
Y2679D01*
Y2691D01*
Y2697D01*
Y2700D01*
Y2702D01*
X1625Y2704D01*
X1631Y2710D01*
X1636Y2718D01*
X1644Y2728D01*
X1651Y2738D01*
X1658Y2746D01*
X1664Y2752D01*
X1665Y2754D01*
X1682Y2775D01*
X1701Y2797D01*
X1722Y2818D01*
X1742Y2839D01*
X1760Y2857D01*
X1774Y2871D01*
X1779Y2877D01*
X1783Y2881D01*
X1786Y2882D01*
X1788Y2884D01*
X1817Y2906D01*
X1842Y2924D01*
X1865Y2938D01*
X1885Y2947D01*
X1901Y2954D01*
X1914Y2959D01*
X1921Y2961D01*
X1924D01*
X1943Y2966D01*
X1957Y2968D01*
X1968Y2970D01*
X1975Y2971D01*
X1983D01*
X3978Y2977D01*
Y1620D01*
D02*
G37*
G36*
X1600Y1804D02*
X1603D01*
Y1781D01*
X1600D01*
Y1804D01*
X1375D01*
X1371Y1806D01*
X1365D01*
X1353Y1811D01*
X1347Y1814D01*
X1340Y1820D01*
X1339Y1821D01*
X1338Y1822D01*
X1332Y1831D01*
X1326Y1843D01*
X1324Y1852D01*
Y1860D01*
Y2459D01*
Y2460D01*
Y2463D01*
X1325Y2467D01*
Y2472D01*
X1331Y2485D01*
X1335Y2492D01*
X1340Y2497D01*
X1342Y2499D01*
X1343Y2500D01*
X1351Y2506D01*
X1364Y2513D01*
X1379Y2517D01*
X1600D01*
Y1804D01*
D02*
G37*
G36*
X3978Y2977D02*
Y2977D01*
X4001D01*
X3978Y2977D01*
D02*
G37*
%LPC*%
G36*
X3233Y1831D02*
X3226Y1829D01*
X3219Y1827D01*
X3215Y1822D01*
X3210Y1814D01*
X3208Y1811D01*
Y1810D01*
X3188Y1691D01*
X3106Y1682D01*
X3035Y1675D01*
X2965Y1670D01*
X2932Y1667D01*
X2900Y1666D01*
X2871Y1664D01*
X2843Y1663D01*
X2817D01*
X2793Y1661D01*
X2722D01*
X2681Y1664D01*
X2639Y1667D01*
X2601Y1671D01*
X2567Y1674D01*
X2551Y1675D01*
X2538Y1677D01*
X2525Y1678D01*
X2515Y1679D01*
X2507Y1681D01*
X2501Y1682D01*
X2496D01*
X2411Y1691D01*
X2407Y1713D01*
X2403Y1735D01*
X2399Y1756D01*
X2394Y1774D01*
X2392Y1788D01*
X2389Y1800D01*
X2388Y1807D01*
Y1810D01*
X2383Y1818D01*
X2379Y1824D01*
X2374Y1828D01*
X2368Y1829D01*
X2360Y1831D01*
X2357Y1829D01*
X2356D01*
X2347Y1827D01*
X2342Y1821D01*
X2338Y1816D01*
X2335Y1810D01*
X2333Y1804D01*
X2332Y1800D01*
Y1797D01*
Y1796D01*
X2382Y1521D01*
X2386Y1513D01*
X2390Y1507D01*
X2396Y1503D01*
X2401Y1500D01*
X2415D01*
X2424Y1503D01*
X2429Y1509D01*
X2433Y1514D01*
X2436Y1520D01*
X2438Y1525D01*
Y1531D01*
Y1534D01*
Y1535D01*
X2419Y1632D01*
X2514Y1620D01*
X2593Y1613D01*
X2668Y1609D01*
X2704Y1607D01*
X2739Y1606D01*
X2856D01*
X2878Y1607D01*
X2911D01*
X2922Y1609D01*
X2932D01*
X2978Y1611D01*
X3022Y1616D01*
X3063Y1620D01*
X3082Y1621D01*
X3100Y1624D01*
X3117Y1625D01*
X3131Y1627D01*
X3143Y1628D01*
X3154Y1629D01*
X3163Y1631D01*
X3169Y1632D01*
X3175D01*
X3158Y1535D01*
X3160Y1525D01*
X3163Y1517D01*
X3167Y1511D01*
X3171Y1507D01*
X3179Y1502D01*
X3182Y1500D01*
X3192D01*
X3199Y1502D01*
X3204Y1504D01*
X3208Y1509D01*
X3213Y1517D01*
X3214Y1520D01*
Y1521D01*
X3264Y1796D01*
Y1806D01*
X3261Y1813D01*
X3258Y1818D01*
X3254Y1822D01*
X3246Y1828D01*
X3243Y1829D01*
X3242D01*
X3233Y1831D01*
D02*
G37*
G36*
X3690Y2716D02*
X1915D01*
X1900Y2711D01*
X1888Y2706D01*
X1881Y2700D01*
X1878Y2699D01*
Y2697D01*
X1868Y2686D01*
X1863Y2674D01*
X1861Y2668D01*
X1860Y2664D01*
Y2661D01*
Y2660D01*
Y2045D01*
X1864Y2028D01*
X1869Y2016D01*
X1875Y2007D01*
X1876Y2006D01*
X1878Y2004D01*
X1883Y1999D01*
X1890Y1996D01*
X1903Y1991D01*
X1907D01*
X1911Y1989D01*
X3686D01*
X3694Y1991D01*
X3701Y1992D01*
X3713Y1997D01*
X3721Y2002D01*
X3722Y2004D01*
X3724D01*
X3732Y2018D01*
X3738Y2031D01*
X3739Y2036D01*
X3740Y2041D01*
X3742Y2043D01*
Y2045D01*
Y2660D01*
X3738Y2675D01*
X3731Y2688D01*
X3726Y2695D01*
X3724Y2697D01*
X3711Y2707D01*
X3699Y2713D01*
X3694Y2714D01*
X3690Y2716D01*
D02*
G37*
%LPD*%
G36*
X3696Y2689D02*
X3703Y2686D01*
X3708Y2681D01*
X3713Y2675D01*
X3715Y2670D01*
X3717Y2664D01*
X3718Y2661D01*
Y2660D01*
Y2045D01*
X3715Y2035D01*
X3713Y2028D01*
X3707Y2022D01*
X3701Y2018D01*
X3696Y2016D01*
X3690Y2014D01*
X3688Y2013D01*
X1915D01*
X1906Y2016D01*
X1899Y2018D01*
X1892Y2024D01*
X1889Y2029D01*
X1886Y2035D01*
X1885Y2041D01*
X1883Y2043D01*
Y2045D01*
Y2660D01*
X1886Y2670D01*
X1889Y2677D01*
X1894Y2684D01*
X1900Y2686D01*
X1906Y2689D01*
X1911Y2691D01*
X1914Y2692D01*
X3686D01*
X3696Y2689D01*
D02*
G37*
%LPC*%
G36*
X3243Y2646D02*
X3238D01*
X3214Y2645D01*
X3192Y2642D01*
X3171Y2636D01*
X3151Y2631D01*
X3115Y2617D01*
X3100Y2610D01*
X3085Y2602D01*
X3072Y2593D01*
X3061Y2585D01*
X3051Y2578D01*
X3043Y2572D01*
X3036Y2567D01*
X3032Y2563D01*
X3029Y2560D01*
X3028Y2559D01*
X3013Y2542D01*
X3000Y2525D01*
X2989Y2509D01*
X2979Y2491D01*
X2971Y2474D01*
X2965Y2456D01*
X2954Y2424D01*
X2951Y2409D01*
X2949Y2395D01*
X2947Y2382D01*
X2946Y2371D01*
X2944Y2363D01*
Y2356D01*
Y2352D01*
Y2350D01*
X2946Y2328D01*
X2949Y2306D01*
X2953Y2285D01*
X2957Y2266D01*
X2971Y2231D01*
X2978Y2214D01*
X2986Y2200D01*
X2994Y2188D01*
X3001Y2177D01*
X3008Y2167D01*
X3015Y2159D01*
X3019Y2152D01*
X3024Y2147D01*
X3026Y2145D01*
X3028Y2143D01*
X3044Y2128D01*
X3061Y2116D01*
X3078Y2104D01*
X3096Y2095D01*
X3113Y2088D01*
X3131Y2081D01*
X3163Y2071D01*
X3178Y2067D01*
X3192Y2064D01*
X3204Y2063D01*
X3215Y2061D01*
X3224Y2060D01*
X3236D01*
X3258Y2061D01*
X3281Y2064D01*
X3301Y2068D01*
X3321Y2072D01*
X3357Y2086D01*
X3372Y2093D01*
X3386Y2102D01*
X3400Y2110D01*
X3411Y2117D01*
X3421Y2124D01*
X3429Y2131D01*
X3436Y2135D01*
X3440Y2139D01*
X3443Y2142D01*
X3444Y2143D01*
X3460Y2160D01*
X3472Y2177D01*
X3483Y2193D01*
X3493Y2211D01*
X3500Y2228D01*
X3507Y2246D01*
X3517Y2278D01*
X3521Y2293D01*
X3524Y2307D01*
X3525Y2320D01*
X3526Y2329D01*
X3528Y2338D01*
Y2345D01*
Y2349D01*
Y2350D01*
X3526Y2374D01*
X3524Y2395D01*
X3519Y2416D01*
X3515Y2435D01*
X3501Y2471D01*
X3494Y2486D01*
X3486Y2502D01*
X3478Y2514D01*
X3471Y2525D01*
X3464Y2535D01*
X3457Y2543D01*
X3453Y2550D01*
X3449Y2554D01*
X3446Y2557D01*
X3444Y2559D01*
X3428Y2574D01*
X3411Y2586D01*
X3394Y2597D01*
X3376Y2609D01*
X3358Y2617D01*
X3342Y2624D01*
X3310Y2634D01*
X3294Y2638D01*
X3281Y2641D01*
X3268Y2643D01*
X3258Y2645D01*
X3249D01*
X3243Y2646D01*
D02*
G37*
G36*
X2369D02*
X2364D01*
X2342Y2645D01*
X2319Y2642D01*
X2300Y2636D01*
X2281Y2631D01*
X2244Y2617D01*
X2229Y2610D01*
X2215Y2602D01*
X2203Y2593D01*
X2192Y2585D01*
X2182Y2578D01*
X2174Y2572D01*
X2167Y2567D01*
X2163Y2563D01*
X2160Y2560D01*
X2158Y2559D01*
X2143Y2542D01*
X2131Y2525D01*
X2119Y2509D01*
X2110Y2491D01*
X2101Y2474D01*
X2094Y2456D01*
X2085Y2424D01*
X2081Y2409D01*
X2078Y2395D01*
X2076Y2382D01*
X2075Y2371D01*
X2074Y2363D01*
Y2356D01*
Y2352D01*
Y2350D01*
X2075Y2328D01*
X2078Y2306D01*
X2082Y2285D01*
X2086Y2266D01*
X2100Y2231D01*
X2108Y2214D01*
X2115Y2200D01*
X2124Y2188D01*
X2132Y2177D01*
X2139Y2167D01*
X2144Y2159D01*
X2150Y2152D01*
X2154Y2147D01*
X2157Y2145D01*
X2158Y2143D01*
X2175Y2128D01*
X2192Y2116D01*
X2208Y2104D01*
X2226Y2095D01*
X2243Y2088D01*
X2261Y2081D01*
X2293Y2071D01*
X2308Y2067D01*
X2322Y2064D01*
X2335Y2063D01*
X2346Y2061D01*
X2354Y2060D01*
X2367D01*
X2389Y2061D01*
X2411Y2064D01*
X2432Y2068D01*
X2451Y2072D01*
X2486Y2086D01*
X2503Y2093D01*
X2517Y2102D01*
X2529Y2110D01*
X2540Y2117D01*
X2550Y2124D01*
X2558Y2131D01*
X2565Y2135D01*
X2569Y2139D01*
X2572Y2142D01*
X2574Y2143D01*
X2589Y2160D01*
X2601Y2177D01*
X2613Y2193D01*
X2622Y2211D01*
X2629Y2228D01*
X2636Y2246D01*
X2646Y2278D01*
X2650Y2293D01*
X2653Y2307D01*
X2654Y2320D01*
X2656Y2329D01*
X2657Y2338D01*
Y2345D01*
Y2349D01*
Y2350D01*
X2656Y2374D01*
X2653Y2395D01*
X2649Y2416D01*
X2644Y2435D01*
X2631Y2471D01*
X2624Y2486D01*
X2615Y2502D01*
X2607Y2514D01*
X2600Y2525D01*
X2593Y2535D01*
X2586Y2543D01*
X2582Y2550D01*
X2578Y2554D01*
X2575Y2557D01*
X2574Y2559D01*
X2557Y2574D01*
X2540Y2586D01*
X2524Y2597D01*
X2506Y2609D01*
X2488Y2617D01*
X2471Y2624D01*
X2438Y2634D01*
X2422Y2638D01*
X2408Y2641D01*
X2396Y2643D01*
X2385Y2645D01*
X2376D01*
X2369Y2646D01*
D02*
G37*
%LPD*%
G36*
X3171Y2550D02*
X3186Y2546D01*
X3200Y2541D01*
X3213Y2535D01*
X3222Y2529D01*
X3229Y2524D01*
X3233Y2520D01*
X3235Y2518D01*
X3246Y2506D01*
X3253Y2492D01*
X3258Y2478D01*
X3263Y2466D01*
X3265Y2453D01*
X3267Y2445D01*
Y2439D01*
Y2436D01*
X3265Y2418D01*
X3261Y2403D01*
X3257Y2389D01*
X3250Y2378D01*
X3244Y2368D01*
X3240Y2361D01*
X3236Y2357D01*
X3235Y2356D01*
X3222Y2345D01*
X3208Y2338D01*
X3194Y2332D01*
X3182Y2328D01*
X3172Y2325D01*
X3163Y2324D01*
X3156D01*
X3138Y2325D01*
X3122Y2329D01*
X3107Y2334D01*
X3096Y2341D01*
X3086Y2346D01*
X3079Y2350D01*
X3075Y2354D01*
X3074Y2356D01*
X3063Y2368D01*
X3054Y2382D01*
X3049Y2395D01*
X3044Y2409D01*
X3042Y2420D01*
X3040Y2428D01*
Y2434D01*
Y2436D01*
X3042Y2454D01*
X3046Y2470D01*
X3051Y2484D01*
X3057Y2496D01*
X3063Y2506D01*
X3068Y2513D01*
X3072Y2517D01*
X3074Y2518D01*
X3086Y2529D01*
X3100Y2538D01*
X3113Y2543D01*
X3126Y2547D01*
X3138Y2550D01*
X3146Y2552D01*
X3154D01*
X3171Y2550D01*
D02*
G37*
G36*
X2301D02*
X2317Y2546D01*
X2331Y2541D01*
X2342Y2535D01*
X2351Y2529D01*
X2358Y2524D01*
X2363Y2520D01*
X2364Y2518D01*
X2375Y2506D01*
X2382Y2492D01*
X2388Y2478D01*
X2392Y2466D01*
X2394Y2453D01*
X2396Y2445D01*
Y2439D01*
Y2436D01*
X2394Y2418D01*
X2390Y2403D01*
X2386Y2389D01*
X2379Y2378D01*
X2374Y2368D01*
X2369Y2361D01*
X2365Y2357D01*
X2364Y2356D01*
X2351Y2345D01*
X2338Y2338D01*
X2324Y2332D01*
X2311Y2328D01*
X2300Y2325D01*
X2290Y2324D01*
X2282D01*
X2265Y2325D01*
X2250Y2329D01*
X2236Y2334D01*
X2225Y2341D01*
X2215Y2346D01*
X2208Y2350D01*
X2204Y2354D01*
X2203Y2356D01*
X2192Y2368D01*
X2185Y2382D01*
X2179Y2395D01*
X2175Y2409D01*
X2172Y2420D01*
X2171Y2428D01*
Y2434D01*
Y2436D01*
X2172Y2454D01*
X2176Y2470D01*
X2181Y2484D01*
X2186Y2496D01*
X2193Y2506D01*
X2197Y2513D01*
X2201Y2517D01*
X2203Y2518D01*
X2215Y2529D01*
X2229Y2538D01*
X2242Y2543D01*
X2256Y2547D01*
X2267Y2550D01*
X2275Y2552D01*
X2283D01*
X2301Y2550D01*
D02*
G37*
D27*
X8665Y-1550D02*
Y-1750D01*
X8765D01*
X8798Y-1717D01*
Y-1683D01*
X8765Y-1650D01*
X8665D01*
X8765D01*
X8798Y-1617D01*
Y-1583D01*
X8765Y-1550D01*
X8665D01*
X8898Y-1750D02*
X8965D01*
X8998Y-1717D01*
Y-1650D01*
X8965Y-1617D01*
X8898D01*
X8865Y-1650D01*
Y-1717D01*
X8898Y-1750D01*
X9098Y-1583D02*
Y-1617D01*
X9065D01*
X9132D01*
X9098D01*
Y-1717D01*
X9132Y-1750D01*
X9265Y-1583D02*
Y-1617D01*
X9231D01*
X9298D01*
X9265D01*
Y-1717D01*
X9298Y-1750D01*
X9431D02*
X9498D01*
X9531Y-1717D01*
Y-1650D01*
X9498Y-1617D01*
X9431D01*
X9398Y-1650D01*
Y-1717D01*
X9431Y-1750D01*
X9598D02*
Y-1617D01*
X9631D01*
X9665Y-1650D01*
Y-1750D01*
Y-1650D01*
X9698Y-1617D01*
X9731Y-1650D01*
Y-1750D01*
X10131Y-1583D02*
X10098Y-1550D01*
X10031D01*
X9998Y-1583D01*
Y-1617D01*
X10031Y-1650D01*
X10098D01*
X10131Y-1683D01*
Y-1717D01*
X10098Y-1750D01*
X10031D01*
X9998Y-1717D01*
X10198Y-1750D02*
X10264D01*
X10231D01*
Y-1617D01*
X10198D01*
X10364Y-1750D02*
X10431D01*
X10398D01*
Y-1550D01*
X10364D01*
X10531Y-1750D02*
Y-1550D01*
Y-1683D02*
X10631Y-1617D01*
X10531Y-1683D02*
X10631Y-1750D01*
X10731D02*
X10831D01*
X10864Y-1717D01*
X10831Y-1683D01*
X10764D01*
X10731Y-1650D01*
X10764Y-1617D01*
X10864D01*
X11064D02*
X10964D01*
X10931Y-1650D01*
Y-1717D01*
X10964Y-1750D01*
X11064D01*
X11131Y-1617D02*
Y-1750D01*
Y-1683D01*
X11164Y-1650D01*
X11198Y-1617D01*
X11231D01*
X11431Y-1750D02*
X11364D01*
X11331Y-1717D01*
Y-1650D01*
X11364Y-1617D01*
X11431D01*
X11464Y-1650D01*
Y-1683D01*
X11331D01*
X11631Y-1750D02*
X11564D01*
X11531Y-1717D01*
Y-1650D01*
X11564Y-1617D01*
X11631D01*
X11664Y-1650D01*
Y-1683D01*
X11531D01*
X11731Y-1750D02*
Y-1617D01*
X11831D01*
X11864Y-1650D01*
Y-1750D01*
D29*
X7665Y0D02*
Y6000D01*
X0D02*
X7665D01*
X0Y0D02*
Y6000D01*
Y0D02*
X7665D01*
D30*
X8735Y5916D02*
Y5516D01*
X9002D01*
X9202Y5782D02*
X9335D01*
X9401Y5716D01*
Y5516D01*
X9202D01*
X9135Y5582D01*
X9202Y5649D01*
X9401D01*
X9535Y5782D02*
X9801D01*
X9535Y5516D01*
X9801D01*
X9935Y5782D02*
Y5582D01*
X10001Y5516D01*
X10201D01*
Y5449D01*
X10135Y5383D01*
X10068D01*
X10201Y5516D02*
Y5782D01*
X11001Y5849D02*
X10934Y5916D01*
X10801D01*
X10734Y5849D01*
Y5582D01*
X10801Y5516D01*
X10934D01*
X11001Y5582D01*
X11201Y5516D02*
X11334D01*
X11401Y5582D01*
Y5716D01*
X11334Y5782D01*
X11201D01*
X11134Y5716D01*
Y5582D01*
X11201Y5516D01*
X11534D02*
Y5782D01*
X11734D01*
X11801Y5716D01*
Y5516D01*
X12001Y5849D02*
Y5782D01*
X11934D01*
X12067D01*
X12001D01*
Y5582D01*
X12067Y5516D01*
X12267Y5782D02*
Y5516D01*
Y5649D01*
X12334Y5716D01*
X12400Y5782D01*
X12467D01*
X12734Y5516D02*
X12867D01*
X12934Y5582D01*
Y5716D01*
X12867Y5782D01*
X12734D01*
X12667Y5716D01*
Y5582D01*
X12734Y5516D01*
X13067D02*
X13200D01*
X13134D01*
Y5916D01*
X13067D01*
X13800D02*
Y5516D01*
X14000D01*
X14067Y5582D01*
Y5649D01*
X14000Y5716D01*
X13800D01*
X14000D01*
X14067Y5782D01*
Y5849D01*
X14000Y5916D01*
X13800D01*
X14267Y5516D02*
X14400D01*
X14466Y5582D01*
Y5716D01*
X14400Y5782D01*
X14267D01*
X14200Y5716D01*
Y5582D01*
X14267Y5516D01*
X14666Y5782D02*
X14800D01*
X14866Y5716D01*
Y5516D01*
X14666D01*
X14600Y5582D01*
X14666Y5649D01*
X14866D01*
X15000Y5782D02*
Y5516D01*
Y5649D01*
X15066Y5716D01*
X15133Y5782D01*
X15200D01*
X15666Y5916D02*
Y5516D01*
X15466D01*
X15400Y5582D01*
Y5716D01*
X15466Y5782D01*
X15666D01*
X8868Y4735D02*
X8735Y4868D01*
Y5001D01*
X8868Y5135D01*
X9068Y5001D02*
X9202Y4735D01*
X9335Y5001D01*
X9668Y4735D02*
X9535D01*
X9468Y4801D01*
Y4935D01*
X9535Y5001D01*
X9668D01*
X9735Y4935D01*
Y4868D01*
X9468D01*
X9868Y5001D02*
Y4735D01*
Y4868D01*
X9935Y4935D01*
X10001Y5001D01*
X10068D01*
X10268Y4735D02*
X10468D01*
X10534Y4801D01*
X10468Y4868D01*
X10334D01*
X10268Y4935D01*
X10334Y5001D01*
X10534D01*
X10668Y4735D02*
X10801D01*
X10734D01*
Y5001D01*
X10668D01*
X11068Y4735D02*
X11201D01*
X11268Y4801D01*
Y4935D01*
X11201Y5001D01*
X11068D01*
X11001Y4935D01*
Y4801D01*
X11068Y4735D01*
X11401D02*
Y5001D01*
X11601D01*
X11667Y4935D01*
Y4735D01*
X12201D02*
X12334D01*
X12267D01*
Y5135D01*
X12201Y5068D01*
X12534Y4735D02*
Y4801D01*
X12600D01*
Y4735D01*
X12534D01*
X12867Y5068D02*
X12934Y5135D01*
X13067D01*
X13134Y5068D01*
Y4801D01*
X13067Y4735D01*
X12934D01*
X12867Y4801D01*
Y5068D01*
X13667Y5001D02*
Y4735D01*
Y4868D01*
X13733Y4935D01*
X13800Y5001D01*
X13867D01*
X14267Y4735D02*
X14133D01*
X14067Y4801D01*
Y4935D01*
X14133Y5001D01*
X14267D01*
X14333Y4935D01*
Y4868D01*
X14067D01*
X14466Y5001D02*
X14600Y4735D01*
X14733Y5001D01*
X14866Y4735D02*
X15000D01*
X14933D01*
Y5001D01*
X14866D01*
X15200Y4735D02*
X15400D01*
X15466Y4801D01*
X15400Y4868D01*
X15266D01*
X15200Y4935D01*
X15266Y5001D01*
X15466D01*
X15599Y4735D02*
X15733D01*
X15666D01*
Y5001D01*
X15599D01*
X15999Y4735D02*
X16133D01*
X16199Y4801D01*
Y4935D01*
X16133Y5001D01*
X15999D01*
X15933Y4935D01*
Y4801D01*
X15999Y4735D01*
X16333D02*
Y5001D01*
X16532D01*
X16599Y4935D01*
Y4735D01*
X17399Y5068D02*
X17332Y5135D01*
X17199D01*
X17132Y5068D01*
Y4801D01*
X17199Y4735D01*
X17332D01*
X17399Y4801D01*
X17532Y4735D02*
X17665Y4868D01*
Y5001D01*
X17532Y5135D01*
X9002Y4420D02*
X8935Y4487D01*
X8802D01*
X8735Y4420D01*
Y4153D01*
X8802Y4087D01*
X8935D01*
X9002Y4153D01*
Y4287D01*
X8868D01*
X9401Y4420D02*
X9335Y4487D01*
X9202D01*
X9135Y4420D01*
Y4353D01*
X9202Y4287D01*
X9335D01*
X9401Y4220D01*
Y4153D01*
X9335Y4087D01*
X9202D01*
X9135Y4153D01*
X9735Y4087D02*
X9601D01*
X9535Y4153D01*
Y4287D01*
X9601Y4353D01*
X9735D01*
X9801Y4287D01*
Y4220D01*
X9535D01*
X9935Y3954D02*
Y4353D01*
X10135D01*
X10201Y4287D01*
Y4153D01*
X10135Y4087D01*
X9935D01*
X10334Y4487D02*
Y4087D01*
Y4287D01*
X10401Y4353D01*
X10534D01*
X10601Y4287D01*
Y4087D01*
X11001Y4487D02*
X10734D01*
Y4087D01*
X11001D01*
X10734Y4287D02*
X10868D01*
X11134Y4087D02*
X11268D01*
X11201D01*
Y4487D01*
X11134D01*
X11667Y4087D02*
X11534D01*
X11467Y4153D01*
Y4287D01*
X11534Y4353D01*
X11667D01*
X11734Y4287D01*
Y4220D01*
X11467D01*
X12134Y4353D02*
X11934D01*
X11867Y4287D01*
Y4153D01*
X11934Y4087D01*
X12134D01*
X9002Y3639D02*
X8935Y3706D01*
X8802D01*
X8735Y3639D01*
Y3372D01*
X8802Y3306D01*
X8935D01*
X9002Y3372D01*
Y3506D01*
X8868D01*
X9335Y3306D02*
X9202D01*
X9135Y3372D01*
Y3506D01*
X9202Y3572D01*
X9335D01*
X9401Y3506D01*
Y3439D01*
X9135D01*
X9601Y3306D02*
X9735D01*
X9801Y3372D01*
Y3506D01*
X9735Y3572D01*
X9601D01*
X9535Y3506D01*
Y3372D01*
X9601Y3306D01*
X9935Y3572D02*
Y3306D01*
Y3439D01*
X10001Y3506D01*
X10068Y3572D01*
X10135D01*
X10468Y3172D02*
X10534D01*
X10601Y3239D01*
Y3572D01*
X10401D01*
X10334Y3506D01*
Y3372D01*
X10401Y3306D01*
X10601D01*
X10934D02*
X10801D01*
X10734Y3372D01*
Y3506D01*
X10801Y3572D01*
X10934D01*
X11001Y3506D01*
Y3439D01*
X10734D01*
X11801Y3639D02*
X11734Y3706D01*
X11601D01*
X11534Y3639D01*
Y3572D01*
X11601Y3506D01*
X11734D01*
X11801Y3439D01*
Y3372D01*
X11734Y3306D01*
X11601D01*
X11534Y3372D01*
X12134Y3306D02*
X12001D01*
X11934Y3372D01*
Y3506D01*
X12001Y3572D01*
X12134D01*
X12201Y3506D01*
Y3439D01*
X11934D01*
X12334Y3172D02*
Y3572D01*
X12534D01*
X12600Y3506D01*
Y3372D01*
X12534Y3306D01*
X12334D01*
X12734Y3706D02*
Y3306D01*
Y3506D01*
X12800Y3572D01*
X12934D01*
X13000Y3506D01*
Y3306D01*
X13200Y3639D02*
Y3572D01*
X13134D01*
X13267D01*
X13200D01*
Y3372D01*
X13267Y3306D01*
X13533D02*
X13667D01*
X13733Y3372D01*
Y3506D01*
X13667Y3572D01*
X13533D01*
X13467Y3506D01*
Y3372D01*
X13533Y3306D01*
X13867D02*
Y3572D01*
X14067D01*
X14133Y3506D01*
Y3306D01*
X9002Y2525D02*
X8735D01*
X9002Y2791D01*
Y2858D01*
X8935Y2924D01*
X8802D01*
X8735Y2858D01*
X9135D02*
X9202Y2924D01*
X9335D01*
X9401Y2858D01*
Y2791D01*
X9335Y2724D01*
X9401Y2658D01*
Y2591D01*
X9335Y2525D01*
X9202D01*
X9135Y2591D01*
Y2658D01*
X9202Y2724D01*
X9135Y2791D01*
Y2858D01*
X9202Y2724D02*
X9335D01*
X9535Y2525D02*
X9801Y2791D01*
X9935Y2858D02*
X10001Y2924D01*
X10135D01*
X10201Y2858D01*
Y2591D01*
X10135Y2525D01*
X10001D01*
X9935Y2591D01*
Y2858D01*
X10601Y2924D02*
X10334D01*
Y2724D01*
X10468Y2791D01*
X10534D01*
X10601Y2724D01*
Y2591D01*
X10534Y2525D01*
X10401D01*
X10334Y2591D01*
X10734Y2525D02*
X11001Y2791D01*
X11401Y2525D02*
X11134D01*
X11401Y2791D01*
Y2858D01*
X11334Y2924D01*
X11201D01*
X11134Y2858D01*
X11534D02*
X11601Y2924D01*
X11734D01*
X11801Y2858D01*
Y2591D01*
X11734Y2525D01*
X11601D01*
X11534Y2591D01*
Y2858D01*
X12201Y2525D02*
X11934D01*
X12201Y2791D01*
Y2858D01*
X12134Y2924D01*
X12001D01*
X11934Y2858D01*
X12334Y2525D02*
X12467D01*
X12400D01*
Y2924D01*
X12334Y2858D01*
M02*
